<?xml version="1.0" encoding="UTF-8"?><svg xmlns="http://www.w3.org/2000/svg" xmlns:xlink="http://www.w3.org/1999/xlink" viewBox="0 0 232.39 97.63"><defs><style>.h{fill:url(#e);}.i{fill:url(#d);}.j{fill:url(#g);}.k{fill:url(#f);}</style><linearGradient id="d" x1="-5.8" y1="60.41" x2="629.21" y2="-3.28" gradientTransform="matrix(1, 0, 0, 1, 0, 0)" gradientUnits="userSpaceOnUse"><stop offset="0" stop-color="#f3ff7f"/><stop offset=".3" stop-color="#c1ff6f"/><stop offset=".92" stop-color="#a5ffcf"/></linearGradient><linearGradient id="e" x1="-5.66" y1="61.83" x2="629.36" y2="-1.86" gradientTransform="matrix(1, 0, 0, 1, 0, 0)" gradientUnits="userSpaceOnUse"><stop offset="0" stop-color="#f3ff7f"/><stop offset=".3" stop-color="#c1ff6f"/><stop offset=".58" stop-color="#a5ffcf"/></linearGradient><linearGradient id="f" x1="-5.23" y1="66.07" x2="629.78" y2="2.39" xlink:href="#e"/><linearGradient id="g" x1="-5.06" y1="67.8" x2="629.96" y2="4.12" xlink:href="#e"/></defs><g id="a"/><g id="b"><g id="c"><g><path class="i" d="M44.55,48.26c.2,2.83,.12,5.58-.04,8.44-.18,1.39-.35,2.78-.52,4.26-.79,4.37-1.97,8.48-3.88,12.56-.49,.86-.88,1.8-1.37,2.66-1.96,3.35-8.48,12.25-12.77,12.55-.09,0-.73,.05-.75-.22l-3.28,.23-.19-.08-.73,.05-.46-.06h-.18l-.1-.07-1.09,.08c-.37-.07-.74-.04-1.02-.11-.28-.07-.55-.05-.83-.12l.07-.28h-.18c-.28-.06-.55-.04-.83-.11-.18,.01-.37-.07-.47-.15l-.02-.27c-.38-.16-.85-.31-1.23-.55-.57-.23-1.14-.56-1.71-.89-1.52-.72-3.06-1.71-4.34-2.99,.1,.18,.3,.35,.4,.52,2.51,3.12,6.77,4.93,10.73,5.2,.09,0,.27-.02,.46,.06l.46-.03c.28,.07,.65,.05,1.01,.02,.65,.05,1.28,0,1.92-.04,.09,0,.18-.01,.28,.07l-2.19,.15c-.55-.05-1.19,0-1.84-.05-.37,.03-.65-.05-.93-.12-.37,.03-.65-.05-1.02-.11-.65-.14-1.21-.28-1.86-.42-.19-.08-.28-.07-.47-.15-.1-.09-.19-.08-.38-.16l-.38-.16c-.09,0-.28-.07-.38-.16-.56-.14-1.04-.39-1.52-.72-.48-.24-.95-.48-1.43-.82-.2-.17-.38-.25-.67-.41,.59,.51,1.36,1.1,2.03,1.42l1.43,.72c.28,.07,.48,.24,.76,.31,.19,.08,.47,.15,.76,.31,1.03,.29,1.96,.5,3.08,.7,1.02,.11,2.03,.22,3.04,.24,.18-.01,.37-.03,.46,.06,.36-.12,.63-.14,.9-.25l1.1-.08c.1,.08,0,.09-.08,.1l-.46,.03c-.08,.1-.27,.11-.36,.12l-.73,.05c-.08,.1-.18,.01-.27,.02,0,.09-.08,.1-.27,.11-4.65,.33-8.78-.94-12.29-3.99l-.27,.02c-.1-.09-.29-.26-.58-.42l-.29-.25c-.1-.18-.2-.26-.4-.43l-.21-.35c-1.31-1.65-2.17-3.42-2.85-5.21l-.31-.53c-.11-.27-.21-.44-.33-.71-.75-1.51-1.31-3.02-1.7-4.65,0,.09-.08,.19-.08,.19-.19-.08-.31-.44-.43-.89,.03,.46,.06,.82,.18,1.27l.02,.27c.45,2.44,1.25,4.68,2.5,6.79,2.24,4.43,6.6,7.78,11.45,8.91,.18-.01,.28,.07,.37,.07,.1,.09,0,.09-.08,.1-3.15-.51-6.07-1.59-8.59-3.52C3.11,81.92,.51,75.04,.04,68.38c-.19-3.93,.35-10.57,1.64-14.33,1.72-8.1,6.96-15.62,13.09-21.01-.27,.02-.55,.04-.55-.05-.1-.08-.01-.18,.07-.28,.18-.1,.35-.21,.62-.32,.36-.12,.72-.23,1.17-.36,.79-.51,1.58-1.03,2.29-1.26,.18-.1,.27-.11,.44-.22,.09,0,.27-.02,.36-.12,.18-.01,.45-.12,.63-.14,.37-.03,.64-.05,.83,.12,.19,.08,.21,.35,.05,.64,0,.09-.08,.1-.08,.19l1.19-.08c.8-.33,1.53-.47,2.07-.51,.27-.02,.55,.05,.83,.03l.37-.03c-1.13-.47-3.07-.61-4.26-.52l-1.92,.14c-.63,.14-1.27,.18-1.9,.32-.08,.1-.18,.1-.27,.02,1.43-.47,2.7-.74,4.07-.84,.46-.03,.91-.07,1.47-.01q-.29-.16-.38-.16c0-.09-.1-.18-.02-.27-.01-.18,.25-.29,.62-.32l-.37-.07-.27,.02-.37-.07-.27,.02c-.18,.01-.28-.07-.38-.25l.37-.03c1.84,.05,3.6,.39,5.21,1.01l.76,.31c.09,0,.19,.08,.37,.07l.29,.25c.47,.15,.95,.39,1.43,.72,.48,.24,.87,.58,1.35,.91l1.17,1.02c-.11-.27-.22-.53-.23-.72-.1-.08-.2-.17-.3-.35-.19-.08-.29-.16-.39-.34-1.25-.83-2.68-1.55-4.09-2.09-2.25-.67-4.66-1.04-6.94-.88-.73,.05-1.54,.2-2.36,.35-.73,.05-1.54,.2-2.26,.44-.27,.02-.45,.12-.63,.14l-.27,.02-1.43,.47-.27,.02c0-.09,.09-.1,.17-.2,.99-.25,1.89-.5,2.89-.66,.9-.25,1.8-.4,2.8-.57,.08-.1,.18-.1,.27-.02,3.66-.17,6.97-.04,10.21,1.75-2.88-1.81-5.94-2.24-9.32-2.18-.18,.01-.37,.03-.54,.13l-.82,.06s0-.09,.09-.1l.36-.03c-.36,.03-.64-.05-.83-.03-.19-.08-.29-.16-.29-.25,0-.09,.08-.19,.35-.3,.18-.01,.45-.12,.81-.15,1.82-.13,3.56-.16,5.33,.17,.19,.08,.37,.07,.56,.14,.18-.01,.27-.02,.46,.06-1.97-.69-4.1-.9-6.11-.76l-2.1,.15c-.18,.1-.46,.03-.46,.03,0-.09,.17-.2,.44-.22,1.17-.27,2.44-.45,3.72-.54,1.28,0,2.57,.09,3.87,.27,.65,.05,1.21,.19,1.86,.42,.65,.14,1.31,.37,1.88,.6,.57,.33,1.23,.55,1.81,.88,.57,.33,1.15,.74,1.64,1.08,1.53,.9,2.98,1.99,4.27,3.36-1.54-2.27-3.69-4.14-6.24-5.24-.29-.16-.57-.23-.94-.39-.28-.07-.57-.24-.94-.3-.29-.16-.66-.23-.94-.3-.37-.07-.65-.14-1.02-.2-.28-.07-.65-.14-1.02-.2-.28-.07-.65-.05-.93-.12-.18,.01-.37,.03-.55-.05l-.46,.03c-.74-.04-1.38-.09-2.02-.04-.18,.01-.28-.07-.28-.07,0,0,.08-.1,.18-.1,.65,.05,1.38,0,2.02,.04,.27-.02,.65,.05,.92,.03,.18-.01,.37,.07,.55,.05,.18-.01,.28,.07,.46,.06l1.02,.11c.1,.08,.28,.07,.47,.15,.18-.01,.37,.07,.46,.06,.66,.23,1.31,.37,1.97,.69,2.25,.76,4.09,2.09,5.75,3.53-1.49-1.64-3.41-2.88-5.49-3.74-.48-.24-1.04-.38-1.5-.54-.28-.07-.56-.14-.75-.22l-.47-.15h-.18l-.19-.07c-1.02-.2-2.13-.31-3.24-.41-.18,.01-.37,.03-.46-.06h-.09c-.55,.05-1.09,.18-1.73,.22-.09,0-.18,.01-.2-.17l1.92-.14s.08-.1,.36-.12c2.1-.06,4.33,.33,6.5,1.1,1.04,.48,2.18,1.04,3.14,1.61,.96,.66,1.93,1.42,2.73,2.28l.27-.02c.1,.09,.2,.17,.29,.16l.9,1.04c.1,.08,.2,.26,.31,.44,1.22,1.66,2.08,3.52,2.76,5.31,.1,.18,.21,.35,.32,.62,.1,.18,.21,.44,.32,.62,.66,1.6,1.33,3.21,1.72,4.83,0-.09,.08-.19,.08-.19,.18-.01,.3,.35,.43,.89-.03-.46-.06-.91-.19-1.36l-.02-.27c-.14-.72-.38-1.44-.53-2.26-1.15-3.31-2.55-6.24-4.85-8.92-2.66-2.65-4.79-4.24-8.46-5.45-.09,0-.28-.07-.38-.16,0,0,0-.09,.18-.01,7.62,1.48,12.34,7.19,14.86,14.35,.55,1.34,.92,2.69,1.2,4.04l.26,1.08c.02,.27,.04,.64,.16,1,.14,.72,.19,1.36,.24,2.09ZM13.19,80.65c-1.11-1.39-2.05-3.06-2.73-4.85-.25-.9-.49-1.71-.74-2.61v.09c-.08,0-.18-.08-.28-.16,.03,.46,.16,1,.29,1.45,.11,.27,.13,.54,.23,.72,.02,.27,.13,.54,.14,.72,.85,1.68,1.88,3.26,3.08,4.64Zm21.61-33.99l-.07-1c-.31-1.72-.69-3.25-1.26-4.77-.24-.81-.57-1.52-1.07-2.12l-.08,.1c-.08,.1-.18,.1-.18,.1,.14,.63,.36,1.26,.59,1.79,.47,1.53,.87,3.15,1.07,4.69v.18c-.08,0-.08-.08-.09-.18-.21-1.64-.59-3.17-1.16-4.69-.13-.54-.36-1.17-.67-1.69-.7,.42-2.14,.89-2.87,.94,.09,0,.19,.08,.19,.08-.18,.01-.36,.12-.45,.12-.18,.1-.36,.12-.54,.13l.73-.05c-.63,.14-1.17,.27-1.71,.4-.18,.01-.45,.12-.72,.14-.27,.11-.9,.25-1.17,.27-.26,.2-.53,.31-.71,.33q-.09,0-.18,.1c-1.23,.73-2.37,1.45-3.53,1.99-.34,.39-.68,.69-1.04,.9l.27-.02c-.18,.1-.35,.21-.44,.22-.18,.1-.26,.2-.44,.31,.09,0,.19,.08,.28,.07-.78,.7-1.45,1.48-2.03,2.35-.68,.78-1.26,1.65-1.94,2.34,0,.09-.08,.19-.08,.19-.31,.85-.62,1.6-1.01,2.55,.08-.19,.16-.29,.24-.48,.08-.1,.16-.29,.25-.38-.69,1.97-2.19,5.38-3.46,6.85-.29,1.03-.5,2.05-.71,2.98l-.33,3.05-.06,3.03c.07,1,.14,1.92,.3,2.91,.01,.18,.03,.37-.07,.37-.08,.1-.19-.08-.2-.26-.28-1.36-.38-2.81-.4-4.28-.01-1.47,.07-2.94,.24-4.42-.47,2.42-.75,4.91-.66,7.47l.03,.46c.01,.18,.12,.36,.13,.54l.06,.91c.38,2.72,1.36,6.23,3.24,8.21,.21,.35,.5,.61,.79,.86,.18-.1,.44-.21,.72-.23,.63-.23,1.25-.45,1.88-.59h-.18c.35-.2,.72-.22,1.08-.34l-.73,.05,1.62-.39c.54-.13,1.07-.35,1.53-.38,.09,0,.27-.11,.44-.21l.35-.21c.18-.01,.27-.11,.36-.12,.09,0,.08-.1,.18-.1,.61-.41,1.23-.82,1.75-1.22,.61-.41,1.23-.73,1.75-1.13,.34-.39,.77-.79,1.12-1-.09,0-.18,.11-.36,.12,.35-.3,.61-.41,.87-.7l-.27,.02c.77-.79,1.35-1.65,2.02-2.53,.57-.96,1.15-1.82,1.73-2.69l.17-.2c.22-.84,.43-1.68,.82-2.63-.08,.1-.16,.29-.25,.39-.08,.19-.16,.38-.24,.47,.23-.66,.45-1.41,.76-2.16,.39-.94,.77-2.07,1.25-3.02,.39-.94,.89-1.71,1.21-2.29,.59-1.97,.7-4.36,.74-6.38,.12-2.12-.02-4.22-.36-6.3-.01-.18-.03-.37,.06-.46,0,0,.1,.18,.12,.36,.38,1.44,.58,2.99,.6,4.54,.11,1.55,.04,3.12-.13,4.69,.52-3.06,.5-5.81,.28-8.91ZM13.74,79.33c.1,.09,.1,.18,.1,.18q-.09,0-.19-.08c-.2-.26-.41-.61-.61-.87-.11-.27-.32-.62-.52-.88-.96-1.95-1.58-4.2-1.83-6.38,0-.09,.08-.19,.08-.19,0,0,.1,.08,.1,.18,.19,2.65,1.25,5.96,2.86,8.05Zm.05,4.58c-.1-.09-.38-.25-.57-.23h.18c-.1-.1-.2-.18-.2-.27-.18,.01-.28-.07-.29-.16q-.1-.09-.19-.08c.1,.18,.21,.35,.22,.53v.09q.19-.01,.27-.11l.57,.23Zm2.31,1.49c-.19-.08-.2-.17-.11-.27-.1-.09-.28-.07-.38-.16-.27,.02-.37,.03-.54,.13,.29,.16,.66,.23,.94,.39l.08-.1Zm-.38-2.72l.27-.02c-.09,0-.1-.08-.19-.08q-.18,.1-.26,.2,.09,0,.18-.1Zm.3,3c-.19-.08-.29-.16-.48-.24,.19,.08,.29,.16,.48,.24Zm-.4-3c.08-.1,.18-.1,.18-.1l-.18,.1Zm1.13,.38c-.1-.08-.19-.08-.29-.16-.18,.1-.36,.12-.54,.13l.2,.17c.09,0,.18-.01,.27-.11,.09,0,.19,.08,.19,.08q.08-.1,.18-.1Zm2.2-1.26c-.1-.08-.1-.18-.1-.18-.72,.23-1.43,.47-2.07,.6,.1,.09,.29,.16,.47,.24h.18c.18-.12,.27-.03,.19,.07h-.09l.1,.09c.18-.1,.44-.31,.96-.71,.08-.1,.18-.1,.36-.12Zm.06-53.37c.08-.1,.18-.1,.27-.02,0,.09-.18,.1-.27,.11q-.1-.08,0-.09Zm.11,53.27q-.09,0-.18,.1,.08-.1,.18-.1Zm.07,2.29c.09,0,.18-.01,.27-.02-.18,.01-.27,.02-.27,.02Zm5.35-7.35c.17-.2,.35-.3,.51-.5-.18,.1-.27,.11-.44,.21-.08,.1-.18,.1-.26,.2-.69,.6-1.47,1.2-2.18,1.62-.61,.41-1.23,.73-1.94,1.06l-.25,.29c-.08,.19-.25,.29-.34,.39,1.06-.63,2.12-1.16,3.08-1.78,.7-.51,1.3-1.01,1.9-1.6l-.08,.1Zm-4.63-44.51h0Zm2.34,48.43c.79-.51,1.49-1.02,2.18-1.53-.09,0,.08-.19,.16-.29,.09,0,.08-.1,.17-.2-.69,.6-1.48,1.11-2.27,1.63-.8,.42-1.58,.94-2.29,1.26,.36-.12,.9-.25,1.26-.27l.78-.61Zm-1.32-37.96c.08-.1,.18-.1,.35-.21,1.04-.9,2.71-1.84,3.96-2.3l.34-.39c.08-.1,.27-.11,.35-.21-1.16,.45-2.04,.97-3.1,1.5-.61,.41-1.31,.92-1.92,1.42-.08,.1-.17,.2-.35,.3,.18-.01,.27-.11,.36-.12Zm-.06-2.2c.79-.51,1.58-1.03,2.37-1.45,.61-.41,1.32-.74,1.95-.96l-1,.07c-.26,.2-.53,.31-.79,.51-.8,.42-1.49,.93-2.19,1.44,.18-.01,0,.09-.08,.19s-.18,.1-.26,.2Zm.23,1.91q-.09,0-.08,.1c0-.09,.08-.1,.08-.1Zm4.25,45.73c-.01-.18,.07-.28,.16-.38l-.91,.07c-.26,.2-.53,.31-.71,.33,.1,.08,.19,.08,.37,.07l1.1-.08Zm.66-1.05c.09-.1,.18-.1,.17-.2,0,.09-.08,.1-.17,.2Zm.47-51.56c-.1-.08-.19-.08-.28-.07,.18-.01,.28,.07,.28,.07Zm.33,2.08c-.08,.1-.18,.1-.27,.11h.18c1-.18,1.99-.43,2.99-.59l.26-.2q0-.09,.08-.1-.09,0-.18,.1l-1.73,.12c-.18,.1-.27,.02-.19-.08,.09,0,.27-.11,.45-.12,.72-.23,1.62-.39,2.44-.54,0-.09-.1-.18-.2-.26-.18,.01-.27,.11-.27,.11q-.54,.13-1.17,.27h-.18l-.63,.24c-.09,.1-.18,.1-.26,.2h-.09c-.09,.01-.18,.11-.35,.22-.08,.1-.35,.21-.61,.5l-.27,.02Zm2.46-4.12q-.1-.08-.19-.08,.1,.08,.19,.08Zm.32,.62l.59,.51h.18c-.3-.36-.5-.62-.79-.87l.03,.37Zm.38,2.82c-.09,0-.18,.01-.18,.01,.09,0,.18-.01,.18-.01Zm1.3-1.01c.1,.08,.2,.17,.2,.26,.09,0,.18-.01,.18-.01,0-.09-.1-.18-.2-.26,0,0-.09,0-.18,.01Zm.03,1.74h.18c.18-.03,.28,.06,.37,.05,0-.09-.1-.18-.1-.18-.18,.01-.27,.11-.45,.12Zm3.44,5.81c.09,0,.19,.08,.29,.25-.04-.55-.17-1.09-.3-1.63-.13-.54-.35-1.08-.47-1.53-.55-1.24-1.18-2.39-1.89-3.44,.03,.37,.23,.72,.35,.98,.94,1.67,1.54,3.65,2.04,5.45v-.09Z"/><path class="h" d="M116.5,31.05l-.16,1.57c0,.09,.01,.18-.07,.28l.02,.27-.35,1.49c0,.09-.08,.19-.07,.28l-.14,.56c-.08,.19-.16,.29-.24,.48l-.14,.56c-.16,.29-.32,.66-.48,.95l-.14,.56c-.09,.1-.16,.29-.24,.48l-.24,.48c-.08,.1-.16,.29-.25,.38-1.77,3.43-4.39,6.64-7.13,9.31l-1.38,1.29c-.17,.2-.42,.49-.68,.69-.17,.19-.43,.4-.69,.6-.43,.4-.86,.79-1.38,1.2l-1.38,1.2c-.43,.4-.78,.61-.87,.61-.09,0,.16-.29,.51-.59,5.27-4.5,11.53-10.72,13.82-17.21l-.47,1.13c-.17,.2-.25,.38-.33,.57l-.89,1.62c-2.81,4.33-6.22,7.96-10.11,11.26-.17,.2-.59,.68-.86,.79-.26,.2-.61,.5-.87,.7-.35,.3-.61,.5-.95,.8-7.56,5.85-16.04,10.49-24.74,14.5-.8,.33-1.51,.66-2.23,.89l-2.13,.98c-.18,.01-.36,.12-.53,.22-.93,4.93-1.78,9.75-2.72,14.68-.29,2.4-1.23,4.58-1.95,4.82-.46,.03-.78-.59-.85-1.59-.08,.19-.07,.37-.14,.56l-.21,.93c-.3,.94-.62,1.6-.86,2.08l-.42,.58c-.77,.79-1.41,2.12-2.18,2.81l-.11-.27-.17,.2c-.23,.57-.49,.86-.76,.97l-.19-.08c-.29-.16-.59-.51-.81-1.04-.09,0-.19-.08-.29-.16-.17,.2-.35,.3-.53,.31-.09,0-.28-.07-.38-.25-.07,.28-.17,.2-.19-.08l-.03-.37c-.08,.1-.08,.19-.25,.29,.02,.27-.07,.37-.07,.37q-.14,.65-.29,1.12c-.15,.47-.31,.76-.31,.76q-.61,.41-.8,.33-.16,.29-.16,.38l-.17,.2q-.09,0-.18,.1-.11-.27-.2-.26l-.04-.55,.42-.58-.1-.18q.14-.65,.21-.93c.07-.28,.05-.55,.05-.55q.13-.74,.27-1.39c.08-.1,.08-.19,.17-.2-.1-.08-.01-.18-.03-.36,0-.09,.07-.28,.07-.37l-.03-.37c.07-.37,.05-.65,.07-1.56-.01-.18,.07-.37,.14-.56q-.08,.1-.08,.19c-.08,.1-.19-.08-.18,.01-.38,1.04-.67,2.25-.95,3.37l.05,.64c0-.09-.01-.18,.07-.28l.69-1.97c.08-.19,.17-.2,.18-.1,0,.09,.02,.27-.06,.46-.21,.93-.5,1.96-.71,2.89,.01,.18-.07,.37-.14,.65-.12,.83-.45,1.41-.64,1.33-.18,.01-.35,.21-.46-.06-.21-.44-.27-1.17-.14-2.01l-.17,.2c-.3,.94-.64,1.33-.91,1.35-.18,.01-.38-.16-.51-.7-.27-1.17-.05-3.3,.58-4.81-.09,0-.18,.1-.18,.1,.06-.46,.21-.93,.37-1.31-.16,.29-.23,.57-.4,.85,.44-1.59,.99-2.91,1.55-4.05,.08-.1,.07-.28,.15-.47,.06-.46,.22-.84,.38-1.04,.42-1.86,.93-3.64,1.57-4.97,.14-.65,.27-1.3,.52-1.78-.09,.1-.17,.2-.25,.38,.14-.56,.31-.76,.46-1.22-.08,.1-.18,.1-.26,.2,.2-1.02,.5-2.05,.7-3.07-.72,.23-1.43,.47-2.07,.61-2.7,.74-5.4,1.48-8.1,2.13l-.81,.24c-.27,.02-.54,.13-.81,.15l-1.62,.39c-.55,.04-1.09,.17-1.63,.3-.27,.02-.54,.13-.81,.15-.27,.02-.54,.13-.81,.15-.54,.13-1.09,.17-1.63,.3-1.09,.17-2.27,.34-3.36,.51-.63,.14-1.18,.18-1.64,.21-.46-.06-.83-.03-.93-.12,0-.09,.08-.19,.44-.31,.18-.01,.45-.12,.63-.14,.27-.11,.54-.13,.81-.15,7.7-1.28,15.18-3.1,22.54-5.36,.07-.37,.14-.65,.29-1.03-.36,.03-.63,.14-.91,.16-5.47,1.67-10.97,3.07-16.67,4.12l-.55,.04c-.09,0,0-.09,.27-.11,2.44-.54,4.87-1.17,7.3-1.8,.27-.02,.54-.13,.72-.14,.27-.11,.54-.13,.81-.24,.45-.12,.99-.25,1.44-.38,.45-.12,.99-.25,1.44-.38-.64,.05-1.01-.02-1.02-.2,.08-.1,.52-.4,1.24-.64-.91,.16-1.8,.4-2.7,.65-.55,.04-1,.16-1,.07,0-.09,.08-.1,.26-.2-5.5,1.31-11.12,2.26-16.67,2.83-.27,.11-.46,.03-.46,.03,0,0,.18-.1,.36-.12,4-.47,7.9-1.11,11.79-1.85q-.18,.01-.1-.09c.18-.01,.45-.12,.63-.14,.18-.01,.19,.08,.1,.09,4.88-.99,9.56-2.24,14.32-3.68-1,.07-1.99,.33-2.98,.67-3.24,.87-6.48,1.65-9.74,2.25-.72,.23-1.44,.38-2.07,.51-.27,.11-.54,.13-.54,.13-.1-.09,0-.09,.27-.11,.18-.1,.36-.12,.53-.22-.27,.11-.54,.13-.82,.15l-.73,.05c-.46,.03-.65-.05-.65-.14,0-.09,.26-.2,.71-.33,.18-.1,.45-.12,.72-.23,.27-.02,.63-.14,.91-.16,3.43-.7,6.86-1.5,10.19-2.47l1.08-.26c.35-.21,.71-.33,1.07-.44-5.22,1.38-10.55,2.49-15.81,3.32l-.91,.07c0-.09,.35-.21,.81-.24,2.35-.53,4.6-1.06,6.95-1.59s4.6-1.15,6.93-1.87c1.44-.38,2.87-.85,4.31-1.22l-.03-.46c-.09,.1-.08,.19-.16,.29,0-.09,.08-.19,.07-.28-3.49,1.26-7.17,2.34-10.77,3.24l-.46,.03c-.1-.08,.08-.1,.35-.21,3.7-.81,7.29-1.99,10.86-3.25,0-.09,.08-.19,.07-.37-2.59,.92-5.19,1.74-7.9,2.39-.27,.11-.63,.14-.81,.15q-.08,.1-.18,.1c-.44,.21-.98,.34-1.43,.47-.54,.13-.99,.25-1.53,.38-.18,.1-.45,.12-.54,.13s0-.09,.27-.11c.18-.1,.45-.12,.72-.23,.18-.01,.45-.12,.72-.23,.45-.12,.9-.25,1.26-.37,.18-.1,.36-.12,.54-.13-.09,0,.08-.1,.44-.22,.45-.12,.9-.25,1.34-.46,.45-.12,.81-.24,1.26-.37,.27-.11,.45-.12,.72-.23,.18-.1,.45-.12,.63-.23l1.35-.37c.44-.21,.89-.34,1.34-.46,.27-.11,.44-.21,.72-.23,.18-.1,.44-.21,.63-.23,.18-.1,.36-.12,.53-.22,0-.09,.07-.28,.06-.46h-.09q-.09,.01,.08-.09c.07-.28,.15-.47,.14-.65,.42-1.86,1.14-4.57,2.32-6.13,.87-4.55,1.92-9.12,2.88-13.68-.01-.18,.16-.38,.15-.47,.09,0,.1,.18,.12,.45-.22,.84-.34,1.67-.47,2.42-.22,.84-.34,1.67-.46,2.51l-1.02,5.02c.82-2.72,1.53-5.52,2.25-8.32l.2-1.11c.07-.37,.23-.66,.29-1.03,.71-2.89,1.52-5.7,2.14-8.59-.18,.1-.44,.22-.71,.33-.73,2.62-1.47,5.15-2.2,7.77,0,.09-.08,.19-.08,.19l-.02-.27,2.21-7.58c-.27,.11-.44,.22-.63,.23-1.06,.62-1.85,1.05-3.04,1.13-.28-.07-.3-.35-.05-.73,.34-.39,.85-.98,1.53-1.67-.35,.21-.61,.41-.97,.62-.52,.4-1.05,.72-1.49,1.02-1.49,.93-2.72,1.75-3.6,2.18l-1.15,.54c-.8,.33-1.86,.96-2.83,1.48-.96,.62-1.84,1.14-2.56,1.46l.07-.37-.35,.21c-.87,.7-1.48,1.11-1.84,1.14l-.11-.27c-.1-.18-.03-.46,.04-.74s.23-.66,.47-1.13c-.1-.09-.1-.18-.03-.46-.26,.2-.62,.32-.8,.33s-.38-.16-.22-.53c-.08,.1-.18,.1-.27,.11-.09,0,0-.09,.25-.38,.08-.19,.25-.38,.42-.58-.26,.2-.35,.21-.61,.41-.35,.3-.61,.5-.61,.5-.42,.49-.68,.69-.85,.98-.17,.19-.43,.4-.77,.79-.35,.3-.69,.6-.86,.8s-.35,.3-.35,.3c-.62,.32-.89,.43-.98,.44s-.1-.08-.1-.18c0-.09,.08-.19,.08-.19-.6,.59-.59,.68-.77,.79-.17,.2-.34,.3-.34,.3q-.09,0-.27,.11,.15-.47,.14-.56c0-.09,.07-.28,.07-.28,.34-.39,.51-.59,.5-.68,.52-.4,.78-.61,.87-.7l.18-.1,.07-.28,.93-1.07c.18-.1,.25-.29,.42-.49,.43-.4,.76-.88,.85-.89,.42-.58,.67-.87,1.02-1.08,.25-.29,.51-.59,1.02-1.08,.18-.1,.27-.11,.35-.21s.25-.29,.52-.49c.17-.2,.34-.39,.6-.59,.93-1.07,1.79-1.96,2.64-2.85,.26-.2,.61-.41,.78-.61-.27,.11-.19-.08-.27,.02-2.01,1.43-3.82,3.02-5.63,4.71l-.25,.29q-.08,.1-.08,.19l-.17,.19c0,.09-.08,.1-.08,.19l.25-.29c1.04-.9,2.07-1.8,3.29-2.71,.25-.29,.44-.31,.35-.21-.08,.19-.42,.58-.77,.79-1.56,1.3-3.01,2.78-4.47,4.26-.25,.29-.59,.68-.94,.98-1.19,1.37-2.13,2.35-2.24,2.08h-.18c-.18,.03-.27,.03-.2-.25,.22-.84,1.64-2.78,2.23-3.46-.08,.1-.26,.2-.35,.3-1.2,1.19-2.07,1.89-2.52,2.01-.36,.12-.39-.34,.26-1.49,.24-.48,.65-1.15,1.25-1.83,.5-.68,1.1-1.36,1.68-2.14,1.37-1.38,2.74-2.76,4.13-3.78-.09,0-.18,.01-.27,.11,.86-.79,1.64-1.4,2.43-2.01-.52,.4-1.13,.81-1.66,1.22,2.78-2.21,5.41-3.87,7.71-5.04,.27-.11,.61-.41,.96-.62,.79-.51,1.5-.84,2.03-1.06,.85-.98,8.41-4.17,10.12-4.75,.09,0,.27-.11,.44-.21,.08-.19,.06-.46,.13-.74,.14-.56,.29-1.03,.44-1.59,.15-.47,.29-1.03,.44-1.59,.07-.28,.24-.48,.31-.76l.22-.84c.15-.47,.39-1.04,.54-1.5,.08-.19,.07-.28,.15-.47,0-.09,.08-.19,.16-.38,.07-.28,.14-.56,.31-.76,.14-.65,.47-1.13,.66-1.06,.18-.01,.12,.45-.02,1.01-.91,2.72-1.72,5.53-2.43,8.33,.44-.22,.8-.33,1.25-.46l.22-.84c.23-.66,.37-1.31,.59-1.97,.22-.75,.45-1.41,.68-2.07,0-.09,.07-.28,.07-.28,.09,0,.1,.08,.01,.18-.06,.46-.21,.93-.36,1.4-.07,.28-.05,.55-.13,.74-.07,.28-.15,.47-.22,.75-.14,.65-.28,1.21-.42,1.86,.53-.22,.89-.34,1.34-.46l.23-.57c.07-.37,.22-.84,.28-1.21l.47-1.13c.07-.37,.22-.75,.38-1.13l.24-.57c-.02-.27,.06-.46,.14-.65l.94-2.27c0-.09,.08-.19,.08-.19,.09,0,.1,.08,.01,.18-.39,.95-.69,1.88-1.08,2.83-.3,.94-.6,1.88-.81,2.81,0,.09-.08,.19-.16,.29-.24,.48-.38,1.04-.62,1.6,.18-.01,.37-.03,.45-.12,0-.09-.01-.18-.1-.18l.27-.02c0-.09,.07-.28,.07-.37,.07-.37,.14-.65,.2-1.02,.08-.1,.16-.29,.16-.29v.18c.02,.09-.07,.19-.06,.28,.23-.57,.57-.96,.67-.87,.19,.08,.14,.63-.1,1.2,.01,.18-.07,.37-.14,.56,.18-.01,.27-.11,.45-.12,.23-.66,.46-1.23,.69-1.88,.08-.19,.25-.38,.25-.38,.09,0,.1,.18,.03,.46-.14,.56-.38,1.13-.52,1.69,4.47-1.6,9.17-2.58,13.91-2.91,1-.16,2.09-.33,3.17-.5,.82-.06,1.64-.12,2.56-.09-.46-.06-1.01-.02-1.47-.08,2.01-.14,3.84-.09,5.88,.13,3.07,.61,6.16,1.58,8.76,3.32,.59,.51,1.26,1.01,1.76,1.62,1.37,1.19,2.52,3.21,3.02,5.01,.33,.8,.57,1.61,.81,2.42,.01,.18,.03,.46,.14,.63l.17,2.37Zm-72.32,13.29c-.18,.1-.26,.2-.26,.2,.09,0,.18-.1,.26-.2Zm.6-.59c-.26,.2-.43,.4-.6,.59,0-.09,.08-.1,.16-.29,.34-.39,.59-.68,.94-.98,.09,0-.07,.28-.5,.68Zm.7-.51h-.18l-.08,.11,.27-.11Zm-.11,30.82q-.18,.01-.1-.08c.18-.01,.45-.12,.63-.14q.19,.08,0,.09c-.08,.1-.36,.12-.54,.13Zm2.55-32.55l-.26,.2c.08-.1,.18-.1,.26-.2Zm.37-2.5l-.17,.2-.17,.19c.09,0,.09-.1,.18-.1,.08-.1,.17-.2,.16-.29Zm1.34,34.38c.18-.01,.27-.11,.45-.12-.18,.01-.36,.12-.45,.12Zm2.8-.66l6.39-1.74c0-.09,.08-.19,.07-.28-2.51,.82-5.03,1.55-7.54,2.28,.36-.12,.72-.23,1.08-.26Zm-.28-29.78c.16-.38,.22-.84,.37-1.22-.07,.37-.22,.75-.28,1.21h-.09Zm2.84-6.52c-.18,.1-.36,.12-.53,.22,0,0,.18-.1,.53-.22Zm.43,60.3c.08-.1,.17-.2,.16-.38,.16-.29,.16-.38,.07-.37-.08,.19-.16,.38-.22,.75Zm.01,.18l.08-.19c-.08,.1-.08,.19-.08,.19Zm.14-3.13q-.01-.18-.1-.18c0,.09,.1,.09,.1,.18Zm.05-5.78c.26-1.49,.62-2.89,1.08-4.2,.22-.84,.42-1.77,.63-2.7,0-.09,.07-.37,.14-.56-.08,.1-.17,.2-.25,.38-.08,.1-.07,.28-.16,.38-.41,1.96-1.03,3.65-1.54,5.43l.09,1.28Zm.11,8.06l.18-.1v-.18l-.18,.29Zm.68-65.33c3.92-2.85,8.6-5.47,13.14-7.35l-.27,.02c.18-.01,.45-.12,.72-.23,.18-.1,.44-.22,.71-.32-.27,.02-.63,.14-.99,.25-3.92,1.65-7.72,3.67-11.32,5.94-.61,.5-1.3,1.1-1.99,1.7Zm.41,63.97l-.08,.19q0-.09,.08-.19Zm.07-62.36c.97-.53,1.77-.95,2.48-1.18,.61-.5,1.22-.91,1.92-1.33,1.66-1.13,3.42-2.17,5.19-3.03-.27,.02,.17-.2,.43-.4-3.36,1.71-6.8,3.69-10.03,5.94Zm1.68,50.77l-.03-.37c-.2,1.02-.5,2.05-.71,2.99-.3,.94-.5,1.96-.72,2.8,.15-.47,.4-.85,.65-1.24,.07-.37,.13-.74,.2-1.02,.2-1.02,.41-1.95,.62-2.89-.08,.1-.1-.18-.02-.27Zm.09,7.69c0,.09-.08,.19-.16,.29,0,0,.08-.1,.16-.29Zm.64-23.33c-.08,.1-.08,.19-.16,.38,.08-.19,.07-.28,.16-.38Zm1.73,27.02l-.6-.69,.6,.69Zm7.61-58.12c-.08,.1-.18,.1-.18,.1-.37,1.31-.74,2.53-1.01,3.83-.15,.47-.29,1.03-.44,1.5-.15,.47-.2,1.02-.35,1.49,.18-.01,.2,.17,.21,.35,.14-.56,.28-1.21,.52-1.78,.14-.56,.29-1.12,.52-1.69,.19-1.21,.46-2.51,.74-3.81Zm26.79,19.55c-2.01,1.43-4.12,2.68-6.24,3.84-5.61,3.61-11.63,6.6-18.33,9.1-.09,.1-.08,.19-.07,.28,8.38-3.34,17-7.26,24.32-12.64-.1-.08,.07-.28,.33-.57Zm-22.95,9.97c-.27,.02-.46,.03-.55-.05-.27,.11-.44,.22-.62,.32-.08,.1-.07,.28-.07,.37,.63-.23,1.34-.55,1.96-.78-.27,.02-.54,.13-.72,.14Zm4.32-5.07c-.36,.12-.72,.23-1.07,.44-1.34,.55-2.67,1.2-3.91,1.74,.01,.18-.07,.37-.05,.55,1.68-.94,3.36-1.8,5.03-2.74Zm-4.38,1.6c-.18,.1-.35,.21-.53,.22,.18-.1,.36-.12,.53-.22Zm22.89-14.74c-.26,.2-.43,.4-.7,.51l-1.39,1.02c-.27,.11-.44,.31-.7,.51-.18,.01-.27,.11-.35,.21-.44,.31-1.14,.81-1.58,1.03-.52,.4-1.05,.72-1.57,1.12-1.23,.73-2.37,1.45-3.6,2.18-1.14,.72-2.37,1.45-3.52,2.08-3.27,1.79-6.54,3.4-9.82,5.01,.01,.18-.06,.46-.05,.64,.08-.1,.17-.2,.35-.3,.09,0,.27-.11,.44-.22l.53-.31c.27-.11,.44-.21,.71-.33,.08-.1,.27-.11,.35-.21,.09,0,.27-.11,.36-.12l1.96-.87c.36-.12,.8-.33,1.16-.45,.7-.42,1.51-.75,2.31-1.08,.71-.33,1.51-.75,2.22-1.07,.7-.42,1.51-.75,2.21-1.17,.61-.41,1.23-.82,2.02-1.24,1.13-.81,2.36-1.64,3.49-2.54,1.13-.81,2.35-1.73,3.48-2.63-.18,.1-.27,.11-.37,.03,.42-.49,.59-.68,1.12-1,.35-.3,.61-.5,.95-.8Zm10.6-17.26q-.1-.08-.1-.18c0-.09-.01-.18-.11-.27-.01-.18-.11-.27-.22-.44-.1-.08-.2-.26-.3-.35-.29-.25-.68-.59-1.25-.83-.19-.08-.47-.15-.66-.32-.28-.07-.47-.15-.75-.22-.47-.15-1.02-.2-1.68-.34l-3.87-.28c-.65-.05-1.38,0-2.1,.06-5.02,.36-10.15,1.73-14.78,3.62-1.08,.35-2.05,.79-3.12,1.23v.18c-.05,.37-.02,.83-.08,1.2-.06,.46-.12,.83-.18,1.3,.03,.46-.03,.92-.09,1.29-.06,.46-.21,.93-.27,1.39-.69,4.54-1.47,9-2.24,13.64-.7,3.07-1.31,6.05-1.83,9.12,7.54-3.56,14.91-8.3,21.41-13.53,.17-.2,.43-.4,.6-.59l.61-.5c.26-.2,.44-.31,.61-.5,.26-.2,.43-.4,.6-.59l.61-.5c.34-.39,.76-.88,1.21-1.09l.51-.59c.86-.79,1.63-1.58,2.31-2.36,.77-.79,1.45-1.57,2.03-2.44,.59-.77,1.17-1.55,1.66-2.41,.5-.77,.8-1.62,1.12-2.28,.31-.76,.36-1.4,.42-1.86l-.04-.55Zm-32.94,16.55c-.08,.1-.08,.19-.07,.37,.14-.56,.29-1.03,.44-1.5,0-.09,.09-.1,.08-.19,.14-.65,.27-1.3,.5-1.96,.92-3.82,1.66-7.55,2.41-11.27-.27,.11-.44,.21-.71,.33l-.2,1.11s.1,.08,.1,.18c.02,.27-.03,.83-.18,1.39l-.16,.38c-.31,.76-.53,1.6-.84,2.44-.22,.75-.53,1.6-.74,2.44l-.2,1.11c-.13,.74-.17,1.48-.3,2.22-.13,.74-.17,1.48-.31,2.13,0,0,.09,0,.18-.01,.1,.08,.03,.46-.03,.83Zm.97-26.38c.27-.11,.45-.12,.63-.23-.18,.1-.36,.12-.63,.23Zm.08,15.4c.08-.19,.06-.46,.14-.65,.24-.57,.37-1.22,.52-1.78-.01-.18,.07-.28,.07-.37-.18,.01-.36,.12-.44,.22-.09,0-.08,.1-.08,.19-.04,.74-.16,1.57-.2,2.4Zm.85-2.26c.08-.19,.06-.46,.22-.75-.07,.28-.14,.56-.22,.75Zm.98-14.65c0,.09,.1,.08,.09,0,.08-.1,.08-.19,.16-.29,0-.09-.1-.08-.09,0-.09,0-.17,.2-.16,.29Zm23.91,35.81s-.17,.2-.35,.3c-6.37,4.58-13.26,8.19-20.27,11.62-.18,.1-.36,.12-.36,.12,0-.09,.17-.2,.44-.31,7.02-3.16,14-6.86,20.18-11.52,.17-.2,.35-.21,.35-.21Z"/><path class="k" d="M174.65,18.4c-.29-.16-.38-.25-.48-.33-.2-.26-.29-.25-.3-.35l-.2-.17-.2-.17c-.09,0-.1-.08-.2-.17-.09,0-.1-.08-.19-.08q-.1-.08-.2-.17t-.19-.08c-.09,0-.1-.08-.19-.08,0,0-.1-.08-.19-.08-.38-.25-.76-.4-1.04-.48-.37-.07-.65-.14-.93-.21-.47-.15-1.02-.2-1.49-.35-.93-.12-1.75-.15-2.67-.18-1.66-.16-3.31-.13-4.96-.11-3.3,.05-6.59,.19-9.89,.24-.74-.04-1.47,.01-2.2-.03,.01,.18-.07,.28-.16,.38,.82-.06,1.65-.03,2.48,0,1-.07,2-.23,3-.31,3.01-.21,5.7,.24,8.67,.67,1.01,.02,1.93,.14,2.95,.16,1.02,.11,2.12,.22,3.24,.41,.09,0,.19,.08,.19,.08,0,.09-.08,.1-.18,.1-1.39-.27-3.05-.33-4.42-.24,.19,.08,.38,.25,.31,.44,0,.09-.26,.2-.53,.31,.37,.07,.64,.05,1.02,.11,.19,.08,.29,.16,.29,.16,0,.09-.18,.1-.36,.12-1.3-.18-2.59-.27-3.88-.37-1.47,.01-3.02,.03-4.58,.05,.19,.08,.38,.25,.48,.33,3.47-.25,7.23-.24,10.66,.34,.56,.14,1.21,.28,1.78,.52,.19,.08,.28,.07,.47,.15,.19,.08,.38,.25,.57,.33,.1,.08,.29,.25,.59,.51q0,.09,.1,.18c.1,.18,.11,.27,.21,.35,0,.09,.01,.18,.02,.27,0,0,0,.09,.01,.18,0,.09,.02,.27,.03,.36s.01,.18-.07,.28c-.08,.19-.16,.29-.16,.29,0,0,0-.09-.01-.18,.08-.19,.07-.28,.16-.29,0-.09-.01-.18-.02-.27,0-.09-.01-.18-.01-.18-.01-.18-.03-.46-.23-.63v-.09l-.1-.08c-.4-.43-.59-.6-.78-.68-.48-.24-.76-.4-1.13-.47-.75-.22-1.4-.36-2.14-.49,.09,0,.1,.08,0,.09,0,0-.18,.01-.19-.08-.09,0-.1-.08,0-.09-1.3-.18-2.5-.28-3.78-.28s-2.48,0-3.76,0c1.2,.1,2.3,.11,3.5,.21,1.11,.11,2.22,.21,3.33,.41,.28,.07,.55,.05,.83,.03,0,0,.09,0,.19,.08,0,0-.08,.1-.18,.01,0,0-.09,0-.18,.01,.46,.06,.76,.31,.68,.5-.08,.1-.17,.2-.35,.21-.18,.01-.37-.07-.55-.05-1.11-.2-2.31-.29-3.51-.39l-.37,.03c-.18,.01-.27,.02-.36,.03,.83,.12,1.76,.24,2.69,.45,.93,.12,1.77,.33,2.61,.55,.19,.08,.29,.16,.29,.16,0,.09-.18,.1-.27,.11-.83-.12-1.57-.16-2.4-.29-2.39-.11-4.78-.12-7.16-.13-1.08,.26-2.16,.52-3.25,.78,.09,0,.28,.07,.37,.07,1.64-.12,3.37-.24,5.02-.36,1.64-.12,3.19-.23,4.85-.07,.09,0,.18-.01,.19,.08h-.18c-1.56-.06-3.11,.05-4.76,.17-1.37,.1-2.65,.19-3.92,.37,1.28,0,2.57,0,3.84-.09,1.19-.08,2.47-.08,3.76,0,.09,0,.18-.01,.28,.07,.36-.12,.72-.14,1.09-.17,0,0,.09,0,.19,.08,0,0-.08,.1-.18,.1-.1-.09-.28-.07-.46-.06-.18,.01-.27,.02-.45,.12q-.09,0-.19-.08c0,.09-.08,.1-.18,.1-.46,.03-1,.07-1.46,.1-2.1,.15-4.2,.21-6.21,.35,0,.09-.08,.1-.08,.19-.18,.1-.54,.13-1,.16l-.28-.07c-1.11-.1-2.21-.12-3.41-.22-.18,.1-.45,.12-.72,.14-.99,.25-1.99,.42-2.99,.58,0,.09,.1,.09,.1,.18s-.26,.2-.53,.22c-.09,0-.27,.02-.37,.03,.37-.03,.74,.04,1.1,.01,.09,0,.18-.01,.18-.01,.46,.06,.92,.03,1.28,0,2.01-.14,3.83-.27,5.65-.49,1.83-.13,3.64-.35,5.47-.48,.08-.1,.18-.01,.18-.01-1.17,.27-2.25,.62-3.33,.88-1.08,.35-2.25,.62-3.52,.8-2.99,.49-5.98,.97-8.97,1.46-3.1,.22-6,.79-9.07,1.38-.37,1.22-.75,2.35-1.24,3.21-.08,.1-.07,.28-.16,.38-.07,.37-.23,.66-.31,.85-.35,1.49-.8,2.99-1.36,4.13-.15,.47-.29,1.03-.45,1.41,0-.09,.08-.19,.16-.29-.07,.37-.23,.57-.39,.94,.09,0,.18-.1,.27-.11-.5,1.96-.9,4.1-1.61,5.8,0,.09,.01,.18-.07,.28,.03,.37,.05,.73,0,1.19,.03,.46-.03,.83-.18,1.3,.16-.29,.23-.57,.3-.94-.07,.37-.04,.74-.11,1.11,2.25-.62,4.51-1.05,6.78-1.4,.82-.06,1.74-.03,2.08,.86,.12,.36-.03,.83-.38,1.13,.09,0,.18-.01,.27-.02l.37,.07c.37-.03,.65,.14,.85,.4l.29,.25c.4,.52,1.07,.84,1.39,1.46l.02,.27c.28,.07,.48,.33,.5,.51l.02,.27c.02,.27-.05,.65-.21,.93,.1,.09,.01,.18,.02,.27,.2,.26,.31,.53,.25,.9,.1,.08,.1,.18,.02,.27q-.09,0-.18,.01l.2,.17q.37,.07,.55,.05c.19,.08,.29,.16,.29,.16q.31,.44,.42,.8,.1,.18,.2,.26c-.16,.38-.25,.38-.25,.38l-.29-.25q-.09,0-.18,.01l.19,.08q-.27,.02-.37,.03c-.09,0-.18,.01-.18,.1q-.27,.02-.55-.05-.27,.02-.37,.03c-.26,.2-.35,.21-.61,.41-.09,0-.18,.01-.18,.01,.1,.09,.01,.18,.01,.18,.46,.06,.92,.12,1.39,.18-.2-.26-.48-.33-.67-.41-.09,0-.19-.08-.1-.18,0,0,.09-.1,.18-.01,.37,.07,.74,.04,1.11,.1,0-.09,.08-.1,.18-.1,.37-.03,.56,.14,.58,.42,.1,.18,.12,.36,.12,.45-.16,.29-.33,.48-.69,.6h.09c.66,.22,.89,.85,.55,1.33-.25,.29-.7,.51-1.15,.54-.18,.01-.37,.03-.55,.04-.18,.01-.36,.03-.46-.06,.1,.09,.2,.17,.29,.16-.55-.05-1.11-.2-1.6-.53-.18,.01-.46-.06-.65-.14-.65-.05-1.38-.09-1.95-.41-.27,.02-.46,.03-.65-.05h-.09c.1,.09,.19,.08,.2,.18-.19-.08-.29-.16-.48-.24,.1,.08,.1,.18,.11,.27-.91,.06-1.73,.12-2.66,0h-.18c-.26,.22-.61,.42-1.07,.46,.19,.08,.37,.07,.46,.06-.27,.11-.53,.22-.9,.25-.82,.06-1.83,.04-2.42-.56l-2.53,.55c-.27,.11-.63,.14-.9,.25-.42,1.86-.84,3.64-1.26,5.5,.01,.18-.07,.37-.16,.38s-.1-.08-.03-.37c.05-.64,.18-1.3,.31-2.04,.14-.65,.27-1.3,.41-2.05,.07-.37,.22-.84,.27-1.3-.09,0-.18,.01-.27,.02-.08,.19-.07,.37-.14,.56-.14,.56-.38,1.13-.52,1.78-.14,.56-.29,1.12-.43,1.68-.07,.28-.14,.56-.21,.93-.07,.28-.14,.56-.31,.85-.13,.74-.35,1.49-.58,2.15-.13,.74-.35,1.49-.57,2.24-.23,.66-.36,1.4-.58,2.15-.13,.74-.35,1.49-.57,2.24-.07,.28-.14,.65-.21,.93-.21,.93-.42,1.86-.63,2.8-.15,.47-.22,.84-.28,1.21,2.33-.81,4.66-1.52,7.09-2.15,3.08-.49,5.88-1.15,9.05-1.65,2.09-.33,4.18-.57,6.37-.73,2.1-.15,4.3-.12,6.6,0,.91-.07,1.75,.15,2.41,.38,.66,.32,1.06,.66,1.17,1.02,.03,.46-.4,.85-1.21,1,.18-.01,.37,.07,.46,.06,.19,.08,.47,.15,.66,.23,.65,.14,1.23,.46,1.52,.72,.1,.18,.3,.35,.4,.43,.3,.35,.61,.78,1,1.12,.31,.44,.61,.87,.73,1.23l-.18,.1,.1,.18c.3,.35,.41,.61,.43,.89l-.17,.2c-.26,.2-.61,.41-.97,.53,0,.09-.08,.19-.17,.2,.03,.37-.05,.65-.3,.94,.1,.09,.01,.18-.17,.2,0,0-.09,0-.19-.08,.1,.08,.1,.18,.11,.27q.38,.25,.49,.42c.1,.18,.11,.27,.11,.27,0,.09,.01,.18,.01,.18-.07,.28-.07,.37-.15,.47,0,.09-.08,.1-.17,.2v.18c.02,.09,.03,.18,.03,.18q-.46-.06-.47-.15,0-.09-.1-.18v.18q-.09-.18-.18-.17c-.1-.08-.19-.08-.19-.08q-.48-.33-.57-.33c-.46-.06-.64-.04-1.01-.02-.09,0-.19-.08-.19-.08,0,.09-.08,.19,.01,.18,.29,.16,.67,.41,.87,.58,.09,0,.19,.08,.29,.16q.09,0,.18-.01c-.01-.18-.1-.18-.11-.27-.1-.18-.29-.26-.49-.42,0,0-.1-.09-.01-.18,.27-.02,.66,.32,.77,.5,.48,.33,.59,.51,.59,.6-.09,.1-.08,.19-.16,.29-.16,.38-.51,.49-.88,.52v.09c.02,.18-.06,.37-.23,.57-.17,.2-.34,.39-.51,.59q-.08,.1-.16,.29h-.09c-.1-.08-.2-.16-.29-.16-.09,0-.28-.07-.38-.25,0,.09,.1,.08,.1,.18q.1,.08,.1,.18c-.2-.17-.39-.34-.68-.5-.29-.25-.49-.42-.77-.59,0-.09-.1-.09-.2-.17-.18,.01-.37-.07-.48-.24-1.02-.2-1.95-.41-2.71-.72-.37-.07-.74-.13-1.02-.2,.09,0,.19,.08,.2,.17-.19-.08-.38-.25-.66-.23,.09,0,.1,.09,.1,.18-1.29-.09-2.75,.01-4.05-.26q-.09,0-.18,.01c-.54,.13-1.08,.35-1.71,.4,.18-.01,.37,.07,.65,.04-.45,.12-.9,.25-1.45,.29-1.37,.1-2.95-.16-3.8-.65-2.63,.37-5.35,.84-8.06,1.4-.09,0-.27,.02-.28-.07,0-.09,.08-.1,.17-.2,1.89-.5,3.88-.92,5.87-1.24-1.73,.12-3.38,.24-5.1,.45-.18,.01-.37,.03-.63,.14-.18,.01-.46,.03-.64,.05-3.08,.49-6.06,1.16-9.03,2.01-.07,.28-.14,.56-.22,.84-.16,.38-.31,.85-.46,1.22-.15,.47-.3,.94-.46,1.32-.15,.47-.49,.86-.67,.87-.18,.01-.12-.36,.03-.83,.29-1.03,.59-2.06,.88-3.09l-1.35,.37q0,.09,.01,.18c0,.09-.08,.1-.08,.19-.09,0-.1-.09-.1-.18,0-.09-.1-.09-.19-.08-.53,.22-1.07,.44-1.6,.66-.23,.66-.55,1.32-.78,1.98,0,.09-.08,.1-.18,.1,0,0,0-.09,.08-.19,.23-.57,.46-1.23,.69-1.88-.63,.23-1.16,.45-1.79,.68-1.17,.36-2.33,.81-3.49,1.16-.09,0-.27,.11-.36,.12-.18,.01-.28-.07-.38-.16-.05-.73,5.51-2.5,6.41-2.75l.14-.56c.08-.19,.16-.38,.24-.48-.18,.01-.37,.03-.64,.05-1.53,.47-3.13,1.05-4.66,1.52q-.08,.1-.18,.01c1.06-.62,2.22-1.07,3.28-1.52-.18,.01-.29-.16-.38-.25-.01-.18,.16-.38,.33-.48l-.81,.15c-.18,.1-.27,.02-.28-.07-.09,0,.08-.1,.26-.2,.45-.12,.9-.25,1.45-.29,0-.09-.01-.18,.08-.19-.36,.12-.72,.23-.99,.25-1.88,.59-3.68,1.18-5.56,1.77,1.06-.53,2.24-.8,3.31-1.15-.09,0-.1-.09,0-.09,0,0,.08-.1,.18-.1,1-.16,2.07-.51,3.06-.86,0,0,.08-.1,.08-.19-.91,.16-1.81,.4-2.7,.65-.18,.1-.45,.12-.63,.23q-.08,.1-.18,.01,.18-.1,.27-.11c-.37,.03-.74-.04-.75-.22-.01-.18,.25-.38,.61-.5,.99-.25,2.07-.61,3.06-.86l.36-.12c.09,0,.18-.1,.27-.11-1.63,.3-3.17,.59-4.79,.98-.09,0-.27,.02-.28-.07,0-.09,.08-.1,.17-.2,1.43-.56,2.77-1.02,4.21-1.4,.08-.19,.07-.28,.07-.37-.72,.23-1.43,.56-2.14,.8-.09,0-.18,.01-.19-.08,.89-.34,1.6-.66,2.41-.91,0-.09-.01-.18-.02-.27,0,0,.08-.1,.08-.19-.53,.22-.98,.34-1.52,.57-.09,0-.18,.01-.27,.02-.26,.2-.62,.32-.88,.52q-.09,0-.18,.01c.34-.3,.61-.41,.88-.52,0-.09,.09-.1,.18-.1-.09,0,0-.09,.08-.1,.53-.31,1.15-.54,1.69-.76,.14-.65,.27-1.39,.4-2.14,.13-.74,.35-1.49,.57-2.24,.35-1.58,.69-3.17,1.04-4.66q-.1-.08-.1-.18c-.11-.27-.05-.73,.11-1.11,.08-.1,.16-.29,.16-.38,.46-1.32,.91-2.63,1.37-3.95-.02-.27,.05-.55,.12-.93,.14-.65,.19-1.21,.24-1.85,.14-.56,.19-1.21,.33-1.77-.09,0-.18,.1-.18,.1-.1-.08-.12-.36-.05-.73,.08-.1,.07-.28,.15-.47-.15,.47-.3,.94-.45,1.41-.09,0-.09,.1-.08,.19-.15,.47-.3,.94-.44,1.5-1.14,4.57-1.93,8.94-2.81,13.31,0,.09-.08,.19-.08,.19,.04-.74,.09-1.38,.12-2.12,.09-1.38,.17-2.76,.26-4.14,.07-.37,.04-.74,.11-1.11s.13-.74,.2-1.11c.51-3.15,.93-6.21,1.44-9.36-.44,.21-.8,.33-1.15,.54-.36,.12-.72,.23-.98,.34-.18,.1-.46,.03-.47-.15-.1-.18-.03-.37,.16-.38,.35-.21,.7-.42,1.06-.62,.36-.12,.71-.33,1.16-.45,.08-.1,.26-.2,.44-.22,.07-.28,.05-.55,.12-.83,.08-.1,.07-.28,.07-.37-.09,0-.18,.1-.27,.11-.27,.11-.44,.22-.72,.23-.18,.1-.44,.22-.71,.33l-.36,.12c-.08,.1-.18,.1-.36,.12,.25-.29,.61-.41,.87-.61,.35-.21,.71-.33,.97-.53-.1-.09-.2-.17-.21-.35-.1-.08-.02-.27,.07-.37l-.45,.12c-.09,0-.19-.08-.19-.08,0-.09-.01-.18,.08-.19l.81-.24,.27-.02,.63-.14c0-.09-.01-.18-.02-.27-.18,.01-.27,.11-.44,.21l-.9,.25c-.53,.22-1.07,.44-1.7,.58-.53,.22-1.08,.35-1.61,.57,.25-.29,.62-.32,.98-.44,.27-.11,.63-.23,.98-.35,.45-.12,.72-.23,1.08-.35,.27-.11,.63-.23,.89-.34,.27-.11,.53-.22,.8-.42-.18,.01-.45,.12-.63,.14l-.9,.25c-.37,.03-.63,.14-.91,.16-.18,.1-.26,.2-.35,.3-.2-.17-.47-.24-.49-.42-.01-.18,.07-.37,.33-.48,.36-.03,.63-.14,.99-.25,.27-.11,.53-.22,.9-.25l.18-.1c.09,0,.18-.1,.18-.1-.18,.01-.46,.03-.73,.05-.27,.11-.54,.13-.72,.14-.27,.11-.54,.13-.81,.15l-.36,.12c-.09,0-.18,.01-.37,.03-.09,0-.18,.01-.19-.08,.26-.2,.35-.21,.44-.31l.27-.11c.27-.11,.45-.12,.72-.23,.18-.1,.35-.21,.62-.32l.63-.23c.45-.12,.81-.24,1.26-.36,.18-.1,.27-.11,.36-.12,.07-.28,.15-.47,.13-.74-.18,.1-.26,.2-.44,.31-.89,.43-1.68,.85-2.57,1.19,.79-.51,1.58-.94,2.47-1.37,.18-.1,.44-.22,.62-.32q0-.09,.08-.19c-.27,.02-.54,.13-.72,.23-.36,.12-.71,.33-.98,.44-.36,.12-.72,.23-1.07,.44q-.09,0-.18,.01c-.17,.2-.35,.3-.52,.4,.08-.19,.25-.29,.42-.49-.01-.18,.52-.4,.61-.41,.18-.1,.35-.21,.53-.31,.27-.11,.62-.32,.98-.44,.35-.21,.62-.32,.98-.44,.08-.19,.07-.37,.14-.65-.53,.31-.97,.53-1.51,.75,0,.09-.08,.1-.09,0,.25-.29,.52-.5,.78-.7,.35-.3,.61-.5,.87-.7,.27-1.39,.45-2.69,.72-4.08,.45-2.69,.91-5.29,1.36-7.98,.46-2.6,.91-5.2,1.46-7.81-.03-.36,.04-.74,.2-1.11-.18,.01-.37,.03-.46,.03-.65-.05-1.11-.2-1.32-.55s-.06-.82,.46-1.32c-.08,.1-.18,.1-.36,.12l-.54,.13c-.18,.01-.37,.03-.55,.04-.37,.03-.64,.05-.92-.03l-.56-.14c-.76-.31-1.77-.42-2.44-.84v-.18l-.11-.08c-.37,.03-.74-.04-.93-.21l-.02-.27c-.03-.37,.05-.65,.2-1.02-.1-.08-.11-.27-.03-.37-.38-.16-.57-.33-.51-.79-.18,.01-.19-.08-.01-.18,0-.09,.08-.1,.17-.2-.09,0-.18,.01-.28-.07-.18,.1-.27,.11-.27,.11q-.45,.12-.81,.24l-.55,.04q-.57-.33-.59-.51c-.19-.08-.28-.07-.55-.05l-.2-.17q.17-.2,.08-.19c.26-.2,.35-.3,.35-.3l.55,.05h.18l-.19-.09q.53-.22,.71-.33c.18-.01,.36-.12,.36-.12q.44-.21,.98-.34c.09,0,.53-.22,.63-.23,.08-.1,.18-.1,.17-.2,.18-.1,.44-.21,.96-.62,.09,0,.27-.02,.46-.03-.09,0-.1-.08-.19-.08-.09,0,0-.09-.1-.09-.81,.15-1.63,.3-2.44,.54-.08,.1-.18,.1-.17,.2,.46-.03,1-.07,1.45-.19,.18-.01,.19,.08,.19,.17-.09,0-.18,.1-.36,.12-.63,.14-1.35,.37-2.07,.6-.08,.1-.27,.11-.35,.21-.27,.11-.54,.13-.72,.14-.27,.02-.37,.03-.47-.15-.1-.08-.29-.25-.22-.44,.16-.38,.59-.68,1.12-1q-.09,0-.18,.01c-.18,.01-.37,.03-.46,.03-.36,.03-.65-.05-.83-.12-.2-.17-.13-.54,.12-.93,.59-.68,2.09-1.52,3.37-1.61-.09,0-.19-.08-.19-.08,.36-.12,.72-.14,1.08-.26-.27,.02-.55,.04-.73,.05,.63-.14,1.17-.27,1.72-.31,.55-.04,1.01,.02,1.47,.08,.09,0,.27-.11,.45-.12,.27-.02,.55-.04,.73-.05q.09,0,.18-.01c.81-.15,1.54-.29,2.27-.34,.55-.04,.91-.06,1.37,0,.45-.12,.91-.16,1.27-.18-.09,0-.18,.01-.28-.07,.37-.03,.55,.05,.92,.03q-.1-.08-.19-.17c1.81-.4,3.36-.51,5.18-.64h.18c.62-.33,1.24-.56,2.06-.71-.27,.02-.55,.04-.82,.06,.53-.22,1.08-.35,1.71-.49,.27-.02,.55-.04,.82-.06,1.55-.11,3.02-.03,3.79,.37,3.18-.41,6.46-.73,9.64-1.05,.18-.01,.37-.03,.37,.07,0,0-.08,.1-.27,.11-2.27,.34-4.63,.7-6.99,1.05,2.01-.14,4.02-.19,6.03-.24,.18-.01,.46-.03,.73-.05,.09,0,.18-.01,.27-.02,.18-.01,.36-.03,.46-.03,2.56-.09,5.03-.17,7.68-.36,2.29-.07,4.2-.21,6.49-.28,1.65-.03,3.21-.04,4.86,.02,1.84,.14,4.16,.44,5.78,1.33,.19,.08,.47,.15,.66,.32l.2,.17c.38,.16,1.07,.93,1.19,1.29,.1,.18,.2,.26,.21,.35q.1,.08,.11,.27Zm-62.59,4.44c-.18,.01-.27,.02-.37,.03,.26-.2,.44-.21,.53-.22,.1,.08,.01,.18-.17,.2Zm-.32,62.65c0-.09,.08-.1,.18-.1,0,.09-.08,.1-.18,.1Zm1.9-62.39c-.09,0-.18,.01-.18,.01h.18Zm-.1-1.47q0-.09,.18-.1s-.09,0-.18,.1Zm1.45,60.51c-.18,.01-.36,.12-.45,.12,.01,.18-.07,.28-.07,.37,.09,0,.27-.02,.36-.12,.09-.1,.07-.28,.16-.38Zm-.39-.34c0,.09,.01,.18-.07,.28,.18-.01,.36-.12,.53-.22,0-.09-.01-.18,.07-.28-.18,.01-.36,.12-.53,.22Zm.14-.56c.18-.1,.36-.12,.44-.21s.16-.29,.15-.47c-.09,0-.1-.09,0-.09,.08-.19,.16-.38,.15-.47,.2-1.02,.41-1.96,.62-2.89,.12-.83,.35-1.58,.47-2.42,.08-.19,.07-.37,.14-.56-.01-.18,.07-.37,.05-.55,.07-.37,.12-.83,.19-1.21-.07,.37-.13,.74-.29,1.12-.07,.37-.13,.74-.29,1.12-.12,.83-.35,1.58-.48,2.33-.22,.75-.35,1.49-.57,2.24-.07,.37-.22,.75-.29,1.12-.07,.28-.14,.56-.3,.94Zm.79,3.34c-.18,.01-.37,.03-.54,.13,0,0,0,.09-.08,.19,.18-.01,.36-.12,.54-.13,0-.09-.01-.18,.08-.19Zm-.36-2.54c-.08,.19-.16,.29-.15,.47,.09,0,.18-.1,.27-.11,.08-.19,.07-.28,.15-.47-.09,0-.18,.1-.27,.11Zm.43,2.17c-.09,0-.27,.02-.45,.12v.09l-.08,.1c.18-.01,.36-.12,.45-.12,0-.09,.08-.1,.08-.19Zm-.02-2.84c-.08,.1-.18,.1-.27,.11-.08,.1-.07,.28-.16,.38,.09,0,.27-.11,.36-.12,0-.09,.07-.28,.07-.37Zm-.29-24.83q-.09,0-.1-.09,.09,0,.19,.08c-.09,0-.08,.1-.09,0Zm.59,23.8c-.08,.1-.27,.11-.35,.21,0,.09-.07,.28-.15,.47,.18-.1,.27-.11,.36-.12,.08-.19,.07-.37,.14-.56Zm1.73-9.2c-.29,1.03-.5,1.96-.7,2.98-.21,.93-.41,1.96-.62,2.89-.21,.93-.41,1.95-.62,2.89,.01,.18-.07,.28-.06,.46,.08-.1,.26-.2,.35-.21,.51-1.87,1.02-3.74,1.53-5.52,.09-1.38,.18-2.67,.27-3.96,0,.09-.07,.28-.15,.47Zm-1.74-45.26l-.12,.83h.09l.03-.83Zm1.88,60.02c-.46,.03-.91,.16-1.45,.2-.07,.28-.23,.66-.3,.94,.45-.12,.9-.25,1.43-.47h.18c.08-.2,.15-.48,.14-.66Zm-1.5-4.29c-.08,.19-.16,.38-.23,.57l.27-.02c.08-.19,.15-.47,.23-.66q-.18,.1-.27,.11Zm.03,3.02c.18-.1,.27-.11,.45-.12-.01-.18,.07-.28,.07-.37-.09,0-.27,.11-.45,.12-.08,.19-.07,.28-.07,.37Zm.31-3.32c0-.09,.08-.19,.07-.28-.09,0-.18,.1-.18,.1-.08,.1-.08,.19-.16,.29,.09,0,.18-.1,.27-.11Zm.28,2.64c-.09,0-.27,.02-.46,.03v.18c.1-.1,.28-.11,.46-.21Zm-.1-60.79c-.09,0-.19-.08-.19-.08q.1,.08,.19,.08Zm.18,56.84c-.17,.2-.25,.38-.33,.57q.09,0,.18-.01l.07-.28c0-.09-.01-.18,.07-.28Zm-.15,4.41c.54-.13,.99-.25,1.44-.38,.09-.1,.07-.28,.07-.37-.45,.12-.9,.25-1.34,.46-.08,.1-.08,.19-.16,.29Zm.23-.57c.18-.01,.46-.03,.72-.14-.27,.02-.45,.12-.72,.14Zm5.61-65.59c-.19-.08-.28-.07-.47-.15-.09,0-.18,.01-.27,.02-1.36,.28-2.72,.47-4.08,.66-.17,.19-.43,.4-.7,.51,.99-.25,2.07-.51,2.98-.58,.72-.14,1.36-.28,1.99-.42,.09,0,.27-.02,.55-.04Zm-5.16,62.9c-.07,.28-.24,.47-.31,.76,.18-.01,.27-.11,.36-.12,.07-.28,.15-.47,.22-.75-.09,0-.18,.1-.27,.11Zm4.1-61.08c-.72,.14-1.45,.19-2.18,.34-.63,.14-1.35,.37-1.99,.42,.37,.07,.74,.13,1.02,.2,.27-.11,.44-.22,.72-.23,.72-.23,1.35-.37,2.07-.51-.19-.08,0-.09,.08-.1,.08-.1,.18-.1,.27-.11Zm-4.04,60.71s0,.09-.08,.19c.09,0,.18-.01,.36-.12q0-.09-.01-.18c-.09,0-.18,.01-.27,.11Zm.07,1h.18c.07-.29,.15-.48,.23-.67q0-.09-.01-.18s-.08,.1-.18,.1c-.08,.19-.15,.47-.22,.75Zm.34-1.67c.08-.19,.16-.38,.23-.57-.09,0-.18,.01-.27,.02,.01,.18-.06,.46-.14,.65,.09,0,.08-.1,.18-.1Zm1.22,5.6c-.36,.12-.72,.14-1.18,.18,.01,.18-.07,.37-.14,.56,.45-.12,.81-.24,1.26-.37,.08-.1,.08-.19,.07-.37Zm-1.01-5.15q-.09,0-.18,.1s-.08,.1-.08,.19c.09,0,.08-.1,.18-.1,0,0,.08-.1,.08-.19Zm.14-.56c.08-.19,.16-.38,.23-.66-.08,.1-.18,.1-.27,.11-.08,.19-.06,.46-.14,.65,.09,0,.18-.1,.18-.1Zm-.08-1.19s.08-.1,.18-.1c.14-.65,.36-1.4,.5-2.05-.23,.66-.45,1.41-.67,2.16Zm.26-.2c.18-.01,.27-.11,.35-.21l.58-2.15c.15-.47,.31-.85,.37-1.31,.15-.47,.3-.94,.37-1.31-.17,.2-.35,.3-.52,.4-.07,.28-.15,.47-.22,.75-.27,1.3-.55,2.61-.92,3.82Zm1.27,5.04c.08-.1,.08-.19,.07-.28,0,0-.1-.09-.1-.18-.18,.1-.45,.12-.63,.14-.08,.1-.27,.11-.36,.12-.08,.19-.07,.37-.15,.47,.45-.12,.81-.24,1.17-.27Zm-.14-3.2c0,.09-.08,.19-.07,.28l-.07,.28c.35-.21,.8-.42,1.15-.63q.08-.1,.08-.19c-.36,.12-.72,.14-1.08,.26Zm7.86,3.57c-.73,.05-1.36,.19-2.09,.24-1.71,.49-3.42,.98-5.31,1.39,0,0-.08,.1-.08,.19,1.8-.49,3.69-.9,5.6-1.22,.55-.04,1.18-.18,1.72-.31,0-.09,.08-.19,.16-.29Zm-7.07-5.28c-.08,.19-.16,.29-.24,.47,.09,0,.18-.1,.18-.1l.27-.02c.09,0,.27-.02,.36-.03,0-.09,.08-.19,.07-.28,.09-.1,.08-.19,.07-.28-.27,.11-.45,.12-.72,.23Zm4.43-13.79c-.18,.01-.19-.08-.29-.26-.21,.93-.51,1.87-.81,2.81-.14,.65-.27,1.3-.41,1.96-.14,.65-.37,1.31-.5,2.05-.07,.28-.14,.65-.21,.93-.16,.38-.23,.66-.29,1.03-.23,.66-.45,1.41-.68,2.07-.23,.66-.46,1.32-.69,1.97,0-.09,.44-.21,.53-.22,.78-3.26,1.65-6.54,2.6-9.81,.31-.85,.52-1.69,.74-2.53Zm-2.91,13.32c.02,.27-.06,.46-.13,.74,.63-.14,1.27-.18,2-.23,.18-.1,.35-.21,.63-.23,.89-.34,1.79-.68,2.69-.92q-.1-.08-.1-.18c0-.09,.71-.32,.8-.33l-1.1,.08h-.18c-.36,.13-.72,.16-1.17,.28-1.18,.18-2.26,.53-3.43,.79Zm6.93,7.21c-2.27,.34-4.45,.59-6.62,1.02,2.16-.52,4.34-.86,6.62-1.02Zm-2.2-21.94s0,.09-.08,.19c-.89,3-1.78,5.9-2.75,9-.09,0-.1-.09-.01-.18,.89-3,1.78-5.9,2.67-8.9q.08-.1,.18-.1Zm1.07-6.95h-.18c.01,.2-.07,.29-.15,.48,.09,0,.18-.01,.27-.02,.08-.19,.07-.37,.06-.46Zm2.18-.25c-.55,.04-1,.07-1.55,.11-.17,.2-.16,.29-.25,.39,.63-.14,1.26-.27,1.8-.5Zm2.35-26.3c.22-.75,.35-1.58,.57-2.24-.16,.38-.41,.67-.66,.96,.02,.27-.05,.65-.12,.93-.12,.83-.35,1.58-.48,2.33,.08-.1,0,.09,.01,.18,0,.09,.02,.27,.03,.37,.22-.84,.43-1.68,.65-2.52Zm2.07-1.8c-.19,1.21-.56,2.42-.95,3.46-.13,.74-.35,1.49-.48,2.23,0,.09-.07,.28-.15,.47,.09,0,.17-.2,.25-.29s.08-.19,.16-.29c.35-1.58,.8-2.99,1.24-4.49l-.08-1.1Zm2.35-1.82c-.08,.19-.16,.29-.24,.48,.08-.19,.16-.38,.24-.48Zm2.42,28.89c.09,0,.19,.08,.29,.16,.82-.06,1.56,.07,2.22,.21,.18-.1,.26-.2,.44-.31-.55,.04-1.1-.01-1.56-.07-.37-.07-.74-.04-1.1-.01h.09c-.09,0-.18,0-.37,.02Zm.62-1.6c.37-.03,.74,.04,1.1,.01,.37,.07,.74,.04,1.11,.11-.2-.17-.38-.25-.58-.42-.09,0-.27,.02-.36,.12-.36,.03-.73,.05-1.1-.01q0,.09-.17,.2Zm2.61-1.93c.09,0,.19,.08,.19,.08q-.1-.08-.19-.08Zm.75-2.35l.13-.74h-.09l-.04,.74Zm.88,4.71s0,.09-.08,.1c0-.09,.08-.1,.08-.1Zm.09-1.38h0Zm.79,.77c.09,0,.1,.08,.1,.18-.09,0-.19-.08-.19-.08-.1-.09-.01-.18,.08-.1Zm2.63-39.16s.08-.1,.18-.1c2.66,0,5.23,0,7.8,.09,.09,0,.19,.08,.19,.08,0,0-.08,.1-.18,.1-2.57-.09-5.23-.09-7.8-.09-.09,0-.19-.08-.19-.08Zm2.05,68.99c.19,.08,.29,.16,.38,.25,0,0,.09,0,.19,.08,1.02,.11,1.96,.41,2.89,.71,.18-.1,.36-.12,.54-.13-1.13-.38-2.34-.66-3.54-.85-.09,0-.27,.02-.46-.06Zm1.27-1.47l1.68,.43c.55,.05,1.02,.2,1.49,.35-.29-.16-.39-.34-.59-.6-.18,.01-.46,.03-.64,.05-.56-.14-1.02-.2-1.58-.26,0,.09-.09,0-.18,.01h-.18Zm4.61-.96c.01,.18,.11,.27,.11,.27-.1-.09-.1-.18-.11-.27Zm1.41,3.02v.09c-.08,0-.09-.08-.1-.18q.08-.1,.1,.09Zm0-1.19v0Zm.76-3.45c.18-.1,.44-.31,.61-.41v-.09c-.18,.2-.44,.4-.61,.5Zm9.53-60.83c-.08,.1-.18,.01-.18,.01-.09,0-.1-.08,0-.09,0,0,.09,0,.19,.08Z"/><path class="j" d="M231.96,1.58c.18-.01,.38,.25,.43,.89,0,1.28-.67,3.53-1.48,5.06,0-.09,.09-.1,.17-.2-.24,.57-.39,1.04-.63,1.42,.16-.29,.33-.57,.49-.86-.71,1.61-1.44,2.94-2.18,4.1-.09,.1-.16,.29-.24,.48-.15,.47-.4,.85-.57,1.05-.69,1.88-1.57,3.69-2.39,5.12-.23,.66-.46,1.32-.79,1.8,.09-.1,.17-.2,.26-.29-.15,.47-.41,.67-.56,1.14,0,0,.18-.1,.27-.11-1.02,2.46-1.83,5.17-2.87,7.36-.09,.1-.08,.19-.16,.29-.11,1.02-.31,2.13-.68,3.35,.15-.47,.31-.85,.46-1.23-.63,2.7-1.98,6.93-3.67,8.97-1.49,4.87-2.89,9.74-4.19,14.6-.07,.28-.15,.47-.24,.47-.09,0-.1-.18-.03-.46,.85-3.54,1.79-7.1,2.73-10.56-.99,2.82-1.97,5.83-2.95,8.83-.07,.37-.22,.75-.29,1.12-.16,.38-.22,.75-.38,1.13-1.91,6.65-3.55,13.27-4.81,20.05,.2,.26,.4,.52,.6,.69,.1,.08,.11,.27,.11,.27v.18q-.16,.1-.25,.2c-.18,.01-.48-.33-.59-.51,.01,.18-.07,.28-.06,.46-.46,2.6-1.56,9-1.38,11.56-.05,.55-.02,1.01-.09,1.38,0,.09,.01,.18,.02,.27v.18c-.07,.1-.07,.19-.16,.2-.09,.1-.18,.1-.27,.02q-.12-.36-.12-.45c-.12-.36-.16-.91-.1-1.46-.04-.55,.01-1.1,.07-1.66,.02-3.58,.76-7.39,1.43-10.83-.01-.18-.02-.27,.07-.37-.2-.17-.3-.35-.5-.52-.39,1.04-.67,2.16-1.05,3.28,.1,.09,.19,.08,.2,.17,.1,.09,.2,.17,.2,.26q.1,.09,.1,.18h.09c-.09,.09-.08,.18-.17,.19,0,0,.09,0,.09-.1l-.1-.08c-.2-.26-.3-.35-.48-.33-.52,2.97-.95,5.94-1.11,8.88,0,.09,.01,.18-.08,.19-.08-1.09-.06-2.1,.05-3.21,.11-1.02,.22-2.03,.33-3.14-.16,.29-.33,.48-.52,.4-.09,0-.21-.35-.23-.72-.06,.46-.21,.93-.26,1.49-.07,.28-.15,.47-.24,.48-.09,0-.11-.27-.04-.55,.33-1.86,.75-3.63,1.08-5.49,0-.09-.1-.18-.2-.26-.26,1.58-.52,3.06-.77,4.64-.24,1.76-.49,3.43-.64,5.18-.12,.83-.16,1.66-.19,2.49,.06,.82,.11,1.55,.17,2.37q.1,.09,.01,.18s-.1-.09-.1-.18c-.12-.36-.15-.81-.19-1.36-.03-.46,.02-1.01-.01-1.47,.11-1.02,.12-2.12,.33-3.14-.1-.08-.11-.27-.11-.27,.32-1.95,.64-3.9,.96-5.84,.21-.93,.33-1.86,.44-2.78-.68,2.07-1.74,6.54-1.58,8.73-.08,.19-.07,.28-.16,.29,0,.09,0,0,0-.09-.01-.18-.02-.27-.03-.37-.05,.64-.28,1.21-.47,1.13-.19-.08-.23-.63-.19-1.36,.23-1.85,.55-3.8,.97-5.66l.05-.55c.07-.28,.06-.46,.05-.65-.36,1.4-.62,2.89-.98,4.29-.26,1.49-.52,2.97-.69,4.45-.08,.19-.15,.47-.15,.47-.09,0-.11-.27-.13-.54,.09-1.29,.18-2.58,.37-3.88,.18-1.3,.37-2.59,.55-3.89l.41-1.95c-.2-.17-.3-.35-.4-.52-.22,2.03-.45,3.97-.76,6.1,0,.09-.08,.19-.08,.19-.09,.1-.1-.08-.1-.18,.31-2.13,.53-4.16,.84-6.29-.1-.09-.2-.17-.3-.35-.26,1.58-.42,3.15-.67,4.72-.08,.19-.07,.37-.15,.47,.05,.64,0,1.19-.05,1.84,0,.09-.07,.28-.07,.28-.08,.1-.09,0-.1-.08,.05-.65,.1-1.2,.07-1.66,.08-.1,.08-.19,.07-.28,0,0-.1-.08-.02-.27,.08-1.47,.26-2.86,.43-4.34-.2-.26-.5-.51-.7-.77-.09,0-.1-.09-.1-.18,0,.09-.09,.1-.19-.08-1.78-1.89-3.33-4.26-4.86-6.53,0,0-.09,0-.19-.08-.19-.08-.39-.34-.6-.69l-.12-.36c-.53-1.06-.98-2.13-1.52-3.28-.1-.18-.31-.44-.42-.7-.61-.78-1.31-1.65-1.91-2.43-.09,.1-.29-.16-.4-.43-.1-.09-.2-.17-.21-.35,.12,.36,.24,.81,.45,1.16q0,.09,.01,.18c.21,.44,.42,.8,.64,1.24,2,3.62,4.24,6.76,6.56,9.8,.1,.08,.1,.18,.11,.27-1.78-1.8-3.53-3.23-5.16-5.5-1.93-2.61-3.77-5.33-5.45-8.32-1.51-3.19-3.09-6.02-4.69-9.29-.44-1.07-.88-2.05-1.31-3.02-.05,.55-.2,1.11-.33,1.77-.6,1.88-1.11,3.75-1.53,5.52-.42,1.86-.84,3.73-1.34,5.69-1.18,5.31-2.48,10.26-3.77,15.4-.22,.84-.94,3.55-2.13,3.64-.46,.03-.68-.5-.74-1.32-.08,.1-.16,.29-.15,.47l-.32,.66c-.22,.75-.55,1.32-.89,1.62l-.43,.4c-.69,.6-1.44,1.66-2.15,2.08l-.2-.17-.08,.1c-.25,.38-.5,.68-.78,.7l-.28-.07c-.29-.16-.5-.51-.62-.96-.18,.01-.28-.07-.29-.16-.18,.1-.35,.21-.53,.22-.09,0-.28-.07-.38-.25-.17,.2-.27,.11-.28-.07,0-.09-.01-.18,.07-.28-.08,.1-.18,.1-.26,.2-.08,.19-.16,.29-.16,.29l-.3,.94c-.16,.29-.33,.48-.33,.48q-.53,.31-.72,.23c-.17,.2-.26,.2-.25,.29q-.27,.11-.26,.2l-.2-.26c-.03-.36-.03-.46-.03-.46l.43-.4,.08-.19h-.18l.17-.18-.17,.2q.15-.47,.22-.75c.08-.19,.07-.37,.06-.46q.14-.56,.29-1.12,.09,0,.18-.1c-.09,0-.01-.18-.02-.27,0-.09,.14-.65,.14-.65-.01-.18-.03-.46,0-1.19,.08-.19,.07-.28,.15-.47,0,.09-.08,.1-.08,.19-.09,0-.19-.08-.18,.01-.31,.76-.7,1.7-1,2.64,0,.09,.01,.18,.11,.27,.24-.48,.48-1.04,.72-1.52,.09-.1,.17-.2,.18-.1,0,.09,.02,.27-.07,.37-.31,.76-.54,1.5-.76,2.25-.08,.19-.07,.37-.14,.56-.14,.65-.47,1.13-.66,.96-.18,.01-.45,.12-.55-.05-.12-.36-.16-1-.03-1.65l-.17,.2c-.32,.66-.66,.96-.94,.98-.18,.01-.38-.16-.5-.61-.13-.54-.08-1.19,.05-1.93,.14-.65,.36-1.4,.59-1.97-.02-.27,.14-.65,.29-1.03-.16,.29-.24,.48-.4,.76,.46-1.23,1.02-2.37,1.61-3.14,.08-.1,.16-.29,.16-.38,.16-.38,.23-.66,.4-.85,.53-1.5,1.08-2.83,1.65-3.88,.15-.47,.3-.94,.55-1.32-.09,0-.18,.1-.26,.2,.16-.38,.33-.48,.49-.86-.09,0-.18,.1-.18,.1,.6-1.88,1.1-3.93,1.9-5.54,0-.09-.01-.18,.08-.19,.03-.83,.07-1.56,.28-2.5-.07,.28-.14,.56-.31,.85,.14-.65,.27-1.3,.41-1.96,.37-1.31,1.38-3.77,2.33-4.66,.3-.94,.51-1.87,.72-2.8l.82-2.72c.52-1.78,.94-3.55,1.45-5.42,.08-.19,.16-.29,.25-.29,.09,0,.1,.08,.02,.27-.14,.65-.27,1.39-.41,2.05-.23,.66-.37,1.31-.5,1.96-.37,1.31-.64,2.61-1.01,3.92,.38-1.04,.76-2.16,1.15-3.2,.38-1.13,.67-2.25,1.05-3.28,.07-.28,.14-.56,.3-.94,.07-.28,.14-.56,.22-.75,.22-.75,.44-1.5,.67-2.16,.16-.38,.23-.66,.38-1.04,.07-.37,.22-.75,.29-1.03,.45-1.41,.9-2.81,1.25-4.31,.75-2.35,1.4-4.78,1.96-7.2,.52-1.78,.95-3.46,1.47-5.15,.06-.46,.22-.84,.37-1.31,.07-.37,.22-.84,.37-1.22,.31-.85,.61-1.69,.92-2.54,.15-.47,.4-.76,.59-.78,.18-.01,.21,.35,.06,.82-.3,.94-.52,1.78-.82,2.72-.15,.47-.3,.94-.46,1.32l-.36,1.4c-.52,1.78-1.03,3.56-1.54,5.43-.52,1.78-1.03,3.65-1.63,5.43-.08,.19-.15,.47-.23,.66,.02,.27-.06,.46-.13,.74-.15,.47-.31,.85-.46,1.32-.3,.94-.6,1.88-.9,2.81-.16,.38-.31,.76-.37,1.22-.16,.38-.31,.76-.38,1.13,.1,.08,.2,.17,.2,.26,.16-.38,.31-.85,.46-1.32,.15-.47,.31-.85,.55-1.32,.27-1.3,.56-2.52,.92-3.82,.16-.38,.23-.66,.29-1.03,.16-.29,.23-.66,.3-.94,.23-.66,.46-1.32,.69-1.97,.39-.94,.7-1.79,1.1-2.55,.4-.85,.8-1.62,1.2-2.47,.29-1.12,.58-2.15,.96-3.28,.14-.56,.29-1.03,.53-1.6,.14-.56,.29-1.12,.53-1.6,0-.09,.08-.19,.08-.19,.08-.1,.09,0,0,.09-.13,.74-.35,1.58-.57,2.33,.01,.18-.07,.37-.14,.56-.08,.19-.07,.37-.14,.65-.07,.37-.22,.75-.29,1.12,.17-.2,.35-.3,.44-.22,.19,.08,.21,.35,.23,.63l.38-1.04c.08-.19,.16-.38,.26-.29,.09,0,.1,.18,.03,.37-.54,1.41-1.08,2.83-1.53,4.24-.16,.38-.31,.85-.37,1.22,.25-.38,.48-.95,.72-1.43,1.03-3.56,2.15-7.12,3.56-10.61,.09-.1,.18-.1,.18-.1,0,0,0,.09,.01,.18-.63,1.42-1.17,2.93-1.61,4.42,0,.09-.08,.19-.07,.28-.26,.29-.32,.66-.48,.95-.07,.37-.22,.75-.29,1.03-.22,.75-.45,1.41-.67,2.16-.16,.38-.22,.84-.37,1.22,.08-.19,.26-.29,.33-.48,.09-.1,.07-.28,.16-.38,.23-.66,.46-1.23,.69-1.88l.3-.94c.16-.29,.23-.57,.39-.94l.22-.84c0-.09,.08-.19,.08-.19,.09,0,.1,.08,.01,.18v.18c.16-.47,.42-.76,.61-.68,.19,.08,.13,.54-.02,1.01-.16,.38-.23,.66-.39,1.04-.07,.28-.23,.66-.3,.94-.23,.57-.38,1.13-.61,1.69,.09,0,.1,.08,.19,.08,.23-.66,.46-1.22,.78-1.89l.22-.75,.4-.76c.15-.47,.39-.94,.63-1.51,0-.09,.16-.29,.16-.29,.1,.08,.1,.18,.03,.37-.3,.94-.51,1.87-.82,2.72-.21,.84-.52,1.69-.74,2.53,.1,.08,.19,.08,.28,.07,.22-.75,.44-1.5,.66-2.34-.12,.83-.35,1.58-.48,2.33,.08-.1,.26-.2,.44-.21,.08-.19,.15-.47,.23-.66-.01-.18,.07-.28,.07-.28,.05-.55,.12-.93,.27-1.39,0,0,0-.09,.08-.19,0,0,.1,.08,.01,.18-.07,.37-.13,.74-.2,1.11,0,.09,.01,.18-.08,.19,.09,0,.1,.08,.11,.27-.07,.28-.14,.56-.12,.83-.01-.18,.18-.1,.19,.08,.09,0,.1,.08,.1,.18q.09-.1,.17-.2c-.01-.18-.02-.27-.02-.27q.06-.46,.04-.74c.08-.19,.16-.29,.16-.38,.09-.1,.08-.19,.08-.19q.53-.31,.72-.23c.08-.19,.17-.2,.16-.29l.46-.03c.1,.18,.11,.27,.12,.36l-.25,.29-.08,.19q.18-.01,.18-.1c-.07,.37-.04,.65-.02,1.01,.1,.18,.11,.27,.12,.45l-.14,.56c.09,0,.1,.08,.1,.18,0,.09,.01,.18,.02,.27,0,.09,.01,.18,.1,.18,.01,.18,.12,.45,.34,.89,.01,.18,.02,.27,.03,.46-.01-.18,.17-.2,.17-.2,.04-.74,.08-1.47,.03-2.2q0-.09-.1-.18c-.07,.37-.21,.84-.27,1.3,0,.09-.08,.19-.08,.1-.1-.08-.1-.18-.11-.27,.05-.65,.09-1.29,.14-1.84-.01-.18-.02-.27-.03-.46-.03-.46,.22-.84,.4-.85,.18-.01,.36-.12,.46,.06,.29,.16,.41,.61,.53,1.06q0-.09,.08-.19c.07-.37,.4-.76,.77-.79,.18-.01,.37,.07,.57,.33,.2,.26,.33,.71,.45,1.16,.04,.55,.07,1,.01,1.47,.1,.08,.1,.18,.12,.36,0,.09-.07,.28-.07,.37,.08-.19,.07-.37,.14-.56-.12,.92-.15,1.84-.37,2.59-.09,.1-.07,.28-.07,.37,.02,.27,.03,.46-.04,.74,.18,1.18,.25,2.27,.14,3.29,.12,.36,.15,.81,.17,1.09,0,0,0-.09,.08-.19,.02,.27-.06,.46-.04,.74,.09,0,.08-.1,.18-.1,.29,1.54,.86,3.15,1.06,4.6v.18c.42,.52,.73,1.05,1.05,1.76-.1-.18-.12-.45-.23-.72,.31,.53,.53,.97,.75,1.51,.57,1.52,.87,3.24,.67,4.26,1.21,2.85,2.6,5.68,4.08,8.42,.1,.18,.12,.36,.03,.37,0,.09-.09,0-.2-.17-1.24-1.93-2.29-3.87-3.27-6,.68,1.79,1.35,3.57,2.22,5.44,.1,.18,.22,.44,.32,.62,.11,.27,.22,.44,.33,.71,1.4,2.93,2.88,5.76,4.73,8.47,.05-.64,.18-1.3,.23-1.94,.92-5.11,1.95-10.04,3.15-15.08,1.55-5.24,2.76-10.19,4.22-15.52,1.96-7.29,4.14-13.96,6.49-21,.73-2.62,2.04-4.82,2.86-4.88,.45-.12,.59,.6,.49,1.8,.08-.19,.15-.47,.23-.66l.48-.95c.39-.95,.8-1.71,1.23-2.1l.51-.59c.86-.79,1.86-2.15,2.65-2.76l.11,.27,.17-.2c.33-.48,.67-.87,.95-.89l.2,.17c.29,.16,.5,.61,.54,1.15,.09,0,.19,.08,.29,.25,.17-.2,.34-.3,.53-.31,.18-.01,.28,.07,.39,.34,.17-.2,.27-.11,.2,.17,0,.09-.07,.28-.07,.37,.08-.1,.17-.2,.25-.29,.16-.29,.16-.38,.16-.38q.32-.66,.56-1.14c.24-.47,.5-.77,.5-.77q.62-.32,.81-.24,0,.09,.01,.18c.16-.38,.24-.48,.23-.57,.09-.1,.17-.2,.17-.2q.1,.08,.18-.01,.11,.27,.12,.36c.03,.36-.05,.55-.05,.55l-.52,.5,.1,.18-.18,.1-.08,.19,.26-.29q-.31,.76-.39,1.04c-.16,.29-.14,.56-.23,.57q-.22,.75-.53,1.51c-.08,.19-.16,.38-.15,.47-.08,.19-.16,.29-.16,.38-.07,.28-.07,.37-.06,.46-.05,.55-.33,1.77-.57,2.24,0-.09,.08-.1,.08-.19,.08-.1,.19,.08,.18-.01,.57-1.05,1.03-2.27,1.58-3.5,0-.09-.01-.18-.02-.27,0-.09,.09-.1,.07-.28,0,0,0,.09-.08,.19-.41,.67-.73,1.34-1.05,2-.08,.19-.17,.2-.27,.11,0-.09,.07-.37,.14-.56,.48-.95,.87-1.9,1.36-2.85-.02-.27,.06-.46,.13-.74,.4-.85,.82-1.43,1.01-1.26,.18-.01,.36-.12,.47,.15,.03,.46,0,1.19-.31,2.13l.16-.29c.49-.86,.92-1.26,1.19-1.28Zm-70.85,81.87c-.08,.1-.08,.19-.17,.2-.02-.27,.07-.37,.14-.56,.09,0,.1,.09,.03,.37Zm.03-2.2s-.09,0-.1-.09q.09,0,.1,.09Zm1.37-7.89c.22-.75,.45-1.41,.67-2.16,0-.09,.07-.28,.15-.47-.09,.1-.17,.2-.25,.29s-.08,.19-.16,.29c-.44,1.59-1.08,2.92-1.62,4.33,.02,.27,.04,.64-.02,1.01,.37-1.22,.76-2.25,1.23-3.3Zm-.2,8.82c0,.09-.09,.1-.08,.19l.08-.19Zm2-9.22c.08-.1,.08-.19,.07-.28-.31,.85-.53,1.6-.84,2.35-.22,.75-.54,1.5-.76,2.26,.25-.39,.5-.68,.76-.97-.05-.64,.65-2.52,.88-3.09-.18,.01-.1-.18-.11-.27Zm0,6.33c-.08,.1-.18,.1-.18,.1,.09,0,.18-.1,.18-.1Zm1.65,2.54l.59,.6-.59-.6Zm5.11-39.06s0-.09,.08-.19c.99-2.82,1.98-5.64,3.05-8.65,.09,0,.1,.08,.01,.18-.99,2.82-1.98,5.73-2.97,8.56q-.08,.1-.18,.1Zm7.13-10.59c.1,.08,.2,.17,.3,.35,.09-.1,.08-.19,.07-.28-.01-.18-.03-.46-.05-.64-.01-.18,.07-.37,.05-.55-.16,.38-.22,.75-.38,1.13Zm1.4,12c-.12-.36-.23-.72-.34-.98-.06,.46-.12,.93-.28,1.3,.09,0,.18-.1,.18-.01,.09,0,.12,.36,.05,.64-.08,.19-.16,.29-.15,.47,.15-.47,.31-.85,.54-1.41Zm2.21-21.89c0,.09,.01,.18-.08,.19,0,.09-.08,.1-.09,0s.08-.19,.17-.2Zm2.29,6.44c-.08,.1-.08,.19-.16,.29,.08-.19,.16-.29,.16-.29Zm1.66-3.79c0-.09,.09-.1,.18-.1,.01,.18-.07,.28-.07,.37-.09,0-.19-.08-.11-.27Zm.73,8.93c-.14-.72-.19-1.36-.24-2.09-.04-.64-.18-1.27-.13-1.83-.07,.37-.23,.66-.3,.94,.01,.18,.12,.45,.14,.72,.04,.64,.18,1.27,.32,1.9,.08-.1,.09,0,.1,.08,0,.09,.01,.18,.11,.27Zm1.86,.33c-.27-1.26-.27-2.46-.26-3.65-.2-.17-.31-.44-.42-.7,.16,.91,.22,1.82,.19,2.74,.04,.64,.18,1.18,.31,1.81,0,.09,.01,.18,.03,.37,.08-.1,.08-.19,.16-.38q0-.09-.01-.18Zm6.56,33c.85,1.59,1.86,2.99,2.87,4.29,.91,1.13,1.71,2.17,2.53,3.31-.01-.18,.07-.28,.06-.46-.2-.26-.4-.52-.61-.78-.93-1.4-1.85-2.8-2.68-4.21-.8-.86-1.59-1.72-2.38-2.58,.1,.18,.2,.26,.21,.44Zm5.91,8.38c-.19-.08-.29-.25-.4-.43,0,.09,.01,.18-.08,.19,0,.09-.09,.1-.1-.08,.08-.1,.08-.19,.07-.28-.81-1.13-1.71-2.17-2.53-3.31-.91-1.13-1.72-2.26-2.53-3.31,1.36,2.38,2.97,4.37,4.5,6.56,.1,.08,.11,.27,.12,.36,.38,.25,.59,.51,.88,.76,0-.09-.02-.27,.06-.46Zm-4.58-16.73c.33,.71,.66,1.51,.98,2.22,1.14,1.84,2.38,3.77,3.45,5.9,0,.09,.1,.18,.21,.35-.01-.18-.03-.37-.04-.55-1.15-1.94-2.29-3.87-3.36-6-.32-.62-.64-1.24-.87-1.86-.18,.01-.27,.02-.37-.07Zm.88-1.8c1.08,2.31,2.15,4.52,3.33,6.91,0,.09-.09,0-.1-.08-1.17-2.21-2.25-4.52-3.23-6.83Zm3.46,13.87c-.01-.18-.03-.37-.03-.46-.73-1.23-1.45-2.37-2.18-3.6,.02,.27-.06,.46-.14,.56,.11,.27,.21,.44,.32,.62,.71,.96,1.33,1.92,2.04,2.88Zm-.06,.46l-.02-.27c-.31-.53-.72-1.14-1.13-1.66,.41,.61,.73,1.23,1.15,1.93Zm-.09,1.38c-.1-.09-.2-.17-.29-.26,.1,.18,.21,.35,.31,.53v-.18l-.02-.09Zm.44,2.35c-.1-.18-.21-.35-.4-.52,0,.09,.01,.18,.03,.37,.1,.18,.21,.35,.31,.44,0-.09,.08-.19,.07-.28Zm.18-1.3c-.1-.18-.21-.44-.32-.62-.08,.1-.08,.19-.07,.28,.1,.18,.22,.44,.32,.62,.09-.1,.08-.19,.07-.28Zm.19-1.21c.08-.1,.08-.19,.07-.28-.11-.27-.21-.44-.41-.61,0,.09,.01,.18,.02,.27,.1,.18,.21,.44,.32,.62Zm-.2-1.45c-.08,.1-.07,.28-.07,.37,.1,.18,.21,.35,.41,.61l-.02-.27c-.11-.27-.21-.44-.33-.71Zm.62,3.53c-.1-.08-.2-.17-.21-.35-.08,.19-.07,.28-.07,.37,.01,.18,.11,.27,.21,.35,0-.09-.02-.27,.07-.37Zm-.25-6.03c.2,.26,.31,.53,.43,.89,.07-.28,.14-.65,.21-.93-.2-.26-.31-.44-.51-.7,.02,.27-.06,.46-.13,.74Zm.23,4.57c0,.09,.1,.18,.2,.26,0-.09-.02-.27,.07-.37-.1-.08-.2-.17-.2-.26-.09,.1-.08,.19-.07,.37Zm.05-.55c.1,.08,.1,.18,.2,.26v-.18c-.02-.09-.12-.18-.12-.27,0,0-.09,.1-.08,.19Zm.47,2.81c-.2-.17-.3-.35-.41-.61,.01,.18-.07,.37-.06,.46,.11,.27,.21,.44,.32,.62,.08-.19,.07-.28,.15-.47Zm3.16-21.4c-.09,.1-.18,.1-.18,.1-.1-.08-.12-.45,.03-.92,.08-.19,.16-.38,.23-.66-.23,.66-.46,1.32-.69,1.88,0,.09-.08,.19-.07,.28-.23,.66-.46,1.32-.59,2.06-.88,3.09-1.58,6.16-2.1,9.23-.07,.28-.14,.56-.21,.84,.1,.18,.21,.35,.31,.53-.03-.37,.12-.83,.27-1.3l.15-.47c.52-1.78,1.12-3.66,1.63-5.43,.07-.37,.12-.83,.27-1.3,.26-1.58,.59-3.25,.94-4.83Zm-2.9,19.83c-.1-.18-.31-.44-.41-.61-.08,.1-.07,.28-.06,.46,.1,.18,.21,.44,.42,.7-.01-.18,.07-.37,.05-.55Zm.08-.19c-.2-.26-.31-.53-.42-.8,0,.09-.08,.1-.08,.19,.1,.09,.2,.26,.31,.44,.1,.09,.1,.18,.2,.17Zm-.23-3.19c.07-.37,.12-.83,.19-1.2-.16,.29-.23,.66-.29,1.03,0,.09,.1,.09,.1,.18Zm.9-.25c-.2-.26-.4-.52-.51-.7-.07,.37-.22,.84-.28,1.21,.1,.18,.11,.27,.12,.36,.2,.17,.3,.35,.4,.52,.07-.28,.14-.65,.21-.93-.01-.18,.07-.28,.06-.46Zm-.72,2.8l.1,.18-.1-.18Zm.07,11.27c0-.09,.07-.28,.16-.29,0,.09,.01,.18-.07,.28,0,.09-.08,.1-.09,0Zm.14-16.15c0-.09-.01-.18,.07-.28-.08,.1-.08,.19-.07,.28Zm1-2.73c-.39,.94-.68,2.07-.79,3.08,.1,.08,.2,.26,.31,.44,.2-1.11,.29-2.31,.48-3.52Zm.71,8.75c-.14,.56-.29,1.12-.43,1.68,.15-.47,.29-1.03,.43-1.68Zm.31,.44c-.1-.08-.1-.18-.2-.26-.14,.56-.28,1.21-.33,1.77,.1,.18,.11,.27,.21,.35-.01-.18,.07-.28,.07-.37,.06-.46,.2-1.02,.26-1.49Zm-.24-.81c-.02-.27,.06-.46,.13-.74-.07,.28-.15,.47-.13,.74Zm.67-.96c-.1-.08-.2-.26-.3-.34-.15,.47-.21,.93-.27,1.39,.1,.18,.11,.27,.21,.35,.15-.47,.21-.93,.36-1.4Zm.82-3.91c-.16,.38-.42,.58-.51,.59-.16,.38-.22,.75-.29,1.12-.07,.28-.06,.46-.13,.74,.1,.18,.2,.26,.31,.44,.21-.93,.41-1.95,.62-2.89Zm5.41-11.57c-.19-.08-.2-.17-.21-.35-.37,1.22-.84,2.44-1.21,3.66-.76,3.45-1.53,6.89-2.55,10.54-.21,.84-.43,1.68-.65,2.52,.1,.08,.2,.26,.31,.44,1.01-5.12,2.46-11.91,4.31-16.81Zm1.97-1.97s0,.09,.02,.27c-1.28,3.85-2.48,7.69-3.58,11.53,.01,.18-.08,.19-.08,.19,0,0,0-.09-.02-.27,1.1-3.84,2.3-7.68,3.49-11.53,.09-.1,.17-.2,.17-.2ZM223.78,2.53l.51,.79-.42-.8h-.09Zm1.61,9.79c.39-.95,.78-1.98,1.27-2.84-.33,.48-.67,.87-.93,1.17-.16,.38-.22,.75-.37,1.22-.39,.94-.78,1.98-1.17,2.92,.18-.1,.1,.18,.02,.27,.01,.18-.07,.28-.07,.37,.39-1.04,.86-2.08,1.25-3.11Zm2.61-2.02c-.53,1.51-1.17,2.93-1.81,4.25-.39,.95-.78,1.89-1.08,2.83-.08,.19-.16,.38-.23,.66,.17-.2,.33-.48,.49-.86,.78-1.98,1.57-3.69,2.45-5.58,.06-.46,.12-.83,.18-1.3Zm-2.54-3.49c.08-.19,.26-.29,.26-.29-.18,.1-.17,.2-.26,.29Zm2.56-3.94c.09,0,.18-.1,.18-.1l-.18,.1Zm1.11,1.39s0,.09-.09,.1l.09-.1Zm.43-2.96c.08-.1,.17-.2,.25-.29-.07,.37-.23,.57-.31,.76-.09,0-.1-.18,.06-.46Z"/></g></g></g></svg>