<?xml version="1.0" encoding="UTF-8"?><svg xmlns="http://www.w3.org/2000/svg" xmlns:xlink="http://www.w3.org/1999/xlink" viewBox="0 0 289.89 102.97"><defs><style>.j{fill:url(#e);}.k{fill:url(#d);}.l{fill:url(#g);}.m{fill:url(#f);}.n{fill:url(#i);}.o{fill:url(#h);}</style><linearGradient id="d" x1="-340.09" y1="94.68" x2="294.92" y2="30.99" gradientTransform="matrix(1, 0, 0, 1, 0, 0)" gradientUnits="userSpaceOnUse"><stop offset="0" stop-color="#f3ff7f"/><stop offset=".3" stop-color="#c1ff6f"/><stop offset=".58" stop-color="#a5ffcf"/></linearGradient><linearGradient id="e" x1="-339.79" y1="97.67" x2="295.22" y2="33.98" xlink:href="#d"/><linearGradient id="f" x1="-339.92" y1="96.4" x2="295.1" y2="32.71" xlink:href="#d"/><linearGradient id="g" x1="-339.75" y1="98.02" x2="295.26" y2="34.33" xlink:href="#d"/><linearGradient id="h" x1="-339.63" y1="99.24" x2="295.38" y2="35.55" xlink:href="#d"/><linearGradient id="i" x1="-339.64" y1="99.15" x2="295.37" y2="35.46" xlink:href="#d"/></defs><g id="a"/><g id="b"><g id="c"><g><path class="k" d="M69.8,17.44q.09,0,.18-.01c.17-.2,.42-.49,.59-.78,.51-.59,1.02-1.17,1.53-1.76,.08-.19,.07-.37,.15-.47q.09-.1,.18-.1v.09s.18-.1,.27-.11c.09,0,.18-.01,.28,.07s.03,.37-.14,.65c-.5,.68-1.01,1.26-1.42,1.93l-.17,.2c0,.09-.08,.19-.07,.28,.85-.98,1.7-1.86,2.47-2.74,.08-.1,.17-.2,.27-.11,0,0,0,.09-.08,.19-.24,.47-.57,.96-.82,1.43-.33,.48-.66,.96-.91,1.35-.33,.48-.67,.96-.91,1.44-.33,.48-.67,.87-1,1.35,0,.09-.07,.28-.07,.37,.27-.02,.55-.04,.65,.05,.48-.95,.96-1.9,1.45-2.85,.33-.48,.57-.96,.99-1.54,.09,0,.1,.08,0,.09-.16,.29-.24,.48-.4,.76-.17,.2-.24,.48-.4,.76-.24,.47-.48,.95-.72,1.43-.24,.48-.48,.95-.73,1.34q.09,0,.18-.01c.25-.29,.5-.68,.66-1.06,.5-.77,.9-1.53,1.4-2.3,0,0,.08-.1,.18-.1,.07-.28,.14-.56,.22-.75,.02,.27-.06,.46-.14,.65,0,.09,.01,.18,.02,.27-.4,.85-.8,1.62-1.21,2.38-.25,.38-.41,.67-.57,.96q.19,.08,.28,.07c.35-.3,.59-.68,.75-1.06,.03,.46-.12,.93-.18,1.39q.4,.52,.45,1.16-.09,.1-.17,.2s0,.09,.01,.18c-.14,.56-.23,.66-.31,.76,.07-.28-.03-.37-.03-.37-.01-.18-.02-.37-.12-.45,0-.09-.01-.18-.1-.18,.01,.18,.11,.27,.12,.36,0,0-.1-.08-.19-.08,.01,.18,.11,.27,.21,.44,0,.09-.07,.28-.07,.37,0,.09-.09,.1-.08,.19,0,0-.08,.19-.17,.2,0,.09,.01,.18-.08,.1q-.19-.08-.29-.16c-.08,.19-.16,.29-.15,.47,.01,.18,.03,.37-.06,.46-.08,.19-.07,.28-.16,.38-.09,0-.18,.1-.17,.2q-.08,.1-.08,.19s0-.09,.08-.19c-.09,0-.08,.1-.08,.19-.01-.18,0,0,0,0-.41,.67-.74,1.24-1.06,1.91-.39,.95-.87,1.9-1.45,2.85-1.25,1.83-2.22,3.64-3.36,5.65-1.45,2.76-2.93,5.16-4.4,7.74-.4,.76-1.1,1.36-1.73,1.41-.09,0-.27,.02-.37-.07-.37-.07-.69-.68-.72-1.05,0,0-.09,.1-.08,.19-.09,.1-.26,.2-.35,.3-.25,.38-.6,.59-.87,.61l-.45,.12c-.27,.02-.63,.14-.99,.25-.27,.11-.54,.13-.72,.14s-.27,.02-.37,.03l-.1-.18-.08,.1c-.18,.1-.36,.12-.54,.13-.09,0-.18,.01-.27,.02l-.2-.17c-.29-.16-.49-.42-.61-.78-.09,0-.19-.08-.29-.16-.27,.02-.55-.05-.85-.31-.09,0-.19-.08-.2-.17,0-.09,.08-.1,.08-.19-.09,0-.18,.01-.27,.11q-.25,.29-.42,.58l-.35,.21q-.55-.05-.74-.13t-.27,.11q-.18,.01-.27,.02-.1-.18-.11-.27l-.02-.27,.36-.12,.17-.2-.18,.1q.16-.29,.25-.38c.09-.1,.07-.28,.07-.28q.16-.29,.42-.58c.08-.1,.08-.19,.08-.19l.17-.2q0-.09-.01-.18c0-.09,.07-.28,.13-.74q.09-.1,.08-.19c-.09,.1-.1-.08-.09,0-.18,.1-1.2,1.19-1.18,1.46,.35-.21,.61-.41,.87-.7q.09,0,.18-.01c0,.09,.01,.18-.07,.28-.26,.2-.42,.49-.59,.68-.08,.1-.25,.29-.34,.39,0,.09-.08,.19-.07,.28-.16,.29-.42,.49-.61,.5q-.09,0-.19-.08c-.1-.09-.37-.07-.38-.16-.21-.35-.14-.72,.01-1.1l-.08,.1c-.26,.2-.53,.31-.8,.33-.37,.03-.56-.14-.68-.59-.03-.36,.04-.74,.19-1.2,.08-.19,.16-.38,.33-.57,.17-.19,.25-.29,.42-.49h-.18c.17-.18,.34-.38,.52-.48-.18,.1-.26,.2-.44,.31,.26-.29,.6-.59,.85-.89,.26-.2,.52-.4,.88-.52,.08-.1,.08-.19,.17-.2,.17-.2,.25-.29,.43-.4,.34-.39,.59-.78,.84-1.07,.34-.3,.7-.51,.96-.71,.16-.29,.42-.49,.59-.68,0,0-.08,.1-.18,.1,.17-.2,.35-.21,.43-.4,0,0-.09,0-.18,.01,.08-.19,.16-.29,.25-.38,.09-.1,.17-.2,.25-.38,.17-.2,.42-.49,.59-.68,.33-.48,.66-.96,1.1-1.27,.23-.57,.29-1.03,.63-1.51-.18,.1-.25,.29-.34,.39,.07-.37,.22-.75,.48-1.04,.66-.96,1.71-1.77,2.52-2.01,.16-.29,.33-.57,.49-.86-.08,.1-.99,.25-1.17,.27-.81,.24-1.43,.47-1.89,.5-.09,.1-.27,.11-.36,.12-3.23,1.05-6.27,2.1-8.78,2.92-1.06,.53-2.13,.98-3.12,1.32,.27-.02,.45-.12,.72-.14-.8,.33-1.34,.46-2.05,.79,.09,0,.18-.01,.37,.07-2.05,.88-4.07,2.03-6.01,3.18-1.94,1.15-3.78,2.29-5.53,3.42-.09,0-.27,.11-.35,.21-1.29,1.19-2.49,2.38-3.86,3.76,.42-.49,.94-.89,1.47-1.3-1.03,.99-2.05,2.07-2.99,3.15-.35,.3-1.28,1.28-1.44,1.66l-.51,.59c-.08,.1-.17,.2-.16,.29-.09,.1-.17,.2-.26,.2-.17,.2-.25,.38-.42,.58-.99,1.54-1.9,2.98-2.7,4.59-.07,.37-.13,.74-.11,1.11,.01,.18,.02,.27-.07,.37v.09q.01,.09,.02,.18l.03,.36c.03,.37,.15,.81,.44,1.07,.1,.18,.3,.35,.4,.52,.09,0,.19,.08,.29,.16,0,0,.1,.08,.19,.08,.1,.08,.19,.08,.2,.17,.38,.16,.66,.32,1.13,.47,2.27,.94,4.69,1.5,7.1,1.79,2.13,.31,4.35,.61,6.57,.91,.46,.06,.93,.12,.93,.21,.1,.08-.27,.11-.73,.05-1.57-.16-3.23-.32-4.72-.58-1.57-.16-3.14-.33-4.63-.68-1.58-.26-4.46-.88-5.81-1.79-.09,0-.19-.08-.19-.08-.09,0-.1-.08-.19-.08,0-.09-.1-.08-.19-.08l-.49-.42,.29,.25c.29,.25,.39,.34,.48,.33,.38,.25,.77,.5,1.34,.73,.95,.48,2.08,.86,3.29,1.14,1.22,.37,2.52,.65,3.82,.83,1.3,.27,2.6,.46,3.99,.73,.74,.04,1.48,.17,2.12,.22,.74,.13,1.48,.17,2.13,.31,1.86,.33,3.62,.57,5.48,.99,2.05,.5,4.1,.99,6.01,2.05,.57,.23,1.06,.66,1.64,1.08,.29,.26,.59,.51,.89,.85,.29,.25,.5,.61,.8,.95,.21,.44,.42,.8,.55,1.25,.22,.44,.34,.89,.37,1.35,.12,.45,.16,.91,.19,1.36-.07,.37-.12,.83-.19,1.2s-.13,.74-.2,1.02c-.07,.37-.22,.75-.3,.94-.23,.57-.47,1.04-.72,1.52-.39,1.04-.96,1.99-1.54,2.86-.59,.77-1.08,1.54-1.68,2.23-.5,.68-1.1,1.27-1.7,1.86-.17,.2-.34,.3-.42,.49l-.52,.4c-.08,.19-.26,.29-.43,.4-.17,.2-.34,.3-.42,.49-.18,.1-.35,.21-.52,.4l-.44,.31c-.35,.3-.6,.59-1.04,.9-2.52,2.01-5.14,3.85-7.95,5.52-3.11,1.41-5.84,2.98-8.94,4.49-2.48,1.18-11.89,5.52-14.45,5.7-.73,.05-1.38-.09-1.59-.44-.3-.35-.06-.82,.55-1.32-.18,.01-.27,.11-.45,.12l-.63,.14c-.18,.01-.36,.03-.55,.04-.37,.03-.73,.05-1.01-.02l-.47-.15c-.76-.31-1.87-.51-2.54-.92l.08-.19-.19-.08c-.37,.03-.65-.14-.85-.31l-.02-.27c-.03-.37,.05-.64,.29-1.03-.1-.08-.1-.18-.03-.37-.38-.16-.58-.42-.42-.8-.18,.01-.19-.08-.02-.27,0,0,.09,0,.18-.1-.09,0-.18,.01-.28-.07-.18,.01-.27,.02-.27,.02q-.36,.12-.72,.14c-.27,.02-.55-.05-.55-.05q-.39-.34-.4-.52-.28-.07-.37-.07l-.12-.45c.17-.2,.26-.2,.25-.29l.48,.24v-.18l.18,.17-.1-.18,.19,.08-.28-.07q.46-.03,.63-.14c.18-.01,.36-.12,.36-.12q.45-.12,.9-.25c.18-.01,.27-.11,.36-.12h.18q.18-.12,.26-.21c.18-.1,.35-.21,.79-.51,.18-.01,.27-.02,.45-.12h-.18c-.09,.02,0-.08-.1-.07-.73,.05-1.45,.19-2.18,.34-.08,.1-.18,.1-.17,.2h0c.46-.03,.92,.03,1.28,0,.18-.1,.27-.02,.19,.08,0,0-.18,.1-.27,.11-.63,.14-1.26,.27-1.9,.32-.08,.1-.27,.11-.35,.21l-.37,.03c-.37,.03-.65-.05-.66-.23-.1-.18-.2-.26-.12-.45,.16-.38,.51-.59,.95-.8h-.09c-.55-.05-.93-.11-1.04-.38-.19-.17-.12-.45,.12-.83,.59-.68,1.85-1.05,2.76-1.11,.17-.2,.44-.22,.81-.24-.28-.07-.46-.06-.64-.05,.46-.03,.81-.15,1.18-.18,.55-.04,1.1,.01,1.66,.07l.27-.02c.27-.02,.46-.03,.73-.05,1.17-.36,2.35-.53,3.35-.6,.45-.12,.82-.15,1.18-.18-.1-.08-.19-.08-.28-.07,.09,0,.18-.01,.27-.02,.18-.01,.37-.03,.55-.04l-.2-.17c1.53-.38,3.04-1.13,4.49-1.33,.09,0,.18-.01,.18-.01,.52-.4,1.04-.81,1.76-1.04-.27,.02-.45,.12-.72,.23,1.31-.92,2.93-1.4,4.48-1.51,.46-.03,.82-.06,1.1,.01,2.76-1.2,5.51-2.5,8.06-3.96,.18-.1,.27-.11,.37-.03,0,0,0,.09-.17,.2-1.84,1.14-3.7,2.19-5.64,3.15,1.69-.67,3.39-1.34,5.08-2.1,.18-.1,.44-.21,.62-.32,.27-.11,.44-.22,.62-.32,2.67-1.11,5.04-2.65,7.4-4.29,1.19-1.37,2.36-2.92,3.25-4.54,.09-.1,.17-.2,.16-.29l.16-.29c.08-.19,.16-.38,.23-.57-1.52-.72-3.28-.96-4.94-1.12-1.02-.2-2.13-.31-3.24-.41-4.99-.47-9.7-1.05-14.56-2.27-1.31-.37-2.72-.82-4.14-1.45-.38-.25-.76-.4-1.14-.56-.38-.25-.77-.5-1.15-.74-.09,0-.19-.08-.29-.16-.29-.25-.77-.59-1.06-.75l-1.17-1.02c-1.58-1.63-2.72-3.47-3.25-5.73-.02-.27-.04-.55-.15-.81-.01-.18-.02-.27-.03-.46l-.03-.37c-.02-.27-.04-.55-.06-.82s-.04-.64-.06-.82c.03-.83,.07-1.65,.1-2.48,.48-3.52,1.31-6.14,3.2-9.21,6.35-12.55,27.73-23.97,40.51-27.45,.99-.25,1.81-.31,2.45-.36,.64-.05,1.1-.08,1.29,.09s.12,.36-.31,.76c-.44,.31-1.14,.72-2.12,1.16,2.33-.81,5.03-1.46,7.49-1.63,.46,.06,.92,.03,1.38,0,1.01,.02,2.2,.03,3.4,.13,.37-.03,.64,.05,.92,.03,.25-.38,.5-.77,.74-1.15,.48-.95,.97-1.81,1.55-2.68,.24-.47,.58-.87,.82-1.34,.34-.39,.59-.77,.93-1.17,.16-.29,.43-.4,.62-.32,.1,.08,.12,.36-.05,.55-1.15,1.92-2.3,3.74-3.46,5.56-.16,.29-.24,.48-.41,.67,.27-.02,.46-.03,.65,.05,.42-.49,.86-.79,1.29-1.19,.33-.48,.66-1.06,1.08-1.64,.33-.57,.66-1.06,1.16-1.73,.09,0,.1,.08,0,.09-.4,.85-.8,1.71-1.28,2.57,.18-.1,.36-.12,.46,.06,.1,.08,.11,.27,.12,.45l.33-.48c.08-.1,.26-.2,.27-.11,.1,.08,.1,.18,.02,.27-.59,.68-1.1,1.36-1.69,2.05,0,.09-.08,.1-.08,.19,.09,0,.18-.01,.28,.07,1.15-1.92,2.48-3.75,4.1-5.52-1.44,1.75-2.77,3.59-4.01,5.51ZM1,95.77c-.09,0-.19-.08-.28-.07,.27-.11,.36-.12,.54-.13,0,.09-.08,.19-.26,.2Zm1.41,.54q-.1-.08-.19-.08l.19,.08Zm-.02-1.56s.09,0,.18-.01c0,0-.09,0-.18,.01Zm1.97,4.45l-.12,.83,.12-.83Zm1-2.64c-.09,0-.19-.08-.19-.08q.1,.08,.19,.08Zm5.14-5.04c-.09,0-.27,.02-.37-.07-.09,0-.18,.01-.27,.02-1.26,.37-2.44,.54-3.61,.81-.18,.1-.35,.3-.52,.4,.9-.25,1.71-.4,2.62-.55,.54-.13,1.17-.27,1.71-.49,.09,0,.27-.02,.45-.12Zm-1.13,2.1c-.09,0-.19-.08-.28-.07-.45,.12-.9,.25-1.35,.37-.63,.14-1.26,.27-1.8,.4,.37-.03,.64,.04,.93,.12,.27-.11,.44-.22,.72-.23,.63-.23,1.26-.37,1.79-.59Zm.35-.21c-.09,0-.18,.01-.27,.11,.18-.01,.18-.1,.27-.11Zm22.04-11.1s.09-.1,.18-.1c2.13-.98,4.26-2.04,6.29-3.1,0-.09,.09-.1,.09,0-2.11,1.25-4.24,2.23-6.37,3.2h-.18Zm5.58-1.39c-.61,.41-1.23,.73-1.85,1.05s-1.24,.64-1.77,.95c0,.09,.01,.18-.07,.28,.71-.33,1.43-.56,2.05-.88,.08-.1,.18-.1,.26-.2,.43-.4,.95-.8,1.38-1.2Zm-2.54-11.19c1.11,.2,2.23,.39,3.25,.59,.19,.08,.28,.07,.47,.15,1.11,.2,2.32,.39,3.35,.68,.56,.14,1.12,.29,1.6,.53,.37,.07,.66,.23,.85,.4,.18-.01,.27-.02,.37-.03,.09,0,.18-.01,.27-.02h-.18c0,.1,.01,.19-.07,.38v.18l-.14,.38c-.09,.1-.07,.28-.16,.38-.09,.1-.08,.19-.16,.38l-.32,.66c-.08,.19-.16,.29-.25,.39s-.07,.28-.16,.38c-.09,0-.09,.1-.17,.2,.17-.2,.25-.29,.33-.48l.51-.59c.17-.2,.25-.38,.33-.57,.08-.1,.16-.29,.15-.47h.09q.1,.08,.19,.07s.09,0,.19,.08v-.09l.24-.38v-.09h.09v-.19c.07-.19,.14-.38,.14-.47v-.18c-.22-.26-.51-.52-.98-.76-.47-.15-.94-.39-1.5-.53-.65-.14-1.21-.28-1.86-.42-1.3-.18-2.68-.36-4.07-.54,.19,.08,.29,.16,.29,.16,0,0-.18,.1-.36,.12-.27,.02-.74-.04-1.2-.1-.37-.07-.74-.13-1.11-.2Zm18.13,.91c.02,.27,.04,.55,.06,.82,0,.09,.01,.18,.03,.36,0,.09,.01,.18,.03,.37,.01,.18-.06,.46-.04,.64-.12,.93-.34,1.67-.56,2.42-.08,.19-.16,.29-.16,.38l-.15,.47c-.09,.1-.16,.29-.25,.39l-.56,1.14c-.22,.84-1.73,2.78-2.23,3.46l-.34,.39c0-.09,.07-.28,.33-.48,.58-.87,1.25-1.74,1.82-2.79l.16-.29c.08-.19,.16-.29,.25-.38,.07-.28,.23-.57,.31-.76,.16-.29,.23-.57,.4-.85l.31-.85c.16-.29,.23-.66,.38-1.13-.01-.18,.07-.37,.05-.55,.08-.1,.08-.19,.07-.37l.07-.28c-.03-.46,.03-.92-.01-1.47-.03-.46-.16-1-.29-1.54-.21-.44-.34-.98-.65-1.42-.21-.44-.51-.79-.82-1.23-1-1.12-2.26-2.13-3.58-2.68-.57-.33-1.14-.56-1.7-.7-1.04-.39-2.07-.68-3-.98-1.02-.2-1.95-.41-2.89-.62-1.02-.11-1.95-.32-2.78-.44-.28-.07-.47-.15-.47-.15,.09,0,.27-.02,.55,.05,3.06,.42,5.85,1.05,8.76,2.04,.57,.23,1.04,.48,1.61,.71,.66,.32,1.24,.65,1.82,1.06,.29,.26,.68,.5,.97,.76,.3,.34,.6,.69,.9,1.04,.7,.78,1.13,1.75,1.39,2.74,.11,.27,.12,.45,.23,.72Zm-10.35,6.6c-.52,.5-1.13,.91-1.83,1.41-.16,.29-.42,.49-.68,.78,.35-.21,.61-.41,.96-.62,.08-.1,.18-.1,.26-.2,.34-.39,.68-.78,1.02-1.17,.08-.1,.17-.2,.26-.2Zm-2.15-13.42c1.96,.41,5.68,1.25,7.33,2.5,1.14,.56,2.03,1.42,2.74,2.46,.21,.35,.41,.61,.53,.97s.23,.72,.35,1.08c.14,.72,.1,1.46,.06,2.1-.05,.64-.19,1.2-.42,1.77v.18l-.23,.48c.01,.18-.07,.28-.07,.37l-.16,.29c-.39,.94-.8,1.71-1.28,2.57-.5,.77-1.08,1.54-1.58,2.22-.59,.77-1.27,1.47-1.87,2.15-.17,.2-.43,.4-.6,.59,.6-.59,1.29-1.19,1.88-1.88,0,0,.08-.1,.18-.1,.59-.78,1.17-1.55,1.76-2.33l.49-.86c.16-.29,.32-.66,.57-.96,.09-.1,.07-.28,.16-.38l.48-.95c.08-.19,.16-.38,.24-.48l.23-.66c.08-.19,.07-.28,.16-.38,.06-.46,.21-.93,.27-1.39,.06-.46,.12-.93,.08-1.47-.04-.55-.08-1.19-.31-1.72-.13-.54-.44-1.07-.75-1.51-.22-.44-.61-.87-.91-1.22-.39-.34-.78-.59-1.07-.84-.38-.25-.77-.5-1.05-.66-.66-.32-1.24-.65-1.8-.79-1.6-.62-3.19-1.06-4.87-1.4,.01,.18-.17,.2-.53,.22Zm4.45,8.49h0Zm-.09,0v0Zm.27-.11c-.09,0-.08,.1-.18,.1,.09,0,.08-.1,.18-.1Zm-.01-.18h0Zm.01,.18l.09-.1s0,.09-.09,.1Zm.08-.19h0Zm.1,.08h0Zm0,0q.08-.1,.18-.1-.09,0-.18,.1Zm.08-.1h0Zm13.62-45.8c-4.15,1.03-8.18,2.32-12.1,3.98h.18c-.36,.1-.81,.23-1.25,.44,.18-.01,.54-.13,.91-.16,.18-.1,.44-.22,.62-.32,3.21-1.33,6.62-2.3,9.95-3.18,.53-.22,1.06-.53,1.69-.76Zm-10.09,18.05c-.09,0-.08,.1-.18,.1,.08-.19,.16-.29,.26-.29,0,0,.1,.08-.08,.19Zm10.61-19.82c-1,.07-1.82,.22-2.64,.28-.53,.22-1.25,.46-1.88,.68-1.79,.59-3.58,1.17-5.28,1.84,.27-.02-.18,.1-.35,.21-.18,.1-.44,.22-.62,.32,3.48-1.35,7.14-2.71,10.77-3.33Zm-8.63,14c.25-.29,.59-.68,.84-1.07,0,0,.09-.1,.17-.2-.09,0-.18,.01-.27,.11-.09,0-.08,.1-.18,.1-.25,.38-.59,.78-.93,1.17-.34,.3-.6,.59-.85,.89,0,.09-.14,.65-.14,.65,.42-.58,.93-1.17,1.35-1.65Zm-.71,5.46q-.09,0-.18,.01h.18Zm2.4-4.95c.09-.1,.08-.19,.08-.19-.25,.38-.59,.78-.93,1.17-.25,.29-.59,.68-.84,1.07,.26-.2,.44-.31,.71-.33,.08-.19,.16-.29,.24-.48,.25-.38,.5-.77,.83-1.16-.18,.01-.1-.08-.1-.08Zm-.46,3.79c-.09,0-.18,.01-.18,.01,.09,0,.18-.01,.18-.01Zm1.35,2.2l.5,.51-.5-.51Zm9.62-23.42c-.27,.02-.37,.03-.55,.04,.27-.02,.55-.04,.55-.04Zm6.37,4.41c-.27,.02-.64,.05-.91,.06-.24,.48-.4,.85-.64,1.33h.18c.1,.07,.11,.25-.06,.45,0,.09-.08,.1-.17,.2,.42-.49,.76-.88,1.19-1.37,.16-.29,.33-.48,.41-.67Zm.39-3.6c-.18,.1-.17,.2-.16,.29q.08-.1,.16-.29Zm.4-.85c.09,0,.1,.08,.19,.08-.09,0-.1-.08-.19-.08Zm.72,1.14c.18-.01,.27-.02,.46-.03,0-.09,.08-.19,.16-.29-.09,0-.18,.01-.27,.02,0,0-.09,0-.18,.01q-.1-.08-.19-.08,0,.09,.1,.08c0,.09-.08,.19-.07,.28Zm.36,2.45c-.08,.1-.08,.19-.07,.28,0-.09-.01-.18,.07-.28Zm.64-10.41l.08-.19-.08,.19Z"/><path class="j" d="M129.76,10.89c.46-.03,.57,.33,.34,.98-.39,1.04-1.74,2.6-3.06,3.43,.09,0,.18-.01,.27-.02-.34,.39-.68,.69-1.04,.9,.27-.11,.53-.31,.7-.51-1.12,1-2.26,1.81-3.32,2.34-.08,.1-.26,.2-.44,.31-.25,.29-.61,.5-.78,.61-1.37,1.29-2.67,2.39-3.9,3.21-.43,.4-.86,.79-1.3,1.1,.09-.1,.18-.1,.35-.21-.34,.39-.61,.41-.96,.71,.09,0,.18-.01,.28,.07-1.73,1.5-3.43,3.36-5.17,4.68,0,.09-.08,.1-.17,.2-.5,.77-.99,1.54-1.76,2.33,.25-.29,.51-.5,.77-.79-1.06,1.82-4.6,4.91-6.39,5.59-3.07,3.24-6.14,6.49-9.12,9.82-.08,.19-.25,.29-.34,.3-.1-.08-.01-.18,.16-.38,2.03-2.44,4.15-4.88,6.27-7.23-1.88,1.88-3.86,3.76-5.83,5.73-.17,.2-.42,.49-.68,.78-.26,.2-.51,.5-.77,.7-2.48,2.56-4.79,4.92-7.16,7.66-.93,1.07-1.78,2.05-2.62,3.12,1.17,1.02,2.53,2.11,3.54,3.33,.77,.5,1.43,.81,2.03,1.41-.2-.17-.4-.43-.59-.6,.57,.33,1.06,.66,1.55,1.17,1.37,1.19,2.58,2.84,2.94,3.92,2.55,2.39,5.02,4.78,7.58,7.26,.1,.09,.2,.26,.12,.36,0,0-.09,0-.29-.16-1.86-1.61-3.72-3.31-5.58-5.01,1.39,1.55,2.88,3.1,4.37,4.73l.59,.51c.2,.26,.31,.44,.51,.7,3.47,3.7,6.94,7.3,10.49,10.9,1.18,1.2,2.36,2.31,3.47,3.61,.5,.61,1.09,1.2,1.6,1.9,.5,.61,1.01,1.3,1.52,2.09,.2,.17,.31,.44,.32,.62,.1,.18,.12,.36,.03,.37,0,.09-.08,.1-.27,.02-.1-.08-.4-.52-.4-.52-.61-.78-1.2-1.47-1.8-2.16-.59-.6-1.19-1.29-1.79-1.98-1.19-1.29-2.38-2.49-3.57-3.78-2.38-2.58-4.76-5.07-7.16-7.84-.59-.51-1.09-1.11-1.58-1.63-.08,.1-.18,.1-.37,.03,.6,.69,1.19,1.29,1.7,1.99,3.15,2.99,5.75,6.01,8.11,9.6,1.39,1.55,2.79,3.1,4.19,4.84v.18c-1.07-1.12-2.16-2.23-3.25-3.34,.11,.27,.12,.45-.05,.55-.08,.1-.37,.03-.56-.14l.61,.78c.1,.18,.12,.36,.12,.36-.09,.1-.27,.02-.38-.16-.81-1.13-1.71-2.17-2.52-3.21-1.19-1.29-2.29-2.5-3.38-3.7,.02,.27,.03,.46,.04,.64,.1,.18,.3,.35,.5,.61,2.56,2.48,4.86,5.16,7.16,7.93,.31,.44,.71,.96,1.02,1.49,.4,.52,.71,.96,1.03,1.58,.1,.08,.1,.18,.1,.18q-.09,0-.19-.08c-.73-1.23-1.56-2.64-2.55-3.67-.09,0-.19-.08-.2-.17-1.62-2.18-3.41-4.16-5.29-6.04,1.6,1.9,3.2,3.81,4.62,5.72,.2,.26,.4,.43,.59,.6,0,.09,.1,.18,.1,.18,0,0-.09,0-.18,.01,0-.09-.1-.18-.1-.18,.21,.35,.33,.71,.15,.82-.09,.1-.47-.15-.77-.5-.81-1.04-1.61-1.99-2.42-3.04l-.29-.26c-.1-.08-.2-.17-.29-.25,1.12,1.57,2.33,3.14,3.46,4.8,.1,.18,.11,.27,.03,.37,0,0-.19-.08-.29-.16-2.3-2.68-4.59-5.27-6.97-7.85-.96-.66-1.93-1.42-2.9-2.09,.1,.09,.2,.26,.3,.35,1.2,1.47,2.48,2.67,3.85,3.85,1.28,1.19,2.55,2.39,3.75,3.77,0,.09,.1,.18,.01,.18,0,.09,0,0-.1-.09-1.99-2.15-4.55-4.72-6.88-6.57,1.89,2.07,3.85,3.94,5.74,6.01,.1,.09,.1,.18,.2,.26,.29,.26,.59,.51,.88,.76,.09,0,.1,.08,.1,.18-.38-.25-.68-.5-.88-.76l-.38-.16c-2.06-1.87-4.04-3.93-6.1-5.89h-.18c-.19-.07-.48-.32-.78-.66l-.2-.26c-.71-.96-1.52-2-2.32-2.95-.2-.17-.39-.34-.59-.6-.87-.67-1.75-1.34-2.62-2.01q0,.09,.01,.18c-.09,0-.37-.07-.57-.33-.1-.09-.2-.17-.29-.26,.29,.26,.59,.6,.8,.95q.1,.08,.1,.18c.3,.35,.69,.69,.99,1.03,2.96,3,5.91,5.72,8.85,8.45,0,0,.1,.08,.1,.18-2.12-1.5-4.13-2.64-6.28-4.5-2.54-2.2-5.07-4.32-7.61-6.52-3.17-3.35-6.87-6.3-10.55-9.15-.88-.76-1.85-1.52-2.72-2.19-.39-.34-.78-.68-1.26-1.01-.37,1.22-.74,2.44-1.12,3.66-.08,.1-.08,.19-.17,.2,0,0,0-.09,.08-.19,.37-1.31,.74-2.53,1.11-3.75-.19-.08-.38-.25-.49-.42-.37,1.22-.66,2.34-.94,3.55-.16,.38-.22,.75-.29,1.03-.07,.37-.14,.65-.2,1.02-.23,.66-.37,1.31-.5,1.96-.37,1.22-.65,2.52-1.01,3.92-.5,1.96-1.01,3.83-1.44,5.6-.3,.94-.6,1.88-.91,2.72-.3,.94-.6,1.88-.99,2.82-.15,.47-.4,.85-.58,.87-.18,.01-.22-.44-.07-.91,.3-.94,.59-1.97,.89-2.91,.14-.56,.29-1.03,.44-1.5l.44-1.5c.29-1.03,.5-1.96,.8-2.99,.15-.47,.3-.94,.45-1.41l.13-.74c.07-.28,.14-.56,.22-.75,.93-3.73,1.94-7.47,3.06-11.13,0,0-.1-.08-.19-.08,0,0-.08,.1-.17,.19-.33,1.77-.75,3.63-1.37,5.32-.26,1.58-1.03,3.56-1.76,4.99-.07,.28-.15,.47-.31,.76-.08,.19-.16,.38-.23,.66-.25,.38-.4,.85-.64,1.33-.45,1.41-.89,2.91-1.25,4.4-.16,.29-.23,.66-.3,.94-.23,.57-.38,1.13-.61,1.79,0,.09-.08,.19-.08,.19-.09,0-.1-.09-.11-.18,.22-.84,.43-1.68,.65-2.52s.43-1.68,.65-2.52c-.17,.2-.34,.3-.44,.22-.19-.08-.2-.26-.23-.63l-.38,1.13c-.08,.19-.25,.39-.25,.39-.1-.09-.11-.27-.03-.46,.53-1.6,1.06-3.1,1.6-4.61,.5-1.96,1.01-3.83,1.61-5.71-.16,.29-.43,.4-.52,.5-.16,.29-.23,.57-.31,.85-.54,2.7-1.27,5.41-2.18,8.04-.13,.74-.36,1.4-.59,2.06-.08,.19-.07,.37-.15,.47l-.23,.57c-.07,.28-.23,.66-.3,.94-.45,1.41-1,2.73-1.55,4.05,0,.09-.08,.19-.08,.19-.1-.08-.01-.18-.02-.27,.62-1.6,1.24-3.2,1.77-4.8,0,.09-.09,.1-.09,0,0-.09,.08-.19,.16-.29,.32-.66,.53-1.5,.76-2.25,.22-.75,.44-1.5,.66-2.25,.22-.75,.45-1.5,.67-2.25,.22-.75,.44-1.59,.57-2.33l-1.27,4.12c-.54,1.41-.99,2.82-1.45,4.14-.07,.28-.14,.65-.21,.93-.09,.1-.08,.19-.17,.2-.01-.18,.07-.28,.07-.37-.24,.47-.49,.86-.68,.78-.19-.08-.14-.63,.11-1.11,.07-.37,.22-.75,.29-1.12,.16-.38,.23-.66,.39-1.04,.22-.75,.44-1.5,.67-2.16l.15-.47c.08-.19,.07-.37,.05-.55-.38,1.13-.76,2.25-1.23,3.3l-.61,1.69c-.24,.47-.48,1.04-.71,1.61-.08,.19-.16,.29-.25,.29,0,0-.01-.18,.07-.37,.15-.47,.29-1.03,.44-1.5,.07-.28,.15-.47,.22-.75,.08-.19,.15-.47,.22-.75,.3-.94,.59-1.97,.8-2.99,.15-.47,.3-.94,.44-1.5l.22-.75c.08-.19,.15-.47,.22-.75,.3-.94,.59-1.97,.89-3,.18-1.39,.26-2.77,.44-4.16-.08,.19-.16,.29-.15,.47-.48,.95-1.38,5.14-1.57,6.26-.07,.28-.05,.55-.13,.74-.07,.28-.14,.56-.22,.84-.06,.46-.2,1.02-.35,1.49-.2,1.02-.5,2.05-.79,3.08,0,.09-.08,.19-.17,.2,0,0,0-.09,.08-.19,.29-1.03,.5-2.05,.7-2.98,.14-.56,.2-1.02,.35-1.49,.07-.28,.14-.56,.22-.84-.01-.18,.06-.46,.13-.74,.34-1.67,.77-3.36,1.03-4.93-.44,1.59-.88,3.18-1.22,4.76-.22,.75-.44,1.59-.66,2.34-.21,.84-.35,1.58-.65,2.43,0,.09-.08,.19-.16,.29,.04,.55-.11,1.02-.17,1.48l-.08,.19q-.09,0-.1-.18c.16-.38,.22-.84,.28-1.21,0-.09-.01-.18-.01-.18l-.02-.27c.12-.83,.35-1.58,.47-2.42,.16-.38,.22-.75,.37-1.22-.01-.18,.07-.37,.14-.56-.02-.27,.06-.46,.14-.65,.34-1.67,.78-3.26,1.12-4.94,0,0,0-.09-.01-.18-.11-.27-.05-.73,.1-1.2l.16-.29c0-.09,.08-.1,.08-.19-.09,.1-.17,.2-.17,.2-.09,.1-.17,.2-.27,.11,0,0,.08-.1,.17-.2,.08-.1,.26-.2,.34-.39,.46-1.23,.93-2.45,1.29-3.76-.09,.1-.17,.2-.17,.2-.1-.08-.02-.27,.16-.38,0-.09,.09-.1,.08-.19,.08-.19,.15-.47,.14-.65,.19-1.21,.37-2.5,.56-3.71-.19-.08-.2-.17-.2-.26-.18,.01-.26,.2-.25,.38-.09,.1-.08,.19-.08,.19-.14,.56-.29,1.12-.43,1.68-.16,.29-.23,.66-.3,.94,0,.09-.07,.28-.06,.46-.08,.1-.07,.28-.16,.38-.14,.65-.28,1.21-.42,1.86-.29,1.12-.57,2.33-.85,3.54-.05,.55-.2,1.11-.33,1.77-.14,.56-.29,1.12-.34,1.67-.28,1.21-.48,2.33-.76,3.54,0,.09-.08,.19-.08,.19,.07-1.56,.16-2.94,.33-4.42,.04-.74,.08-1.47,.21-2.22,.04-.74,.16-1.57,.29-2.4,.59-3.34,1.18-6.68,1.85-10.13-.2-.26-.31-.53-.43-.89l.18-.1v-.09c-.31-.35-.51-.61-.53-.88l.17-.19c.08-.19,.16-.29,.34-.39,.09,0,.18-.1,.27-.11,.09,0,.18-.1,.27-.11,0-.09,.08-.19,.26-.29-.21-.35-.23-.63,.12-.83-.1-.18-.02-.27,.17-.2,.08-.1,.18-.1,.17-.2-.19-.08-.2-.17-.29-.16q-.48-.24-.86-.49c-.38-.16-.49-.42-.49-.42-.1-.08-.1-.18-.2-.26,0-.09-.01-.18-.02-.27q0-.09,.08-.19-.29-.16-.38-.25c-.1-.08-.1-.18-.1-.18l.16-.29h.18c.18-.03,.37-.04,.37,.05,.2,.17,.29,.25,.3,.35l.29,.16v-.18l.18,.17-.2-.17q.48,.24,.76,.31c.19,.08,.38,.16,.47,.15v-.09c0,.09,.09,.08,.09,.08,.09,0,.09-.1,.08-.19-.19-.08-.29-.16-.48-.24-.27,.02-1.13-.47-1.33-.64-.19-.08-.29-.25-.21-.35-.01-.18-.12-.36,.15-.47,.09,0,.27-.11,.36-.12,.19,.08,.37,.07,.55,.05,.19,.08,.46,.06,.65,.14q.09,0,.19,.08l-.2-.17c-.58-.42-.97-.76-1.08-1.02,0-.09,.07-.28,.16-.38,.09,0,.18-.01,.27-.11,.09,0,.27-.02,.37-.03,.18-.01,.27-.02,.46-.03,.19,.08,.37,.07,.56,.14,.09,0,.18-.01,.18-.01,.15-.47,.21-.93,.35-1.49,.06-.46,.2-1.02,.26-1.49,.14-.56,.2-1.11,.25-1.67,.36-1.4,.63-2.8,.9-4.19,.26-1.49,.53-2.88,.8-4.18,.07-.37,.13-.74,.29-1.12l.2-1.02c.27-1.39,.53-2.79,.8-4.18,.14-.65,.36-1.4,.5-2.05,.31-2.13,1.19-3.93,1.91-4.08,.45-.12,.77,.5,.83,1.41,.08-.19,.16-.38,.14-.56l.22-.75c.16-.38,.31-.76,.47-1.04,.07-.28,.24-.57,.4-.76l.42-.49c.68-.69,1.43-1.84,2.12-2.35l.2,.17,.09-.1c.24-.48,.5-.77,.77-.79l.19,.08c.29,.16,.58,.42,.8,.86,.1,.08,.19,.08,.29,.25,.17-.2,.34-.3,.53-.31,.09,0,.28,.07,.38,.25,.08-.19,.17-.2,.19,.08l.02,.27,.17-.2c.08-.19,.16-.38,.16-.38q.15-.47,.3-.94c.16-.38,.32-.66,.32-.66q.53-.31,.72-.23c.17-.2,.16-.29,.25-.38q.18-.1,.26-.2l.2,.26c.03,.37,.03,.46,.04,.55l-.34,.39v.18l-.06,.28,.16-.29q-.23,.57-.22,.84c-.07,.28-.06,.46-.06,.46q-.14,.65-.28,1.21l-.17,.2c.1,.08,.01,.18,.02,.27,0,.09-.08,.19-.07,.37,.01,.18,.02,.27,.03,.37-.08,.19-.06,.46,0,1.28-.08,.19-.16,.38-.15,.47,.5-.77,.72-1.52,.85-2.17,.07-.28,.14-.56,.31-.85,0-.09-.01-.18-.11-.27q.08-.1,.07-.28s-.09,.1-.08,.19c-.23,.57-.47,1.13-.7,1.7q-.08,.19-.18,.1c0-.09-.02-.27,.06-.46,.22-.75,.53-1.6,.74-2.44-.01-.18,.07-.37,.05-.55,.13-.74,.46-1.22,.74-1.15,.09,0,.36-.12,.46,.06,.12,.36,.16,1,.12,1.73l.08-.19c.31-.76,.65-1.15,.93-1.17,.27-.02,.47,.24,.6,.69,.02,.27,.04,.55,.07,.91,.03,.37-.04,.74-.01,1.1-.07,.37-.13,.74-.29,1.12-.07,.37-.22,.75-.38,1.13,.09-.1,.18-.1,.17-.2-.06,.46-.21,.84-.37,1.22,.17-.2,.24-.48,.4-.76-.23,.66-.46,1.32-.69,1.88-.33,.57-.56,1.14-.8,1.62-.08,.1-.16,.29-.24,.48-.07,.28-.14,.65-.31,.85-.43,1.68-.97,3.1-1.53,4.33-.14,.56-.29,1.03-.53,1.51,.08-.1,.17-.2,.25-.29-.16,.38-.33,.57-.48,.95,.09,0,.18-.01,.27-.11-.29,1.03-.58,2.15-.87,3.18-.2,1.02-.5,2.05-.89,3-.09,0-.09,.1-.08,.19-.06,.46-.03,.83-.09,1.29-.06,.46-.12,.93-.18,1.39,.07-.28,.14-.65,.3-.94-.06,.46-.11,1.02-.26,1.49,1.43-1.75,2.87-3.5,4.39-5.35,3.24-3.44,6.12-6.76,9.35-10.38,4.24-4.88,8.5-9.41,12.94-14.03,1.02-1.08,2.65-2.66,4.2-2.77,.38,.16,.34,.89-.15,1.75,.09-.1,.26-.29,.43-.4l.69-.6c.69-.6,1.3-1.01,1.75-1.22l.72-.23c.99-.25,2.32-.9,3.23-.96l.02,.27,.18-.1c.44-.22,.71-.33,.98-.35,0,0,.09,0,.18-.01l.11,.27c.2,.26,.23,.63,.08,1.19,.1,.08,.1,.18,.12,.36,.09,0,.18-.01,.27-.02,.37-.03,.55,.05,.58,.42,.18-.1,.27-.02,.11,.27q-.08,.1-.17,.2c.09,0,.18-.01,.36-.12,.18-.1,.26-.2,.26-.2q.43-.4,.87-.7c.35-.3,.61-.41,.61-.41q.73-.05,.84,.22c.27-.11,.26-.2,.35-.21,.08-.1,.18-.1,.18-.1q.1,.08,.19,.08l.02,.27v.18c-.16,.2-.24,.29-.24,.29l-.63,.23-.18,.1-.08,.19,.27-.11c-.44,.31-.69,.6-1.03,.99q-.51,.49-1.03,.99c-.18,.1-.25,.29-.34,.3-.09,.1-.17,.2-.26,.29-.08,.19-.16,.29-.25,.29-.07,.28-.23,.57-.74,1.24-.18,.1-.35,.21-.43,.4,0-.09,.08-.1,.18-.1,.09-.1,.1,.08,.1,.08,.87-.7,1.73-1.41,2.59-2.2,0-.09,.08-.19,.07-.28q.09,0,.17-.2c0,.09-.09,.1-.17,.2-.53,.31-1.05,.72-1.57,1.12-.18,.1-.27,.11-.27,.02,.09-.1,.16-.29,.34-.39,.69-.6,1.38-1.2,2.16-1.8,.08-.19,.25-.29,.33-.48,.43-.4,.87-.7,1.14-.72,.09,0,.18-.01,.19,.08,.1,.08,.37,.07,.39,.34-.16,.38-.48,1.04-.99,1.63l.18-.1c.52-.4,.96-.62,1.24-.64Zm-61.08,72.19c0-.09,.08-.19,.16-.29,0,.09,.01,.18-.16,.29Zm.65-33.51q.37-.03,.66,.23c0,.09-.09,.1-.37-.07q-.2-.17-.29-.16Zm.84,5.35c-.09,0-.27,.11-.35,.21v.09c.09-.1,.27-.2,.35-.3Zm.65-3.81l-.2-.17,.2,.17Zm10.46,4.03c-.1-.18-.11-.27-.21-.35,.01,.18,.11,.27,.21,.35Zm1.53-1.76c-.26,.2-.53,.22-.72,.23-.17,.2-.35,.3-.52,.5,.1,.08,.2,.26,.3,.35,.34-.39,.59-.68,.93-1.07Zm-.72-3.71c.09-.1,.17-.2,.16-.29,0,.09-.08,.1-.16,.29Zm.67-2.16c.69-.6,1.38-1.29,2.07-1.89,.16-.29,.41-.67,.67-.96,.83-1.16,1.68-2.23,2.6-3.39q-.09,0-.18,.01c0-.09,.16-.38,.41-.67,.08-.19,.26-.29,.42-.49-.43,.4-.86,.79-1.29,1.19l-.17,.2c-.43,.4-.85,.89-1.28,1.37-.69,.69-1.37,1.38-1.96,2.16-.39,1.04-.87,1.9-1.29,2.47Zm.93-29.59l-.59-.6,.59,.6Zm8.29,28.94c-.1-.08-.02-.27-.03-.37-.77,.79-1.54,1.58-2.4,2.37-1.94,2.34-3.98,4.68-6.29,6.96,.09,0,.1,.08,.2,.17,2.21-2.45,4.25-4.7,6.47-7.06,.78-.7,1.46-1.39,2.05-2.07Zm-6.54-26.22c.08-.19,.17-.2,.17-.2-.09,0-.09,.1-.17,.2Zm.2,6.68c-.08,.19-.07,.28-.07,.37,.22-.84,.52-1.78,.73-2.62,.31-.76,.52-1.69,.74-2.44-.24,.47-.5,.77-.75,1.06,.03,.36-.05,.65-.12,.92-.21,.93-.43,1.68-.65,2.52,.18-.1,.1,.08,.1,.18Zm8.86,18.9c0,.09,.01,.18-.08,.19-2.57,2.57-5.05,5.03-7.62,7.6-.09,0-.18,.1-.18,.1,0-.09,.08-.19,.16-.29,2.48-2.47,4.96-5.03,7.54-7.5,.09-.1,.18-.1,.18-.1Zm-7.06-19.4c-.22,.75-.44,1.59-.65,2.43q.09-.1,.08-.19c-.07,.28-.15,.47-.23,.66,.09-.1,.17-.2,.34-.39,0-.09,.08-.19,.07-.28,.3-.94,.52-1.78,.82-2.72,.23-.66,.46-1.32,.69-1.97-.03-.37-.05-.73,.01-1.1-.16,.38-.22,.84-.37,1.22-.22,.84-.44,1.59-.75,2.35Zm-.13-9.53q.09-.1,.08-.19l-.08,.19Zm1.18-1.46c.08-.1,.17-.2,.16-.29,.03,.37-.05,.55-.14,.65-.09,0-.1-.08-.03-.37Zm13.25,57.56c1.8,2.07,3.6,4.24,5.5,6.49q-.09,0-.19-.08c-1.8-2.16-3.6-4.24-5.4-6.31-.1-.08-.1-.18-.1-.18q.09,0,.19,.08Zm10.92,18.21c-.09,0-.19-.08-.2-.17,.18-.01,.19,.08,.2,.17Zm10.89-75.23c-.95,.89-1.98,1.88-3.02,2.69-.69,.6-1.29,1.19-1.98,1.79-.08,.1-.25,.29-.43,.4,.09,0,.27-.11,.44-.22,.09,0,.18-.1,.35-.21,1.28-1.28,2.67-2.39,4.06-3.5,.16-.29,.41-.67,.57-.96Zm-5.14,2.47c1.28-1.28,2.84-2.59,4.22-3.78-.44,.22-.8,.42-1.24,.55-.16,.29-.42,.49-.68,.78-.68,.69-1.38,1.29-1.97,1.97,.09,0-.08,.1-.08,.19-.08,.1-.17,.2-.25,.29Zm4.1-10.74l.24,.81-.15-.81h-.09Zm.02,4.22c.18-.1,.27-.11,.27-.11-.09,0-.18,.1-.27,.11Zm3.62-2q.09-.1,.18-.1l-.18,.1Zm.56,1.43c0,.09-.09,.1-.17,.2,0,0,.08-.1,.17-.2Zm1.32-2.11c.09,0,.27-.11,.35-.21q-.08,.1-.08,.19c-.17,.2-.35,.3-.52,.4,0-.09-.01-.18,.25-.38Z"/><path class="m" d="M119.25,82.42c0-.09-.02-.27,.07-.28,0-.09,.09-.1,.09,0,.08-.19,.16-.38,.14-.56l.23-.66c.16-.38,.22-.75,.37-1.22,.22-.75,.53-1.6,.75-2.35,.07-.37,.22-.84,.37-1.22,.07-.37,.22-.75,.28-1.21v-.18l-.78,2.16c-.45,1.41-.99,2.91-1.53,4.33-.07,.28-.14,.65-.21,.93-.09,.1-.08,.19-.16,.29v-.18c-.26,.39-.42,.67-.61,.59-.2-.17-.14-.63,.1-1.2,.31-.76,.44-1.5,.76-2.26,.22-.75,.53-1.5,.76-2.25l.14-.56c-.01-.18,.07-.37,.06-.46-.47,1.13-.85,2.26-1.32,3.39-.23,.66-.46,1.22-.7,1.79l-.71,1.7c-.08,.19-.16,.29-.25,.29,0,0-.01-.18,.07-.37,.14-.56,.29-1.03,.44-1.59l.22-.75c.07-.28,.14-.56,.22-.75,.38-1.13,.67-2.16,.97-3.19,.68-2.07,1.17-4.21,1.85-6.27,.04-.74,.17-1.48,.21-2.21,.13-.74,.17-1.48,.3-2.22l-.24,.57-.43,1.68c-.14,.56-.29,1.03-.44,1.59-.29,1.12-.49,2.14-.78,3.26-.05,.55-.2,1.11-.35,1.58-.05,.55-.2,1.11-.34,1.67-.29,1.03-.58,2.15-.87,3.27l-.17,.2-.02-.27c.29-1.03,.59-2.06,.87-3.18,.06-.46,.2-1.02,.35-1.58,.08-.19,.15-.47,.22-.75-.02-.27,.05-.55,.12-.83,.42-1.77,.85-3.55,1.19-5.22-.52,1.69-.95,3.37-1.38,5.05l-.28,1.21c-.15,.47-.21,.84-.37,1.22-.22,.84-.43,1.68-.74,2.53,.01,.18-.07,.28-.15,.47l-.18,1.39c-.09,.1-.08,.19-.17,.2,0,.09-.09,0,0-.09,.06-.46,.21-.93,.18-1.3,.08-.1,.08-.19,.08-.19l-.02-.27c.22-.84,.34-1.67,.56-2.52,.15-.47,.21-.93,.37-1.31,.06-.46,.12-.83,.27-1.3,.42-1.77,.85-3.45,1.28-5.23,0,0-.1-.08-.1-.18-.02-.27,.04-.74,.19-1.21l.16-.38c.53-1.5,1.07-3.01,1.61-4.42-.01-.18,.07-.37,.05-.55,.08-.19,.07-.37,.14-.56,.18-1.3,.45-2.69,.72-3.99-.09,0-.18,.1-.18,.01-.09,0-.12-.36-.05-.73-.16,.38-.23,.66-.38,1.04q0,.09-.08,.19l-.43,1.68c-.23,.66-.37,1.31-.5,1.96-.23,.66-.37,1.22-.51,1.87-.27,1.3-.65,2.52-.93,3.73-.18,1.3-.55,2.51-.74,3.72l-.84,3.64c.07-1.56,.16-2.94,.33-4.42,.07-.37,.04-.74,.1-1.11,.07-.37,.12-.83,.19-1.2,.03-.83,.16-1.66,.37-2.5,.41-2.05,.72-4.09,1.12-6.22l.61-3.07c.14-.56,.29-1.03,.35-1.58,.14-.56,.2-1.02,.35-1.58,.29-1.12,.58-2.15,.78-3.17,.14-.56,.29-1.12,.44-1.59,.05-.55,.2-1.11,.35-1.58,.4-2.14,.89-4.28,1.37-6.61,1.22-6.05,2.56-11.74,3.88-17.61,.14-.56,.29-1.12,.44-1.59,.14-.56,.29-1.03,.54-1.41,.31-.76,.74-1.24,1.19-1.37,.46-.03,.68,.59,.75,1.51,.08-.19,.07-.37,.15-.47l.31-.85c.21-.84,.53-1.5,.87-1.9l1.53-1.76c.33-.48,.76-.88,1.11-1.18l.2,.17,.08-.1c.24-.48,.5-.77,.76-.88l.29,.16c.29,.16,.49,.42,.71,.96,.09,0,.19,.08,.29,.16,.17-.2,.35-.3,.53-.31,.09,0,.28,.07,.38,.25,.08-.19,.18-.1,.2,.17l.02,.27q.09-.1,.16-.29c.08-.19,.16-.29,.16-.29q.14-.56,.29-1.03c.16-.38,.41-.67,.41-.67q.53-.31,.72-.23v.09q.16-.38,.25-.48c.08-.1,.08-.19,.08-.19q.19,.08,.18-.01h.09l.11,.26,.04,.64c-.07,.28-.15,.47-.23,.66-.09,0-.1-.18,.07-.37,.08-.19,.07-.28,.16-.38l-.43,.4,.1,.18q-.14,.65-.22,.84c-.07,.28-.05,.55-.05,.55q-.14,.65-.37,1.31l-.08,.1c0,.09,.01,.18-.07,.37,0,.09-.08,.19-.07,.28l.03,.46c-.08,.19-.05,.55-.09,1.29-.08,.19-.07,.28-.06,.46,.08-.1,.09,0,.18-.1,.23-.66,.45-1.41,.76-2.16l.21-.84-.02-.27s0,.09-.08,.1v-.09l-.71,1.7c-.08,.19-.17,.2-.18,.1,0-.09-.02-.27,.06-.46,.31-.85,.52-1.69,.83-2.53-.01-.18,.06-.46,.14-.65,.13-.74,.46-1.22,.65-1.15,.18-.01,.45-.12,.55,.05,.12,.45,.16,1,.12,1.64,.31-.76,.74-1.15,1.02-1.17,.18-.01,.38,.25,.51,.7,.11,.27,.13,.54,.07,.91,.03,.36-.04,.74-.1,1.2-.28,1.21-.57,2.33-.95,3.46,.16-.29,.24-.48,.4-.76-.22,.75-.46,1.32-.78,1.89-.23,.66-.56,1.14-.8,1.71-.08,.1-.16,.29-.25,.38-.06,.46-.22,.75-.3,.94q-.08,.1-.08,.19c-.44,1.59-1.06,3.1-1.62,4.33-.14,.56-.38,1.13-.62,1.6l.26-.29c-.16,.38-.33,.57-.48,.95l.27-.02c-.29,1.03-.58,2.15-.96,3.28-.29,1.03-.58,2.15-.97,3.09-.08,.1-.08,.19-.08,.19-.14,.65-.17,1.48-.21,2.22,0-.09,.07-.28,.16-.38l-.2,1.11c-.06,.46-.12,.83-.28,1.21-.2,1.02-.58,2.15-1.06,3.1-.14,.56-.39,.94-.64,1.33-.16,.38-.4,.76-.66,.96-.2,1.11-.49,2.14-.69,3.17l-.79,3.08c-.58,2.15-1.08,4.2-1.57,6.26-.08,.19-.16,.38-.25,.38-.09,0-.1-.08-.03-.36,.13-.74,.26-1.49,.48-2.23,.13-.74,.35-1.49,.48-2.23,.35-1.58,.7-3.08,1.05-4.57-.24,.57-.37,1.22-.6,1.88-.14,.56-.37,1.22-.6,1.88-.37,1.22-.74,2.53-1.11,3.75-.07,.37-.14,.65-.29,1.03-.07,.37-.14,.65-.3,.94-.43,1.68-.96,3.28-1.4,4.87-.08,.19-.07,.37-.14,.56-.07,.28-.15,.47-.14,.65-.16,.38-.31,.85-.37,1.22-.22,.84-.44,1.59-.65,2.52-.23,.66-.36,1.4-.59,2.06-.13,.74-.36,1.4-.5,2.05-.36,1.4-.72,2.71-1.08,4.2-.08,.19-.15,.47-.22,.75,.01,.18-.06,.46-.13,.74l-.45,1.41c-.2,1.02-.5,1.96-.8,2.99l-.9,2.81c-.3,.94-.69,1.97-.99,2.91-.24,.57-.48,.95-.67,.96-.18,.01-.21-.44,.03-.92,.29-1.03,.58-2.15,.88-3.18,.15-.47,.29-1.03,.53-1.5,.5-2.05,1.08-4.11,1.67-6.17l.22-.84c.07-.28,.15-.47,.22-.75,.29-1.03,.59-2.06,.87-3.18,.15-.47,.29-1.03,.44-1.5l.22-.84c.08-.19,.15-.47,.22-.75,.29-1.03,.58-2.15,.87-3.18,.23-.57,.39-1.04,.53-1.6,.14-.56,.29-1.03,.44-1.59,.3-.94,.6-1.88,.91-2.72h-.09c-.1-.08-.2-.16-.21-.35-.29,1.03-.68,2.07-.97,3.1-.14,.65-.35,1.58-.57,2.24-.13,.74-.35,1.49-.48,2.24l-.67,2.25c-.07,.37-.22,.75-.38,1.13-.07,.37-.22,.75-.38,1.13-.39,1.04-.78,1.98-1.17,2.93-.15,.47-.39,.94-.54,1.41-.24,.48-.48,.95-.63,1.42-.37,1.22-.74,2.53-1.11,3.75-.16,.29-.23,.66-.3,.94l-.3,.94c-.23,.66-.37,1.22-.6,1.88,0,.09-.08,.19-.17,.2v-.09c.2-.93,.51-1.78,.72-2.71,.22-.84,.42-1.77,.63-2.7-.16,.29-.34,.39-.44,.31-.19-.08-.21-.35-.23-.72l-.37,1.22c-.07,.28-.25,.39-.34,.39-.09,0-.02-.27,.06-.46,.31-.85,.53-1.6,.84-2.44l.61-1.79c.07-.28,.15-.47,.23-.66,.59-1.97,1.1-3.93,1.69-5.9-.17,.2-.34,.39-.52,.4-.07,.37-.23,.66-.3,.94-.36,1.4-.72,2.8-1.07,4.29l-.29,1.03c-.07,.37-.22,.75-.29,1.03-.22,.75-.45,1.41-.67,2.16-.22,.75-.45,1.41-.67,2.16l-.29,1.03c-.16,.38-.31,.76-.38,1.04l-1.62,4.24c0,.09-.08,.19-.08,.19-.09,0-.1-.09-.01-.18,.61-1.69,1.32-3.39,1.84-5.08Zm.21-.93c0-.09,.09-.1,.09,0,0,.09-.08,.19-.16,.29,0-.09-.01-.18,.07-.28Zm7.85-13.39s0-.09,.08-.19l3.15-9.85c0-.09,.08-.19,.08-.1,.09,0,0,.09,.01,.18-.52,1.69-1.05,3.28-1.58,4.88-.52,1.69-1.05,3.28-1.57,4.97-.09,.1-.08,.19-.18,.1Zm10.28-45.02c.18-.1,.1,.08,.1,.18,.31-.85,.53-1.6,.75-2.35,.31-.85,.52-1.78,.83-2.53-.25,.38-.5,.77-.75,1.06-.07,.37-.14,.65-.2,1.02-.15,.47-.22,.84-.37,1.31-.06,.46-.22,.84-.37,1.31Zm1.35,2.29c0-.09,.08-.19,.16-.38,.21-.93,.51-1.87,.91-2.72,.22-.75,.45-1.41,.67-2.16,.07-.37,.04-.74,.01-1.1-.28,1.3-.74,2.53-1.2,3.75-.22,.75-.44,1.59-.65,2.43v-.09c-.09,.19-.16,.47-.24,.66v.09c.09-.19,.26-.29,.34-.48Zm2.1-11.7v-.18q-.1,.1-.09,.19v.09s0-.09,.09-.1Z"/><path class="l" d="M186.08,71.81q-.2-.17-.29-.25c-.09,0-.2-.17-.38-.25-.1-.09-.2-.17-.29-.26-.28-.07-.38-.16-.38-.16q-.29-.16-.38-.25c-.09,0-.19-.08-.28-.07-.48-.24-1.32-.55-1.87-.51-.46-.06-.83-.12-1.3-.18-.83-.03-1.56-.07-2.29-.02-1.47,.01-2.83,.11-4.2,.21-2.83,.2-5.57,.4-8.39,.6-.65-.05-1.28,0-1.83,.04,.01,.18-.07,.28-.16,.38,.73-.05,1.37-.1,2.1-.06,1.36-.19,2.72-.47,4.09-.57,2.01-.14,3.86,.09,5.81,.5,1.73-.12,3.47-.15,5.23,.09,.09,0,.19,.08,.19,.08,.1,.08,0,.09-.09,.1-.64-.05-1.28,0-1.93-.05-.64,.05-1.28,.09-1.83,.13,.19,.08,.29,.25,.21,.35,.01,.18-.16,.29-.43,.4,.28,.07,.55,.05,.83,.03,.19,.08,.29,.16,.29,.16,0,.09-.08,.19-.27,.11-1.1-.01-2.21-.12-3.31-.13-1.28,.09-2.56,.18-3.83,.27,.19,.08,.29,.16,.39,.34,.18-.01,.37-.03,.55-.04,.91-.16,1.82-.22,2.82-.29,1.83-.13,3.75-.18,5.69,.05,.47,.15,.93,.21,1.49,.35,.09,0,.19,.08,.19,.08,.09,0,.19,.08,.28,.07,0,0,.1,.09,.19,.08q.19,.08,.29,.16l.1,.09c.19,.08,.2,.17,.29,.16q.2,.17,.3,.35l.1,.08v.09c.22,.35,.22,.44,.22,.44,.01,.18,.02,.27,.03,.46,0,.09,.01,.18,.01,.18-.08,.1-.08,.19-.16,.29-.09,0,0,0,0-.09q0-.09-.01-.18s0-.09,.08-.19c-.02-.27-.03-.37-.03-.46q-.1-.08-.1-.18t-.1-.18c-.4-.52-.5-.61-.5-.61q-.1-.08-.19-.08l-.29-.16c-.19-.08-.38-.16-.57-.23-.1-.09-.28-.07-.47-.15-.56-.14-1.2-.19-1.75-.15-.09,0-.18,.01-.19-.08-.09,0-.1-.08,0-.09-1.11-.1-2.12-.12-3.21-.05-.55-.05-1.1-.01-1.56,.02-.55,.04-1,.07-1.54,.2,1.92-.14,3.85,0,5.79,.23,.18-.01,.37-.03,.64-.04,0,.09-.09,.1-.18,.1,.37,.07,.66,.23,.58,.42,0,.09-.17,.2-.44,.22-.09,0-.18,.01-.27,.02-1.01-.02-2.03-.13-2.95-.16l-.36,.03c-.09,0-.18,.1-.36,.12,1.56,.07,3.05,.33,4.63,.59,.1,.08,.19,.08,.2,.17s-.18,.1-.27,.11c-.65-.05-1.29-.09-2.02-.04-.64-.05-1.28,0-2.02-.04-1.28,.09-2.65,.19-4.02,.19-.89,.34-1.79,.68-2.69,.92,.1,.09,.28,.07,.37,.07,1.46-.1,2.82-.29,4.18-.57,1-.16,1.91-.23,2.82-.29,.46-.03,.82-.06,1.38,0-2.55,.27-5.01,.45-7.44,1.08,1.09-.08,2.18-.25,3.28-.32,.64-.04,1.37-.1,2.1-.15,.37-.03,.64-.05,1-.07,.09,0,.18-.01,.28,.07,.27-.11,.63-.23,.9-.25-.26,.2-.53,.22-.71,.33q-.09,0-.19-.08,0,.09-.08,.19c-2.09,.33-4.27,.49-6.45,.82-.26,.2-.53,.31-.89,.34l-.28-.07c-.92-.03-1.84-.05-2.85-.07-.18,.1-.45,.12-.63,.14-.81,.24-1.62,.48-2.42,.81,.01,.18-.16,.29-.35,.3-.18,.01-.27,.02-.37,.03,.27-.02,.64-.05,1.1,.01,.37-.03,.73-.05,1.09-.17,3.28-.32,6.26-.9,9.25-1.39,.09,0,.18-.01,.18-.01-1.78,.77-3.73,1.64-5.64,1.96-2.52,.64-4.96,1.18-7.57,1.82-2.64,.28-5.07,.91-7.68,1.64-1.8,.5-3.51,.98-5.12,1.46-.63,.14-1.26,.37-1.88,.59-.14,.56-.29,1.12-.43,1.68-.15,.47-.38,1.04-.53,1.5-.14,.56-.29,1.12-.53,1.6,.01,.18-.07,.28-.15,.47,0,.09-.08,.19-.07,.37-.16,.29-.24,.48-.31,.76-.23,.57-.57,1.05-.75,1.06-.18,.01-.12-.45,.02-1.01,.68-2.07,1.27-4.12,1.85-6.18-.45,.12-.89,.34-1.25,.45-.07,.28-.15,.47-.23,.66-.22,.75-.45,1.41-.59,2.06-.08,.1-.08,.19-.16,.29,0,0-.1-.08-.01-.18,.06-.46,.21-.93,.36-1.4,.07-.28,.14-.56,.13-.74,.08-.19,.16-.38,.14-.56-.09,.1-.18,.1-.27,.11-.44,.22-.89,.34-1.26,.37-.07,.28-.14,.56-.22,.84-.16,.38-.31,.76-.47,1.13l-.14,.56c-.39,.94-.78,1.89-1.08,2.92l-.17,.2c-.09,0-.01-.18-.02-.27,.4-.85,.7-1.79,1.09-2.74,.31-.85,.61-1.79,.91-2.63-.09,0-.18,.01-.18,.01-.18,.01-.27,.02-.37-.07-.16,.29-.33,.48-.43,.4-.09,0-.11-.27-.13-.54,0-.09-.1-.18-.2-.26,0,0-.1-.09-.1-.18-.16,.38-.31,.85-.46,1.23-.08,.19-.25,.38-.25,.38-.09,0-.11-.27-.03-.46,.23-.66,.45-1.41,.68-2.07-.18,.01-.27,.02-.45,.12-.09,0-.18,.01-.36,.03-.27,.02-.55,.04-.74-.04l-.46-.06c-.66-.32-1.49-.35-2.06-.59l-.2-.26c-.09,0-.18,.01-.27,.02-.27,.02-.46-.06-.56-.14l-.1-.18c-.21-.35-.23-.63-.16-1-.1-.09-.1-.18-.12-.36-.37-.07-.66-.23-.68-.59-.18,.01-.19-.08-.11-.27,.09,0,.08-.1,.18-.1-.09,0-.19-.08-.28-.07-.18,.1-.27,.11-.27,.11-.18,.1-.26,.2-.35,.21,0,.09-.53,.31-.62,.32-.08,.1-.18,.1-.18,.1q-.56-.14-.66-.32c-.27,.02-.27,.11-.36,.12h-.18q-.2-.25-.21-.34c.16-.29,.25-.29,.25-.38,.27-.02,.37-.03,.46-.03l.08-.19c.18-.1,.26-.2,.35-.3q.09,0,.18-.1c.18-.1,.26-.2,.35-.3,.18-.1,.26-.2,.35-.3,.09,0,.27-.11,.44-.22q.09,0,.18-.01c0-.09,.08-.1,.17-.2,.09,0,.35-.21,.34-.3,.09-.1,.17-.2,.26-.29,.18-.1,.26-.2,.52-.4,.08-.1,.27-.11,.35-.21-.18,.01-.19-.08-.28-.07-.72,.23-1.43,.56-2.13,.98-.08,.1-.18,.1-.26,.2,.54-.13,.99-.26,1.43-.47,.18-.01,.27-.02,.19,.08,0,.09-.08,.19-.26,.2-.53,.31-1.15,.63-1.76,1.04-.09,.1-.26,.2-.35,.3-.34,.3-.7,.42-.89,.43-.09,0-.18,.01-.28-.07-.1-.08-.37-.07-.3-.35,.07-.37,.39-.94,.82-1.34q-.09,0-.18,.1c-.45,.12-.81,.24-1.08,.26-.09,0-.18,.01-.27,.02-.09,0-.2-.17-.2-.26-.01-.18-.03-.37,.14-.65,.3-.94,2.04-2.25,3.03-2.51q-.09,0-.19-.08c.18-.1,.36-.12,.53-.22,.09-.1,.27-.11,.44-.21-.27,.11-.45,.12-.72,.23,1.15-.54,2.15-.7,3.43-.79,.18-.1,.36-.12,.54-.13h.18c.09-.02,.09-.11,.18-.12,1.08-.26,2.16-.52,3.26-.6,.09,0,.27-.02,.36-.12,.05-.65,.18-1.39,.22-2.03-.03-.46,.03-.83,.09-1.29,.07-.37,.03-.83,.09-1.29,.07-.37,.12-.83,.18-1.3,.06-.46,.12-.93,.18-1.39,.78-4.46,1.48-8.91,2.25-13.55,1.14-4.66,1.82-9.21,2.67-14.04,.5-3.34,1.09-6.59,1.69-9.75,.5-3.25,1.1-6.41,1.7-9.66,.38-2.41,1.23-4.58,1.96-4.72,.45-.12,.77,.5,.85,1.59,.07-.28,.06-.46,.14-.65l.21-.93c.31-.85,.53-1.6,.87-1.99l.41-.67c.68-.78,1.41-2.12,2.1-2.72l.2,.17,.09-.1c.33-.57,.57-.96,.85-.98l.19,.08c.29,.16,.59,.51,.71,.96,.18-.01,.28,.07,.29,.25,.17-.2,.34-.39,.52-.4,.18-.01,.28,.07,.38,.25,.17-.2,.27-.11,.29,.16,0,.09,.01,.18,.02,.27q.08-.1,.16-.29c.08-.19,.16-.38,.16-.38l.29-1.12c.15-.47,.32-.66,.32-.66,.34-.3,.43-.4,.52-.4q.09,0,.19,.08c.26-.29,.25-.38,.24-.48,.09-.1,.08-.19,.08-.19h.18c.2,.25,.19,.16,.2,.25,.03,.37,.03,.46,.04,.55l-.33,.48v.18l-.05,.37,.16-.38q-.22,.75-.21,.93c-.07,.37-.05,.55-.05,.64q-.14,.65-.27,1.39c-.09,0-.08,.1-.18,.1,0,.09,.02,.27,.03,.37-.08,.19-.07,.28-.07,.37,.02,.27,.03,.36-.06,.46,.02,.27,.04,.55,.01,1.47,.01,.18-.07,.37-.06,.46,.08-.19,.18-.01,.18-.1,.39-1.04,.67-2.16,.95-3.37,0-.09-.01-.18-.11-.27q.09-.1,.07-.28s-.08,.1-.08,.19l-.68,1.97c-.08,.19-.16,.29-.17,.2-.01-.18-.03-.37,.05-.55,.21-.93,.51-1.87,.72-2.8-.02-.27,.06-.46,.05-.64,.22-.84,.45-1.5,.73-1.34,.18-.01,.35-.21,.46,.06,.21,.44,.26,1.08,.14,1.92l.08-.19c.4-.85,.73-1.34,1.01-1.35,.18-.01,.38,.25,.51,.7,.27,1.17,.05,3.3-.58,4.81,.09,0,.18-.1,.18-.1-.06,.46-.21,.93-.36,1.4,.16-.29,.23-.66,.39-.95-.44,1.59-.99,2.91-1.55,4.05,0,.09-.07,.28-.15,.47-.06,.46-.22,.84-.29,1.03-.51,1.87-1.02,3.65-1.57,4.97-.14,.65-.28,1.3-.52,1.78,.08-.1,.17-.2,.25-.38-.15,.47-.31,.76-.47,1.13,.09,0,.18-.01,.27-.11-.37,1.22-.56,2.42-.84,3.64-.28,1.21-.57,2.33-.95,3.46,0,.09-.09,.1-.08,.19-.02,1.01-.13,2.03-.33,3.14,.16-.38,.22-.75,.29-1.12-.03,.83-.16,1.66-.28,2.5-.35,1.58-1.31,4.77-2.23,6.03-.96,4.56-1.92,9.12-2.88,13.68-.08,.19-.16,.38-.25,.38-.08,.1-.1-.08-.03-.37,.12-.83,.25-1.67,.46-2.51,.13-.74,.26-1.58,.47-2.42,.25-1.67,.59-3.34,.93-5.02-.72,2.71-1.44,5.51-2.16,8.31-.14,.65-.35,1.49-.58,2.15-.85,3.54-1.8,7-2.64,10.64-.12,.83-.26,1.58-.48,2.23,.27-.02,.46-.03,.73-.05,1.1-.08,2.38,.01,3.05,.33,2.71-.56,5.44-.94,8.16-1.31,.18-.1,.27-.02,.28,.07,.09,0,0,.09-.18,.1-1.9,.41-3.88,.83-5.87,1.24,.81-.15,1.64-.21,2.55-.27l2.46-.18c.27-.02,.46-.03,.73-.05h.18c.09-.02,.27-.03,.46-.05,1.09-.17,2.18-.25,3.19-.32,2.92-.21,5.83-.6,8.74-.9,1.37-.1,2.74-.19,4.11-.2,1.2,.1,2.31,.2,3.41,.31,.09,0,.28,.07,.37,.07l.19,.08h.09l.1,.08h.18l.38,.14h.09c.1,.08,.19,.07,.29,.16,.57,.24,1.24,.65,1.73,1.07q.1,.18,.11,.27c.09,0,.19,.08,.2,.17,.1,.09,.1,.18,.2,.26,.1,.18,.11,.27,.11,.27q0,.09-.19-.08Zm-53.35,8c-.09,0-.18,.1-.27,.11,.17-.2,.35-.3,.43-.4,.1,.09,.01,.18-.16,.29Zm1.17-1.55s0-.09,.08-.19q0,.09-.08,.19Zm.38,1.44h0Zm7.29-5.75c-.09,0-.18,.01-.37-.07-.09,0-.18,.01-.27,.02-1.17,.36-2.34,.62-3.51,.98-.18,.1-.44,.31-.61,.5,.89-.34,1.79-.68,2.69-.83,.54-.13,1.07-.35,1.71-.49,0,0,.18-.1,.36-.12Zm-4.39,5.26h0Zm.06,3.48c-.11-.27-.13-.54-.23-.72,.1,.18,.12,.45,.14,.72h.09Zm3.64-6.87c-.63,.14-1.17,.27-1.8,.49-.63,.14-1.25,.46-1.79,.59,.18-.01,.37-.03,.55-.04,.19,.08,.28,.07,.46,.06,.18-.1,.35-.21,.62-.32,.53-.22,1.17-.36,1.7-.58-.1-.09,0-.09,.09-.1q.08-.1,.18-.1Zm4.75-14.55c.04-.65,.18-1.39,.31-2.13,.04-.74,.17-1.48,.3-2.22-.09,.1-.18,.1-.18,.1-.1-.08-.12-.45-.06-.82,.08-.19,.16-.38,.14-.56-.14,.56-.29,1.12-.52,1.69q0,.09-.08,.19c-.14,.65-.28,1.3-.42,1.86-1.04,4.66-1.92,9.12-2.8,13.49l.27-.02c-.09,0-.19-.08-.28-.07,.18-.01,.37-.03,.55-.04,.29-1.12,.48-2.33,.76-3.45,0-.09-.1-.08-.1-.18-.03-.37,.03-.83,.18-1.39l.16-.38c.31-.85,.53-1.6,.74-2.44,.31-.85,.53-1.6,.83-2.44-.03-.37,.04-.74,.19-1.2Zm-1.44,8.08c-.29,1.03-.58,2.15-.78,3.17q.09,0,.18-.1c0-.09,.08-.19,.07-.28,.21-.93,.33-1.86,.54-2.79Zm.85-2.17c-.08,.19-.16,.38-.14,.56-.37,1.31-.65,2.52-.93,3.64-.07,.37-.13,.74-.2,1.02,.27-.02,.45-.12,.72-.14,0-.09,.08-.19,.07-.28,.16-1.57,.32-3.23,.48-4.8Zm2.34,3.32c-.25,.29-.42,.49-.6,.59-.08,.19-.15,.47-.22,.75,.18-.01,.27-.02,.46-.03,.15-.47,.22-.84,.37-1.31Zm2.22,.3c.64-2.61,1.27-5.32,2-7.94,.15-.47,.29-1.03,.35-1.49,.14-.56,.29-1.03,.44-1.5-.18,.01-.29-.16-.3-.35-.14,.56-.29,1.12-.43,1.68-.14,.56-.38,1.13-.52,1.69-.25,1.67-.59,3.25-1.03,4.84-.12,.83-.34,1.67-.55,2.52-.08,.19-.16,.38-.23,.57,.09,0,.18-.01,.27-.02Zm4.68-12.8s.01,.18-.07,.28c-.94,3.55-1.96,7.2-2.99,10.76l-.17,.2s0-.09-.02-.27c1.12-3.56,2.06-7.21,3.09-10.76,.08-.1,.08-.19,.17-.2Zm4.17-48.53l-.59-.6,.59,.6Zm1.68,3c.18-.1,.26-.2,.26-.2-.08,.1-.17,.2-.26,.2Zm.2,8.05c.29-1.03,.5-1.96,.8-2.99,.21-.93,.41-1.95,.72-2.8-.24,.48-.49,.86-.74,1.24-.07,.37-.13,.74-.2,1.11-.21,.93-.42,1.86-.63,2.8,.18-.1,.1,.18,.11,.27-.08,.1-.07,.28-.07,.37Zm1.85-1.05c-.21,.84-.42,1.77-.63,2.7,0,.09-.07,.37-.14,.56,.08-.1,.17-.2,.34-.39,0-.09,.07-.28,.07-.37,.41-1.95,1.02-3.65,1.54-5.43-.03-.37-.06-.82-.09-1.28-.26,1.49-.62,2.89-1.08,4.2Zm-.13-10.9c.09,0,.09-.1,.09-.1l-.09,.1Zm7.42,60.63c.09,0,.19,.08,.1,.09-2.29,.07-4.48,.13-6.86,.21,0-.09,.08-.1,.18-.1,2.2-.06,4.39-.13,6.59-.19Zm-6.25-62.27c.08-.1,.17-.2,.16-.38,.03,.37,.04,.55-.12,.83-.09,0-.1-.18-.03-.46Zm.09,2.65l.02,.27-.02-.27Zm.06-3.03c.09,0,.08-.1,.08-.1,0,0,0,.09-.08,.1Zm16.07,66.25s-.09,0-.2-.17c.09,0,.18-.01,.2,.17Z"/><path class="o" d="M228.14,68.83q-.2-.17-.29-.25c-.09,0-.2-.17-.38-.25-.1-.08-.2-.17-.29-.25-.28-.07-.38-.16-.38-.16q-.29-.16-.38-.25c-.09,0-.19-.08-.28-.07-.48-.24-1.32-.55-1.87-.51-.46-.06-.83-.12-1.3-.18-.83-.03-1.56-.07-2.29-.02-1.47,.01-2.83,.11-4.2,.21-2.83,.2-5.57,.39-8.39,.6-.64-.05-1.28,0-1.83,.04,.01,.18-.07,.28-.16,.38,.73-.05,1.37-.1,2.1-.06,1.36-.19,2.72-.47,4.09-.57,2.01-.14,3.86,.09,5.81,.5,1.73-.12,3.47-.15,5.23,.09,.09,0,.19,.08,.19,.08,.1,.09,0,.09-.09,.1-.64-.05-1.28,0-1.93-.05-.64,.04-1.28,.09-1.83,.13,.19,.08,.29,.26,.21,.35,.01,.18-.16,.29-.43,.4,.28,.07,.55,.05,.83,.03,.19,.08,.29,.16,.29,.16,0,.09-.08,.19-.27,.11-1.1-.01-2.21-.12-3.31-.13-1.28,.09-2.55,.18-3.83,.27,.19,.08,.29,.16,.39,.34,.18-.01,.37-.03,.55-.04,.91-.16,1.82-.22,2.82-.29,1.83-.13,3.75-.18,5.69,.05,.47,.15,.93,.21,1.49,.35,.09,0,.19,.08,.19,.08,.09,0,.19,.08,.28,.07,0,0,.1,.09,.19,.08q.19,.08,.29,.16l.1,.09c.19,.08,.2,.17,.29,.16q.2,.17,.3,.35l.1,.08v.09c.21,.35,.22,.44,.22,.44,.01,.18,.02,.27,.03,.46,0,.09,.01,.18,.01,.18-.08,.1-.08,.19-.16,.29-.09,0,0,0,0-.09q0-.09-.01-.18s0-.09,.08-.19c-.02-.27-.03-.37-.03-.46q-.1-.09-.1-.18t-.1-.18c-.4-.52-.5-.61-.5-.61q-.1-.08-.19-.08l-.29-.16c-.19-.08-.38-.16-.57-.23-.1-.09-.28-.07-.47-.15-.56-.14-1.2-.19-1.75-.15-.09,0-.18,.01-.19-.08-.09,0-.1-.08,0-.09-1.11-.1-2.12-.12-3.21-.05-.55-.05-1.1-.01-1.56,.02-.55,.04-1,.07-1.54,.2,1.92-.14,3.85,0,5.79,.23,.18-.01,.37-.03,.64-.05,0,.09-.09,.1-.18,.1,.37,.07,.66,.23,.58,.42,0,.09-.17,.2-.44,.21-.09,0-.18,.01-.27,.02-1.01-.02-2.03-.13-2.94-.16l-.37,.03c-.09,0-.18,.1-.36,.12,1.56,.07,3.05,.33,4.63,.59,.1,.09,.19,.08,.2,.17s-.18,.1-.27,.11c-.64-.05-1.29-.09-2.02-.04-.64-.05-1.28,0-2.02-.04-1.28,.09-2.65,.19-4.02,.19-.89,.34-1.79,.68-2.68,.92,.1,.09,.28,.07,.37,.07,1.46-.1,2.82-.29,4.18-.57,1-.16,1.91-.23,2.82-.29,.46-.03,.82-.06,1.38,0-2.55,.27-5.01,.45-7.44,1.08,1.09-.08,2.18-.25,3.28-.32,.64-.05,1.37-.1,2.1-.15,.37-.03,.64-.05,1-.07,.09,0,.18-.01,.28,.07,.27-.11,.63-.23,.9-.25-.26,.2-.53,.22-.71,.33q-.09,0-.19-.08,0,.09-.08,.19c-2.09,.33-4.27,.49-6.45,.82-.26,.2-.53,.31-.89,.34l-.28-.07c-.92-.03-1.84-.05-2.85-.07-.18,.1-.45,.12-.63,.14-.81,.24-1.62,.48-2.42,.81,.01,.18-.16,.29-.35,.3-.18,.01-.27,.02-.37,.03,.27-.02,.64-.05,1.1,.01,.37-.03,.73-.05,1.09-.17,3.28-.32,6.26-.9,9.25-1.39h.18c-1.78,.75-3.73,1.63-5.64,1.95-2.52,.64-4.96,1.18-7.57,1.82-2.64,.28-5.07,.91-7.68,1.65-1.8,.49-3.51,.98-5.12,1.46-.63,.14-1.26,.37-1.88,.59l-.43,1.68c-.15,.47-.38,1.04-.53,1.5-.14,.56-.29,1.12-.53,1.6,.01,.18-.07,.28-.15,.47,0,.09-.08,.19-.07,.37-.16,.29-.24,.47-.31,.76-.23,.57-.57,1.05-.75,1.06-.18,.01-.12-.45,.02-1.01,.68-2.07,1.27-4.12,1.85-6.18-.45,.12-.89,.34-1.25,.46-.07,.28-.15,.47-.23,.66-.22,.75-.45,1.41-.59,2.06-.09,.1-.08,.19-.16,.29,0,0-.1-.08-.01-.18,.06-.46,.21-.93,.36-1.4,.07-.28,.14-.56,.13-.74,.08-.19,.16-.38,.14-.56-.09,.1-.18,.1-.27,.11-.44,.22-.89,.34-1.26,.37-.07,.28-.14,.56-.22,.84-.16,.38-.31,.76-.47,1.13l-.14,.56c-.39,.94-.78,1.89-1.08,2.92-.09,.1-.17,.2-.17,.2-.09,0-.01-.18-.02-.27,.4-.85,.7-1.79,1.09-2.74,.31-.85,.61-1.79,.91-2.63-.09,0-.18,.01-.18,.01-.18,.01-.27,.02-.37-.07-.16,.29-.33,.48-.43,.4-.09,0-.11-.27-.13-.54,0-.09-.1-.18-.2-.26,0,0-.1-.08-.1-.18-.16,.38-.31,.85-.46,1.22-.08,.19-.25,.38-.25,.38-.09,0-.11-.27-.03-.46,.23-.66,.45-1.41,.68-2.07-.18,.01-.27,.02-.45,.12-.09,0-.18,.01-.37,.03-.27,.02-.55,.04-.74-.04l-.46-.06c-.66-.32-1.49-.35-2.06-.59l-.2-.26c-.09,0-.18,.01-.27,.02-.27,.02-.46-.06-.56-.14l-.1-.18c-.21-.35-.23-.62-.16-1-.1-.09-.1-.18-.12-.36-.37-.07-.66-.23-.69-.59-.18,.01-.19-.08-.11-.27,.09,0,.08-.1,.18-.1-.09,0-.19-.08-.28-.07-.18,.1-.27,.11-.27,.11-.18,.1-.26,.2-.35,.21,0,.09-.53,.31-.62,.32-.08,.1-.18,.1-.18,.1q-.56-.14-.66-.32c-.27,.02-.27,.11-.36,.12h-.18q-.2-.25-.21-.34c.16-.29,.25-.29,.25-.39,.27-.02,.37-.03,.46-.03l.08-.19c.18-.1,.26-.2,.35-.3q.09,0,.18-.1c.18-.1,.26-.2,.34-.3,.18-.1,.26-.2,.35-.3,.09,0,.27-.11,.44-.21h.18c0-.1,.08-.11,.17-.21,.09,0,.35-.21,.35-.3,.08-.1,.17-.2,.25-.29,.18-.1,.26-.2,.52-.4,.09-.1,.27-.11,.35-.21-.18,.01-.19-.08-.28-.07-.72,.23-1.43,.56-2.13,.98-.08,.1-.18,.1-.26,.2,.54-.13,.99-.25,1.43-.47,.18-.01,.27-.02,.19,.08,0,.09-.08,.19-.26,.2-.53,.31-1.15,.63-1.76,1.04-.08,.1-.26,.2-.35,.3-.34,.3-.7,.42-.89,.43-.09,0-.18,.01-.28-.07-.1-.08-.37-.07-.3-.34,.07-.37,.39-.95,.82-1.34q-.09,0-.18,.1c-.45,.12-.81,.24-1.08,.26-.09,0-.18,.01-.27,.02-.09,0-.2-.17-.2-.26-.01-.18-.03-.37,.14-.65,.3-.94,2.04-2.25,3.03-2.51q-.09,0-.19-.08c.18-.1,.36-.12,.53-.22,.09-.1,.27-.11,.44-.21-.27,.11-.45,.12-.72,.23,1.15-.54,2.15-.7,3.43-.79,.18-.1,.36-.12,.54-.13q.09,0,.18-.01c.09,0,.09-.1,.18-.1,1.08-.26,2.16-.52,3.26-.6,.09,0,.27-.02,.36-.12,.05-.65,.18-1.39,.22-2.03-.03-.46,.03-.83,.09-1.29,.07-.37,.03-.83,.09-1.29,.07-.37,.12-.83,.18-1.3s.12-.93,.18-1.39c.78-4.46,1.48-8.91,2.25-13.55,1.14-4.67,1.82-9.21,2.67-14.04,.5-3.34,1.09-6.59,1.69-9.75,.5-3.25,1.1-6.41,1.7-9.66,.38-2.41,1.23-4.58,1.96-4.72,.45-.12,.77,.5,.85,1.59,.07-.28,.06-.46,.14-.65l.21-.93c.31-.85,.53-1.6,.87-1.99l.41-.67c.68-.78,1.41-2.12,2.1-2.72l.2,.17,.09-.1c.33-.57,.57-.96,.85-.98l.19,.08c.29,.16,.59,.51,.71,.96,.18-.01,.28,.07,.29,.25,.17-.2,.34-.39,.52-.4,.18-.01,.28,.07,.38,.25,.17-.2,.27-.11,.29,.16,0,.09,.01,.18,.02,.27q.08-.1,.16-.29c.08-.19,.16-.38,.16-.38q.14-.56,.29-1.12c.15-.47,.32-.66,.32-.66,.35-.3,.43-.4,.52-.4q.09,0,.19,.08c.26-.29,.25-.38,.24-.48,.09-.1,.08-.19,.08-.19h.18c.2,.25,.2,.16,.2,.25,.03,.37,.03,.46,.04,.55l-.33,.48v.18l-.05,.37,.16-.38q-.22,.75-.21,.93c-.07,.37-.05,.55-.05,.65q-.14,.65-.27,1.39c-.09,0-.08,.1-.18,.1,0,.09,.02,.27,.03,.37-.08,.19-.07,.28-.07,.37,.02,.27,.03,.37-.06,.46,.02,.27,.04,.55,.01,1.47,.01,.18-.07,.37-.06,.46,.08-.19,.18-.01,.18-.1,.38-1.04,.67-2.16,.95-3.37,0-.09-.01-.18-.11-.27q.09-.1,.07-.28s-.08,.1-.08,.19c-.23,.66-.46,1.32-.69,1.97-.08,.19-.16,.29-.17,.2-.01-.18-.03-.37,.05-.55,.21-.93,.51-1.87,.72-2.8-.02-.27,.06-.46,.04-.65,.22-.84,.45-1.5,.73-1.34,.18-.01,.35-.21,.46,.06,.21,.44,.26,1.08,.14,1.92l.08-.19c.4-.85,.73-1.34,1.01-1.36,.18-.01,.38,.25,.51,.7,.27,1.17,.05,3.3-.58,4.81,.09,0,.18-.1,.18-.1-.06,.46-.21,.93-.36,1.4,.16-.29,.23-.66,.39-.95-.44,1.59-.99,2.91-1.55,4.05,0,.09-.07,.28-.15,.47-.06,.46-.22,.84-.29,1.03-.51,1.87-1.03,3.65-1.57,4.97-.14,.65-.28,1.3-.52,1.78,.08-.1,.17-.2,.25-.38-.15,.47-.31,.76-.47,1.13,.09,0,.18-.01,.27-.11-.37,1.22-.56,2.42-.84,3.64-.28,1.21-.57,2.33-.95,3.46,0,.09-.09,.1-.08,.19-.02,1.01-.13,2.03-.33,3.14,.16-.38,.22-.75,.29-1.12-.03,.83-.16,1.66-.28,2.5-.35,1.58-1.31,4.77-2.23,6.03-.96,4.56-1.92,9.12-2.88,13.68-.08,.19-.16,.38-.25,.38-.09,.1-.1-.09-.03-.37,.12-.83,.25-1.67,.46-2.51,.13-.74,.26-1.58,.47-2.42,.25-1.67,.59-3.34,.93-5.02-.72,2.71-1.44,5.51-2.16,8.31-.14,.65-.35,1.49-.58,2.15-.85,3.54-1.8,7-2.64,10.64-.12,.83-.26,1.58-.48,2.23,.27-.02,.46-.03,.73-.05,1.1-.08,2.39,.01,3.05,.33,2.71-.56,5.43-.94,8.16-1.31,.18-.1,.27-.02,.28,.07,.09,0,0,.09-.18,.1-1.9,.41-3.88,.83-5.87,1.24,.81-.15,1.64-.21,2.55-.27l2.46-.18c.27-.02,.46-.03,.73-.05h.18c.09-.02,.27-.03,.46-.05,1.09-.17,2.18-.25,3.19-.32,2.92-.21,5.83-.6,8.74-.9,1.37-.1,2.74-.19,4.11-.2,1.2,.1,2.31,.2,3.41,.31,.09,0,.28,.07,.37,.07l.19,.08h.09l.1,.08h.18l.38,.14h.09c.1,.08,.19,.07,.29,.16,.57,.24,1.24,.65,1.73,1.07q.1,.18,.11,.27c.09,0,.19,.08,.2,.17,.1,.08,.1,.18,.2,.26,.1,.18,.11,.27,.11,.27q0,.09-.19-.08Zm-53.35,8c-.09,0-.18,.1-.27,.11,.17-.2,.35-.3,.43-.4,.1,.08,.01,.18-.16,.29Zm1.17-1.55s0-.09,.08-.19q0,.09-.08,.19Zm.38,1.44h0Zm7.29-5.75c-.09,0-.18,.01-.37-.07-.09,0-.18,.01-.27,.02-1.17,.36-2.34,.63-3.51,.98-.18,.1-.44,.31-.61,.5,.89-.34,1.79-.68,2.69-.83,.54-.13,1.07-.35,1.71-.49,0,0,.18-.1,.36-.12Zm-4.39,5.26h0Zm.06,3.48c-.11-.27-.13-.54-.23-.72,.1,.18,.12,.45,.14,.72h.09Zm3.64-6.87c-.63,.14-1.17,.27-1.8,.49-.63,.14-1.25,.46-1.79,.59,.18-.01,.37-.03,.55-.04,.19,.08,.28,.07,.46,.06,.18-.1,.35-.21,.62-.32,.53-.22,1.17-.36,1.7-.58-.1-.09,0-.09,.08-.1q.08-.1,.18-.1Zm4.74-14.55c.05-.65,.18-1.39,.31-2.13,.04-.74,.17-1.48,.3-2.22-.09,.1-.18,.1-.18,.1-.1-.08-.12-.45-.06-.82,.08-.19,.16-.38,.14-.56-.14,.56-.29,1.12-.52,1.69q0,.09-.08,.19c-.14,.65-.27,1.3-.42,1.86-1.04,4.66-1.92,9.12-2.8,13.49,.09,0,.18-.01,.27-.02-.09,0-.19-.08-.28-.07,.18-.01,.37-.03,.55-.04,.29-1.12,.48-2.33,.77-3.45,0-.09-.1-.09-.1-.18-.03-.37,.03-.83,.18-1.39l.16-.38c.31-.85,.53-1.6,.74-2.44,.31-.85,.53-1.6,.84-2.44-.03-.37,.04-.74,.19-1.2Zm-1.44,8.08c-.29,1.03-.58,2.15-.78,3.17q.09,0,.18-.1c0-.09,.08-.19,.07-.28,.21-.93,.33-1.86,.54-2.79Zm.85-2.17c-.08,.19-.16,.38-.14,.56-.37,1.31-.65,2.52-.93,3.64-.07,.37-.13,.74-.2,1.02,.27-.02,.45-.12,.72-.14,0-.09,.08-.19,.07-.28,.16-1.57,.32-3.23,.49-4.8Zm2.34,3.32c-.25,.29-.42,.49-.6,.59-.08,.19-.15,.47-.22,.75,.18-.01,.27-.02,.46-.03,.15-.47,.22-.84,.37-1.31Zm2.22,.3c.64-2.61,1.27-5.32,2-7.94,.15-.47,.29-1.03,.35-1.49,.14-.56,.29-1.03,.44-1.5-.18,.01-.29-.16-.3-.35-.14,.56-.29,1.12-.43,1.68-.14,.56-.38,1.13-.52,1.69-.25,1.67-.59,3.25-1.03,4.84-.12,.83-.34,1.67-.55,2.52-.08,.19-.16,.38-.23,.57,.09,0,.18-.01,.27-.02Zm4.68-12.8s.01,.18-.07,.28c-.94,3.55-1.96,7.2-2.99,10.76-.09,.1-.17,.2-.17,.2l-.02-.27c1.12-3.56,2.06-7.21,3.09-10.76,.08-.1,.08-.19,.17-.2Zm4.17-48.53l-.59-.6,.59,.6Zm1.68,3c.18-.1,.26-.2,.26-.2-.08,.1-.17,.2-.26,.2Zm.2,8.05c.29-1.03,.5-1.96,.8-2.99,.21-.93,.41-1.96,.72-2.8-.24,.48-.49,.86-.74,1.24-.07,.37-.13,.74-.2,1.11-.21,.93-.42,1.86-.63,2.8,.18-.1,.1,.18,.11,.27-.08,.1-.07,.28-.07,.37Zm1.85-1.05c-.21,.84-.42,1.77-.63,2.7,0,.09-.07,.37-.14,.56,.08-.1,.17-.2,.34-.39,0-.09,.07-.28,.07-.37,.41-1.96,1.02-3.65,1.54-5.43-.03-.37-.06-.82-.09-1.28-.26,1.49-.62,2.89-1.08,4.2Zm-.13-10.9c.09,0,.09-.1,.09-.1l-.09,.1Zm7.42,60.63c.09,0,.19,.08,.1,.08-2.29,.07-4.48,.13-6.86,.21,0-.09,.08-.1,.18-.1,2.2-.06,4.39-.13,6.59-.19Zm-6.25-62.27c.09-.1,.17-.2,.16-.38,.03,.36,.04,.55-.12,.83-.09,0-.1-.18-.03-.46Zm.1,2.65c0,.09,.01,.18,.02,.27,0-.09-.01-.18-.02-.27Zm.06-3.03c.09,0,.08-.1,.08-.1,0,0,0,.09-.08,.1Zm16.07,66.25s-.09,0-.2-.17c.09,0,.18-.01,.2,.17Z"/><path class="n" d="M289.89,3.47h-.18c-1.45,.21-3,.41-4.54,.61,0,.09-.08,.1-.18,.1-.09,0-.1-.08,0-.09-1.55,.2-3.09,.4-4.63,.7,0,.09-.08,.19-.08,.19,1.37-.1,2.73-.29,4.01-.38,.36-.12,.63-.14,.9-.25,.09,0,.18-.01,.19,.08-.18,.1-.27,.11-.36,.12,.55-.04,.92,.03,.93,.21,.01,.18-.43,.4-.98,.44-1.27,.18-2.54,.36-3.81,.55v.18c1.74-.21,3.47-.34,5.21-.46,.18-.01,.37,.07,.38,.16,0,0-.09,.1-.27,.11-1.9,.32-3.72,.63-5.62,.95,0,.09,.01,.18-.07,.37,.18-.01,.45-.12,.72-.14q.08-.1,.18-.1c0-.09,.09-.1,.26-.2,.18-.01,.28,.07,.29,.16,.45-.12,.91-.16,1.36-.28,.09,0,.18-.01,.19,.08-.17,.2-1.26,.27-1.54,.29,0,.09,.02,.27,.03,.37,0,.09,.1,.08,.19,.08s.27-.02,.27-.02c.44-.22,.89-.34,1.26-.37,.08-.1,.18-.01,.27-.02-.53,.22-.9,.25-1.25,.46,0,0-.09,0-.18,.01,0,0,0,.09-.18,.1-.18,.1-.27,.11-.45,.12q0,.09,.01,.18t-.16,.29c0,.09-.08,.19-.07,.28-.08,.1-.08,.19-.16,.29,0,.09-.07,.28-.16,.38-.46,1.23-1.72,2.87-2.67,3.67,.09,0,.18-.1,.27-.11-.33,.48-.67,.87-1.1,1.27,.25-.29,.61-.5,.86-.79-1.28,1.37-2.39,2.46-3.53,3.28-.08,.1-.25,.29-.43,.4-.34,.39-.59,.68-.85,.89-1.44,1.66-2.81,3.04-4.02,4.04-.51,.59-.93,1.07-1.37,1.38,.09,0,.18-.1,.35-.21-.34,.39-.69,.6-1.04,.9,.09,0,.18-.01,.27-.02-1.69,1.95-3.46,4.28-5.26,5.97-.09,0-.18,.1-.26,.2-.49,.86-1.06,1.82-1.82,2.79,.25-.29,.5-.68,.85-.98-1.41,2.12-4.8,6.03-6.84,7-3.2,3.99-6.41,7.88-9.52,11.86-.17,.2-.34,.39-.43,.4-.1-.08-.02-.27,.15-.47,2.18-2.91,4.45-5.82,6.72-8.73-2.04,2.35-4.17,4.61-6.19,7.04-.26,.29-.51,.59-.76,.97-3.31,3.81-6.6,7.71-9.61,11.87,.63-.23,1.35-.37,1.98-.51,3.54-.53,6.88-1.31,10.5-1.94,2.54-.36,4.99-.72,7.45-.9,2.56-.18,5.21-.28,7.79-.09,.82-.06,4.06,.35,4.14,1.54,.12,.45-.4,.76-1.31,.92,.18-.01,.37-.03,.46,.06,.28,.07,.56,.14,.84,.22,.75,.22,1.41,.54,1.71,.89,.19,.08,.38,.25,.58,.42,.3,.34,.7,.78,1.1,1.21,.4,.43,.71,.96,.92,1.31-.08,.1-.18,.1-.26,.2l.1,.09c.4,.43,.51,.79,.53,1.06l-.26,.2c-.26,.2-.53,.22-.99,.35-.08,.1-.17,.2-.26,.2,.12,.36,.04,.64-.31,.85,.1,.18,.02,.27-.17,.2q-.09,0-.19-.08,.01,.18,.11,.27c.1,.08,.1,.18,.1,.18,.1,.08,.2,.17,.29,.25,0,0,.1,.08,.2,.17,0,.09,.02,.27,.03,.37-.07,.37-.06,.46-.14,.56,0,.09-.08,.1-.17,.2l.02,.27-.35,.3q-.09,0-.19-.08c-.01-.18,.07-.28,.07-.37q-.1-.09-.2-.17c0,.09,.01,.18,.01,.18,0-.09-.1-.18-.1-.18-.2-.17-.29-.16-.29-.16-.29-.16-.48-.33-.68-.5q-.09,0-.19-.08-.09,0-.18,.01c-.18,.01-.36,.03-.82,.06-.1-.08-.19-.08-.28-.07,.1,.09,.01,.18,.01,.18,.47,.15,.85,.4,1.14,.56,.1,.09,.2,.17,.29,.26h.18c0-.1-.1-.19-.11-.28-.2-.17-.29-.25-.49-.42-.1-.09-.1-.18-.1-.18,.09,0,.18-.01,.27-.02,.19,.08,.87,.58,.88,.76,.1,.09,.19,.08,.2,.17,.1,.08,.2,.26,.12,.36,0,.09,.02,.27-.16,.29-.09,.1-.16,.29-.35,.3-.18,.1-.36,.12-.55,.04,.03,.37-.14,.56-.31,.76-.08,.19-.35,.3-.52,.4-.17,.2-.25,.29-.25,.29,0,.09-.19-.08-.38-.25-.09,0-.28-.07-.47-.15,.1,.09,.2,.17,.29,.26-.2-.17-.48-.33-.86-.49-.29-.25-.58-.42-.87-.67-.09,0-.19-.08-.28-.07-.28-.07-.47-.15-.57-.23-1.21-.28-2.33-.48-3.18-.87-.46,.03-.83-.03-1.2-.1,.09,0,.1,.09,.19,.08-.27,.02-.47-.15-.75-.22,0,.09,.1,.18,.11,.27-1.57-.16-3.39,.06-4.87-.2-.09,0-.18,.01-.18,.01-.63,.14-1.35,.37-2.07,.51,.27-.02,.55-.04,.73-.05-.54,.13-1.08,.26-1.63,.3-1.64,.12-3.58-.02-4.52-.41-3.18,.41-6.45,.92-9.61,1.6-.18,.01-.37,.03-.37-.07,0-.09,.08-.1,.26-.2,2.26-.53,4.6-1.06,6.96-1.41-2.01,.14-4.01,.28-6.01,.61-.27,.02-.55,.04-.82,.15-.27,.02-.46,.03-.73,.05-3.08,.58-6.16,1.08-9.22,1.85-.16,.29-.41,.67-.66,1.06-1.43,1.84-2.77,3.68-4.19,5.52-.08,.19-.16,.29-.25,.38-.08,.1-.17,.2-.25,.29-.18,.1-.35,.21-.44,.21-.19-.08-.04-.55,.29-1.03,.66-.96,1.41-2.03,2.08-2.99,.75-1.06,1.5-2.12,2.17-3.09-.45,.12-.99,.25-1.62,.39-.58,.87-1.25,1.74-1.92,2.61-.08,.19-.17,.2-.16,.29-.09,0-.1-.08-.01-.18,.58-.87,1.07-1.73,1.65-2.59-.45,.12-.9,.25-1.44,.38-.18,.1-.36,.12-.63,.23-.08,.1-.08,.19-.17,.2-.5,.77-1.09,1.45-1.59,2.13-.59,.68-1.09,1.45-1.59,2.13-.08,.1-.17,.2-.17,.2-.1-.09-.01-.18,.07-.28,1-1.45,2.18-2.9,3.27-4.36-1.26,.36-2.42,.72-3.68,1.09-.72,.14-1.44,.38-2.26,.53-.72,.23-1.62,.39-2.44,.45-.09,.1-.18,.1-.27,.11-.18,.01-.27,.02-.37-.07-.27,.02-.46-.06-.47-.15-.1-.08,.09-.1,.17-.2,.18-.1,.44-.21,.63-.23,.45-.12,.9-.25,1.35-.28,1.17-.36,2.42-.81,3.6-.99,.63-.23,1.17-.36,1.8-.49,0-.09,.07-.28,.15-.47,.26-.2,.42-.49,.59-.77-1.9,.41-3.79,.91-5.68,1.41h-.18c-.1-.07,0-.08,.08-.08,1.34-.46,2.69-.92,4.03-1.3-.19-.08-.38-.25-.39-.34-.01-.18,.16-.38,.42-.49l-1,.16c-.18,.01-.37,.03-.37-.07s.17-.2,.35-.21c1.26-.27,2.63-.46,3.89-.73,.08-.1,.17-.2,.25-.29-1.17,.27-2.35,.53-3.43,.79-1.53,.47-3.51,.98-5.15,1.1-.27,.11-.63,.14-.91,.16-.18,.01-.27,.02-.46,.03l-.27,.02c-.09,0-.18,.01-.27,.02s-.27,.02-.46-.06q-.57-.33-.58-.42s.1,.09,.2,.17c.84,.22,.93,.21,1.02,.2,.27-.02,.37-.03,.46-.03,.18-.01,.37-.02,.55-.04,.36-.12,.72-.14,1.08-.26,.64-.04,1.36-.19,2.09-.33-.01-.18,.08-.19,.17-.2,2.09-.33,4.07-.84,6.05-1.35-1.73,.21-3.62,.62-5.53,.94-.27,.11-.45,.12-.72,.23h-.18c-.09,.02,0-.08,.09-.09q.09,0,.18-.1c-.09,0-.27,.02-.37,.03-.27,.02-.46-.06-.47-.15-.01-.18,.34-.39,.79-.51,1.26-.27,2.44-.54,3.71-.72l.36-.12c.09-.1,.27-.11,.35-.21-1.9,.32-3.81,.55-5.72,.86-.18,.01-.27,.02-.28-.07s.08-.19,.26-.2c2.52-.64,5.13-1.37,7.84-1.93q0-.09,.08-.19c.08-.19,.25-.39,.33-.57-1.88,.59-3.76,1.28-5.74,1.78-.09,0-.18,.01-.18,.01,0-.09,.08-.1,.18-.1,1.71-.49,3.23-1.05,4.93-1.54,.27-.11,.63-.23,.89-.34,.08-.1,.17-.2,.25-.29-1.71,.49-3.32,.97-5.03,1.46-.09,0-.27,.02-.37,.03-.35,.21-.71,.33-1.07,.44h-.18c-.1-.07,0-.08,.09-.08,.36-.12,.63-.23,.98-.44,0,0,.09,0,.18-.01-.1-.09,0-.09,.08-.19,1.79-.68,3.77-1.18,5.65-1.78,.17-.2,.34-.39,.5-.68-.99,.34-1.88,.59-2.87,.94-.09,0-.18,.1-.18,.01,1.24-.64,2.39-1.27,3.63-1.82,1.66-2.41,3.51-4.83,5.26-7.25,0,0,0-.09-.01-.18,.07-.37,.4-.85,.82-1.34l.35-.3c1.28-1.37,2.46-2.83,3.74-4.21,.26-.29,.5-.68,.75-1.06,.91-1.35,1.83-2.7,2.83-4.05-.09,.1-.18,.1-.27,.02,0-.09,.15-.47,.4-.76,.17-.2,.34-.39,.42-.49-.43,.4-.85,.89-1.28,1.37-.08,.1-.17,.2-.17,.2-.51,.59-.93,1.08-1.35,1.65-4.05,4.96-7.55,9.89-10.87,14.8-.08,.1-.16,.29-.25,.29,1.86-3.43,3.4-6.38,5.8-9.95,2.82-4.14,5.75-8.2,8.74-12.45,3.47-4.1,6.48-8.16,9.84-12.53,2.27-2.91,4.45-5.73,6.73-8.55,1.68-2.23,3.36-4.37,5.13-6.51h-.18c-3.82,.47-7.34,1.18-11.24,1.82-4.89,.9-11.33,1.81-16.17,2.16-1.64,.12-2.95-.16-3.26-.69-.21-.44,.22-.84,1.01-1.26l-.55,.04-.73,.05c-.74-.04-1.3-.18-1.77-.33l-.48-.24c-.77-.5-1.99-.87-2.66-1.37l.17-.2-.19-.08c-.47-.15-.76-.31-.86-.49l-.02-.27c.07-.37,.23-.66,.57-.96,0-.09-.01-.18,.07-.37-.29-.16-.5-.51-.24-.81-.19-.08-.2-.17-.02-.27,.09,0,.18-.1,.27-.11-.09,0-.1-.08-.28-.07-.19-.08-.28-.07-.28-.07q-.46,.03-.91,.06c-.19-.08-.37-.07-.57-.23q-.4-.43-.32-.62c-.28-.07-.29-.16-.38-.16-.15,.47-.12,.93-.1,1.2-.03-.36-.05-.73-.07-1-.01-.18-.03-.37-.03-.46q.44-.31,.53-.31l.38,.25,.36-.12-.28-.07q.55,.05,.74,.04c.27-.02,.45-.12,.45-.12q.55-.04,1.1-.08c.09,0,.1,.09,.19,.08,0,0,.09-.1,.18-.1,.18-.01,.27-.02,.37,.07,.09-.1,.18-.1,.26-.2,.27-.02,.45-.12,1.07-.35,.18-.01,.37-.03,.55,.05q-.1-.08-.19-.08c-.09,0-.01-.18-.1-.18-.55-.05-1.19,0-1.93-.05-.18,.01-.46,.03-.73,.05-.09,0-.18,.01-.27,.11,.19,.08,.37,.07,.56,.14,.27-.02,.64,.05,1.02,.11,.18-.01,.28,.07,.19,.08-.08,.1-.27,.11-.36,.12-.74-.04-1.56,.02-2.29-.02-.18,.01-.27,.02-.46,.03-.09,0-.18,.01-.27,.02-.09,0-.18,.01-.18,.01-.09,0-.28-.07-.28-.07-.19-.08-.29-.16-.29-.26-.01-.18-.12-.36-.04-.55,.09,0,.18-.1,.26-.2,.53-.22,.71-.32,.99-.34l-.19-.08c-.09,0-.27,.02-.37-.07-.09,0-.18,.01-.19-.08-.29-.16-.38-.25-.48-.33-.02-.27,.05-.55,.31-.76,.17-.2,.26-.2,.26-.2,.18-.1,.27-.11,.44-.22,.27-.02,.54-.13,.91-.16,.36-.12,.63-.14,1-.16s.73-.05,1.01,.02q-.09,0-.19-.08c.46-.03,.74,.04,1.1,.01-.19-.08-.46-.06-.74-.13,1.29,.09,2.4,.2,3.33,.41,.1,.08,.28,.07,.46,.06,.37-.03,.65,.05,.83,.12,1.55-.11,2.93-.02,4.05,.17,.18-.01,.27-.02,.46-.03,.37-.03,.64-.05,.92,.03-.1-.08-.19-.08-.29-.16,.37,.07,.65,.14,.93,.12,0,0-.1-.08-.1-.18,.46-.03,.91-.07,1.37-.1,.55-.04,1-.07,1.46-.1,1-.07,2.01-.14,2.84-.02,0,0,.09,0,.18-.01,.72-.23,1.43-.47,2.34-.62-.37,.03-.64,.05-.91,.07,.63-.14,1.26-.27,1.9-.41,1.92-.14,4.03-.1,5.07,.37,3.55-.43,7.18-.88,10.71-1.49,.18-.01,.37,.07,.37,.07,0,.09-.08,.19-.26,.2-2.53,.55-5.16,.92-7.7,1.37,2.19-.16,4.38-.31,6.56-.56,.37-.03,.64-.05,.91-.16,.27-.02,.55-.04,.82-.06,5.28-.56,10.35-1.47,15.51-2.38,3.53-.71,6.59-1.38,10.06-1.72,.09,0,.27-.02,.37-.03,.27-.02,.55,.05,.56,.14,.1,.18-.16,.38-.61,.41-7.15,1.33-14.1,2.83-21.57,3.64-.82,.06-1.64,.12-2.46,.17,.01,.18,.02,.27-.16,.38,.91-.07,1.82-.13,2.74-.19,2.53-.55,5.06-1,7.71-1.19,1.92-.14,3.57-.16,5.31-.19,2.18-.34,4.26-.67,6.53-1.01,0-.09,.09-.1,.18-.01-1.62,.48-3.15,.77-4.69,1.16,.28,.07,.47,.15,.48,.33-.09,.1-.26,.29-.52,.4l1.1-.08c.18-.01,.37-.03,.37,.07,0,.09-.17,.2-.35,.21-.91,.07-1.73,.12-2.64,.28v.18c3.09-.58,6.18-.99,9.37-1.31,.09,0,.18-.01,.19,.08Zm-73.72,68.5c0-.09,.09-.1,.18-.1-.08,.1-.18,.1-.18,.1Zm5.27,.63c-.18,.01-.27,.02-.46,.03-.34,.39-.59,.68-.93,1.07-.08,.1-.17,.2-.17,.2,.37-.03,.72-.14,1.08-.26-.01-.18,.23-.57,.47-1.04Zm.58,.42c-.17,.2-.26,.29-.42,.49,.17-.2,.25-.29,.42-.49Zm-.15-62.8c-.03-.46-.05-.73-.07-1l.07,1Zm0,0c.01,.18,.02,.27,.03,.46l-.03-.46Zm1.12,62.27c-.18,.01-.37,.03-.55,.04-.07,.28-.24,.47-.49,.86,.09,0,.18-.1,.27-.11h.18c.16-.3,.42-.5,.59-.79Zm-.38-63.52c-.1-.08-.19-.08-.28-.07,.18-.1,.27-.11,.27-.11q.09,0,.28,.07c0,.09-.08,.1-.27,.11Zm-.18,62c.09-.1,.27-.11,.45-.12,.08-.19,.16-.29,.34-.39-.18,.01-.37,.03-.45,.12-.18,.1-.26,.2-.34,.39Zm.1-2.48c.18-.01,.45-.12,.63-.14,.16-.29,.42-.58,.59-.78-.18,.01-.45,.12-.63,.14-.17,.2-.25,.38-.42,.58-.08,.1-.08,.19-.17,.2Zm.3,4.2c-.09,0-.17,.2-.26,.2,0-.09,.07-.28,.16-.29,.09-.1,.09,0,.1,.08Zm1.99-.32c-.55,.04-1.1,.08-1.64,.12-.16,.29-.33,.48-.59,.69h.18c.54-.14,1.17-.28,1.81-.42,.08-.19,.16-.29,.25-.38Zm-1.97-1.97c.18-.01,.36-.12,.45-.12-.09,0-.27,.02-.45,.12Zm.44-2.87c.18-.01,.36-.12,.53-.22,.09,0,.18-.1,.17-.2-.18,.1-.36,.12-.54,.13-.09,.1-.08,.19-.16,.29Zm.73-.05c-.25,.29-.42,.58-.67,.87,.18-.1,.27-.11,.45-.12,.16-.29,.42-.58,.67-.87-.18,.01-.36,.12-.45,.12Zm.03-57.77c-.09,0-.1-.08-.19-.08l.19,.08Zm-.18,56.95c.18-.01,.36-.12,.54-.13,.16-.29,.33-.48,.5-.77-.18,.1-.36,.12-.44,.21-.17,.2-.42,.49-.59,.68Zm.19,3.93c.18-.1,.36-.12,.54-.13,.08-.19,.25-.39,.33-.48-.09,0-.27,.02-.45,.12-.18,.1-.25,.29-.42,.49Zm.66-3.62c-.09,0-.27,.02-.45,.12-.09,0-.09,.1-.17,.2,.18-.1,.36-.12,.62-.32Zm.46-1.22c-.17,.2-.33,.48-.5,.68,.18-.01,.37-.03,.54-.13,.17-.2,.42-.49,.59-.77-.18,.1-.36,.12-.63,.23Zm.11,4.12c-.26,.2-.35,.3-.52,.5,.27-.11,.35-.3,.52-.5Zm1.53,2.18c-.46,.03-.91,.16-1.36,.19h-.18c-.09,.11-.16,.3-.25,.4,.54-.13,1.08-.26,1.62-.39,0-.09,.09-.1,.17-.2Zm-1.42-4.48h.09c.08-.2,.25-.39,.33-.58-.25,.29-.42,.49-.68,.69,.09,0,.18-.01,.27-.11Zm.16-54.57l-.4,.76h.09l.31-.76Zm-.35,51.92c.18-.1,.35-.21,.53-.22,.25-.39,.5-.77,.74-1.15,1.25-1.74,2.5-3.48,3.66-5.21-1.77,2.14-3.36,4.37-4.94,6.59Zm.1,5.31h0Zm1.5-6.07c.85-.98,1.69-2.04,2.53-3.11,.81-1.53,1.71-3.06,2.61-4.59-.17,.2-.25,.38-.42,.58-2.11,2.53-3.77,4.94-5.52,7.45,.27-.11,.53-.22,.8-.33Zm.64,2.52c-.09,0-.18,.01-.36,.12,.09,0,.18-.01,.36-.12Zm-.04-56.11c-.19-.08-.29-.16-.29-.16,.1,.08,.2,.17,.29,.16Zm7.45,59.81c-.82,.15-1.64,.21-2.45,.36-1.44,.38-2.97,.76-4.42,1.05l-.17,.2c1.54-.29,3.16-.68,4.8-.89,.72-.14,1.45-.19,2.09-.33-.01-.18,.07-.28,.16-.38Zm-6-5.72c-.26,.29-.51,.59-.67,.87,.35-.3,.51-.59,.67-.87Zm-.4,.85c.18-.01,.27-.02,.45-.12,.16-.29,.42-.58,.67-.87-.18,.01-.36,.12-.54,.13-.16,.29-.42,.58-.58,.87Zm8.06,6.31c0,.09-.09,.1-.18,.1-2.55,.27-5.18,.64-7.81,1.1,2.62-.55,5.34-1.02,7.98-1.21Zm-3.22-63.5c-.82,.06-1.55,.11-2.38,.08-.73,.05-1.55,.11-2.29,.07,.46,.06,.84,.22,1.13,.38,.27-.11,.54-.13,.81-.15,.82-.06,1.55-.11,2.28-.16-.1-.08,.09-.1,.18-.1s.18-.01,.27-.11Zm1.44-1.66c-.09,0-.28-.07-.47-.15-1.55,.11-3.12,.04-4.68-.04-.27,.11-.53,.22-.89,.34,1.19-.08,2.29-.07,3.39,.03l2.19-.15q-.09,0-.18,.01c.18-.01,.46-.03,.64-.05Zm-2.21,54.07c-.27,.11-.53,.22-.72,.23-.26,.29-.51,.59-.67,.87-.33,.48-.67,.87-.92,1.26,.18-.1,.36-.12,.63-.23,.59-.68,1.09-1.45,1.68-2.14Zm.13,3.11h-.18c-.34,.4-.68,.8-.93,1.09,.18-.01,.45-.12,.63-.23,.26-.29,.51-.59,.76-.88-.09,0-.18,.01-.27,.02Zm2.82-.38c-.46,.03-.82,.15-1.27,.18q-.09,0-.18,.01c-.26,.2-.42,.49-.69,.69,.45-.12,.9-.25,1.16-.45-.01-.18,.25-.29,.53-.31,.18-.01,.27-.02,.45-.12Zm6.72-11.21s-.01-.18,.07-.37c-.85,.98-1.69,1.95-2.54,2.93-1.85,2.33-3.61,4.75-5.55,7.09,.09,0,.18-.01,.27-.02,2.52-3.2,5.14-6.42,7.75-9.63Zm2.69-.92s0,.09-.08,.19c-2.72,3.04-5.34,6.16-7.97,9.18-.08,.1-.17,.2-.26,.2-.02-.27,7.28-8.49,8.13-9.47,.08-.1,.17-.2,.18-.1Zm16.21,17.83c.19,.08,.29,.16,.38,.16,.1,.09,.19,.08,.28,.07,1.2,.19,2.33,.48,3.36,.86,.27-.11,.54-.13,.72-.14-.75-.22-1.68-.43-2.43-.65-.65-.14-1.2-.19-1.85-.24-.09,0-.18,.01-.46-.06Zm1.45-1.48c.65,.14,1.39,.27,2.04,.41,.56,.14,1.21,.28,1.69,.52-.29-.25-.49-.42-.69-.68-.27,.02-.46,.03-.74-.04-.65-.05-1.3-.18-1.85-.24,0,.09-.09,0-.18,.01-.09,0-.18,.01-.27,.02ZM271.2,2.41c.09,0,.19,.08,.19,.08-.17,.2-7.92,.75-8.84,.81,2.82-.29,5.73-.59,8.65-.89Zm-3.31,64.51c.09,0,.1,.08,.19,.08-.09,0-.1-.08-.19-.08Zm1.8,3.36c-.19-.08-.2-.17-.2-.26q.08-.1,.1,.09c.09,0,.1,.08,.1,.18Zm5.67-55.79c-1.01,1.26-2.12,2.44-3.14,3.52-.69,.69-1.36,1.47-2.04,2.25-.09,.1-.26,.29-.52,.49,.18-.01,.36-.12,.53-.22,.09-.1,.17-.2,.25-.29,1.44-1.66,2.9-3.05,4.26-4.61,.25-.38,.4-.76,.65-1.15Zm-5.68,54.41v0Zm.25-50.81c.77-.79,1.53-1.67,2.3-2.46,.68-.78,1.44-1.66,2.13-2.35-.53,.31-.96,.62-1.32,.83-.25,.38-.5,.68-.76,.97-.67,.87-1.35,1.65-2.03,2.44,.18-.01,.01,.18-.07,.28-.08,.1-.17,.2-.25,.29Zm.52,47.37c.26-.2,.53-.31,.7-.42-.27,.11-.44,.21-.7,.42Zm3.17-60.01l.1,.08v.09l.18-.1c0-.09-.1-.08-.28-.07Zm6.35-.91c-.46,.03-.91,.06-1.27,.18-1.18,.18-2.27,.34-3.45,.52,.1,.08,.1,.18,.12,.36,1.45-.29,2.99-.58,4.6-1.06Zm-1.68,4.7c-.09,0-.27,.11-.36,.12-.43,.4-.77,.79-1.2,1.19-.18,.1-.26,.2-.27,.02,.08-.1,.16-.29,.33-.48,.18-.1,.34-.3,.42-.49-.08,.1-.18,.1-.27,.11q-.08,.1-.17,.2c-.08,.19-.16,.29-.16,.38-.16,.29-.32,.66-.81,1.52-.17,.2-.35,.3-.34,.39,.18-.1,.19,.08,.18-.01,.85-.89,1.79-1.87,2.63-2.94Zm-1.86-1.7c.08-.1,.18-.1,.17-.2,0,.09-.09,.1-.17,.2Zm3.3-2.62c-1.09,.17-2.09,.33-3.08,.58,.72-.14,1.45-.19,2.18-.34,.18-.01,.27-.11,.36-.12,.09,0,.18-.01,.19,.08q.09,0,.18-.01c.08-.1,.08-.19,.17-.2Zm-1.94,3.71c-.08,.1-.16,.29-.33,.48-.09,0-.18,.1-.18,.1,.09,0,.27-.02,.36-.12l.51-.59c-.08,.1-.18,.1-.36,.12Zm.17-1.48l-.26,.2c.09-.1,.18-.1,.26-.2Zm.66,1.51c-.09,0-.18,.1-.18,.1,0,0-.08,.1-.17,.2,.09,0,.09-.1,.17-.2q0,.09-.08,.19,.08-.1,.18-.1c0-.09-.01-.18,.08-.19Zm.2-1.02c-.08,.1-.27,.11-.45,.12,.01,.18-.08,.19-.07,.28,.09,0,.18-.01,.27-.02,.08-.1,.17-.2,.25-.38Zm.5-.68c-.18,.01-.27,.02-.46,.03,0,.09-.08,.19-.07,.28-.08,.1-.17,.2-.25,.29,.18-.01,.27-.02,.45-.12,.09-.1,.16-.29,.33-.48Zm1.15,.65c.09,0,.18-.01,.27-.02q.09-.1,.17-.2c.08-.1,.26-.2,.35-.3-.18,.01-.36,.12-.54,.13-.09,.1-.08,.19-.25,.38Zm4.25-3.42c-.09,.1-.18,.1-.27,.11-.09,0-.1-.08,0-.09s.18-.01,.27-.02Z"/></g></g></g></svg>