<?xml version="1.0" encoding="UTF-8"?><svg xmlns="http://www.w3.org/2000/svg" xmlns:xlink="http://www.w3.org/1999/xlink" viewBox="0 0 328.4 107.05"><defs><style>.e{fill:url(#d);}.f{fill:#fff;}</style><radialGradient id="d" cx="169.49" cy="143.18" fx="169.49" fy="143.18" r="215.81" gradientTransform="matrix(1, 0, 0, 1, 0, 0)" gradientUnits="userSpaceOnUse"><stop offset="0" stop-color="#f3ff7f"/><stop offset=".3" stop-color="#c1ff6f"/><stop offset=".58" stop-color="#a5ffcf"/></radialGradient></defs><g id="a"/><g id="b"><g id="c"><path class="f" d="M277.75,35.45h39.66L283.9,1.94c-1.23-1.23-2.9-1.92-4.64-1.92h-39.66l33.51,33.51c1.23,1.23,2.9,1.92,4.64,1.92Z"/><g><path class="f" d="M73.33,12.67h-3.1v4.01h3.1c1.04,0,1.34-.05,1.5-.21,.29-.27,.43-.72,.43-1.82s-.16-1.52-.43-1.76c-.19-.16-.45-.21-1.5-.21Z"/><polygon class="f" points="92.76 13.58 91.16 19.08 94.66 19.08 93.06 13.58 92.76 13.58"/><path class="f" d="M162.26,2.03c-1.27-1.27-3-1.99-4.81-1.99L1.89,0V32.03c0,1.88,1.52,3.4,3.4,3.4l190.41,.03L162.26,2.03ZM28.72,19.62c0,4.14-.53,5.4-1.55,6.42-.86,.86-1.92,1.1-4.33,1.1h-5.37c-2.41,0-3.48-.24-4.33-1.1-1.02-1.02-1.55-2.27-1.55-6.42V8.42h5.75v11.17c0,1.74,.13,2.22,.37,2.46,.21,.21,.64,.29,1.55,.29h1.79c.91,0,1.34-.08,1.55-.29,.24-.24,.37-.72,.37-2.46V8.42h5.75v11.2Zm18.04,7.51h-14.46V8.42h5.75v14.41h8.71v4.3Zm15.61-14.33h-5.61v14.33h-5.75V12.8h-5.48v-4.38h16.84v4.38Zm13.18,14.33c-.19-1.26-.27-2.54-.32-4.14-.05-1.39-.21-1.66-.51-1.92-.27-.24-.51-.35-1.68-.35h-2.81v6.42h-5.75V8.42h11.95c1.87,0,2.91,.24,3.64,.96,.83,.83,1.23,1.76,1.23,4.36,0,3.48-1.04,4.52-3.21,4.95v.05c1.87,.43,2.94,1.04,3.02,3.74,.05,1.82,.19,3.64,.29,4.65h-5.85Zm21.41,0l-1.18-4.04h-5.75l-1.15,4.04h-5.75l5.67-17.03c.48-1.42,.7-1.76,1.98-1.76h4.6c1.28,0,1.52,.37,1.98,1.76l5.67,17.03h-6.07Z"/></g><g><path class="f" d="M40.05,44.33c6.72,0,10.48,.9,12.9,3.23,3.14,3.05,5.02,7.62,5.29,18.28h-18.46c-.09-5.02-1.25-5.73-1.88-6.36-.45-.45-1.25-.72-3.94-.72h-8.06c-2.78,0-3.58,.18-4.12,.72-.81,.81-1.97,3.58-1.97,16.22s1.16,15.59,1.97,16.4c.54,.54,1.34,.72,4.12,.72h8.51c2.51,0,3.49-.18,4.03-.72,.63-.63,1.88-2.33,1.88-6.81v-.45h-13.44v-12.99h31.9v7.62c0,15.14-2.78,20.43-6.27,23.92-2.6,2.6-6.72,3.67-12.54,3.67H19.18c-6.54,0-9.95-1.16-12.37-3.58-3.67-3.58-6.81-10.48-6.81-27.78s3.14-24.19,6.81-27.78c2.42-2.42,5.82-3.58,12.37-3.58h20.88Z"/><path class="f" d="M102.87,93.52h-19.26l-3.85,13.53h-19.26l19-57.08c1.61-4.75,2.33-5.91,6.63-5.91h15.41c4.3,0,5.11,1.25,6.63,5.91l19,57.08h-20.34l-3.94-13.53Zm-15.5-13.44h11.74l-5.38-18.46h-.99l-5.38,18.46Z"/><path class="f" d="M206.27,107.05h-18.19v-37.99h-.9l-11.29,34.41c-.9,2.69-1.7,3.58-4.03,3.58h-6.45c-2.33,0-3.23-.99-4.03-3.58l-11.29-34.41h-.9v37.99h-17.65V44.33h24.01c2.78,0,3.76,.9,4.57,3.67l8.69,28.49h.81l8.15-28.49c.81-2.78,1.79-3.67,4.57-3.67h23.92v62.72Z"/><path class="f" d="M267.29,107.05h-51.25V44.33h51.25v14.52h-31.99v9.68h23.3v13.44h-23.3v10.57h31.99v14.52Z"/><path class="f" d="M323.56,104c-1.88,1.88-4.84,3.05-9.86,3.05h-25.9c-5.65,0-8.87-.72-11.11-2.96-2.6-2.6-3.85-7.17-3.85-18.19h17.65c.18,4.66,.54,5.91,.99,6.36,.54,.54,1.61,.72,4.21,.72h9.05c2.6,0,4.12-.18,4.57-.63,.54-.54,.81-1.79,.81-4.03,0-1.79-.27-3.05-.81-3.58-.45-.45-2.15-.81-4.66-1.08l-18.55-2.15c-3.94-.45-6.54-1.43-8.51-3.4-2.42-2.42-4.03-6.18-4.03-14.87,0-7.97,1.97-12.99,4.84-15.86,1.88-1.88,4.93-3.05,9.68-3.05h24.1c5.82,0,9.14,.9,11.11,2.87,2.69,2.69,4.12,6.63,4.21,17.47h-17.65c-.18-3.94-.45-5.02-.99-5.56s-1.43-.72-3.76-.72h-8.96c-2.15,0-3.23,.09-3.58,.45-.45,.45-.72,1.61-.72,3.67s.27,3.05,.81,3.58c.45,.45,1.61,.63,4.66,.99l18.73,2.15c4.3,.54,6.54,1.52,8.42,3.4,2.42,2.42,3.94,6.36,3.94,14.78s-1.97,13.71-4.84,16.58Z"/></g><path class="e" d="M212.12,35.46l48.5-.03L227.08,1.89C225.87,.68,224.22,0,222.51,0l-48.5,.03,33.54,33.54c1.21,1.21,2.86,1.89,4.57,1.89Z"/><path class="f" d="M277.75,35.45h39.66L283.9,1.94c-1.23-1.23-2.9-1.92-4.64-1.92h-39.66l33.51,33.51c1.23,1.23,2.9,1.92,4.64,1.92Z"/><g><path class="f" d="M73.33,12.67h-3.1v4.01h3.1c1.04,0,1.34-.05,1.5-.21,.29-.27,.43-.72,.43-1.82s-.16-1.52-.43-1.76c-.19-.16-.45-.21-1.5-.21Z"/><polygon class="f" points="92.76 13.58 91.16 19.08 94.66 19.08 93.06 13.58 92.76 13.58"/><path class="f" d="M162.26,2.03c-1.27-1.27-3-1.99-4.81-1.99L1.89,0V32.03c0,1.88,1.52,3.4,3.4,3.4l190.41,.03L162.26,2.03ZM28.72,19.62c0,4.14-.53,5.4-1.55,6.42-.86,.86-1.92,1.1-4.33,1.1h-5.37c-2.41,0-3.48-.24-4.33-1.1-1.02-1.02-1.55-2.27-1.55-6.42V8.42h5.75v11.17c0,1.74,.13,2.22,.37,2.46,.21,.21,.64,.29,1.55,.29h1.79c.91,0,1.34-.08,1.55-.29,.24-.24,.37-.72,.37-2.46V8.42h5.75v11.2Zm18.04,7.51h-14.46V8.42h5.75v14.41h8.71v4.3Zm15.61-14.33h-5.61v14.33h-5.75V12.8h-5.48v-4.38h16.84v4.38Zm13.18,14.33c-.19-1.26-.27-2.54-.32-4.14-.05-1.39-.21-1.66-.51-1.92-.27-.24-.51-.35-1.68-.35h-2.81v6.42h-5.75V8.42h11.95c1.87,0,2.91,.24,3.64,.96,.83,.83,1.23,1.76,1.23,4.36,0,3.48-1.04,4.52-3.21,4.95v.05c1.87,.43,2.94,1.04,3.02,3.74,.05,1.82,.19,3.64,.29,4.65h-5.85Zm21.41,0l-1.18-4.04h-5.75l-1.15,4.04h-5.75l5.67-17.03c.48-1.42,.7-1.76,1.98-1.76h4.6c1.28,0,1.52,.37,1.98,1.76l5.67,17.03h-6.07Z"/></g><g><path class="f" d="M40.05,44.33c6.72,0,10.48,.9,12.9,3.23,3.14,3.05,5.02,7.62,5.29,18.28h-18.46c-.09-5.02-1.25-5.73-1.88-6.36-.45-.45-1.25-.72-3.94-.72h-8.06c-2.78,0-3.58,.18-4.12,.72-.81,.81-1.97,3.58-1.97,16.22s1.16,15.59,1.97,16.4c.54,.54,1.34,.72,4.12,.72h8.51c2.51,0,3.49-.18,4.03-.72,.63-.63,1.88-2.33,1.88-6.81v-.45h-13.44v-12.99h31.9v7.62c0,15.14-2.78,20.43-6.27,23.92-2.6,2.6-6.72,3.67-12.54,3.67H19.18c-6.54,0-9.95-1.16-12.37-3.58-3.67-3.58-6.81-10.48-6.81-27.78s3.14-24.19,6.81-27.78c2.42-2.42,5.82-3.58,12.37-3.58h20.88Z"/><path class="f" d="M102.87,93.52h-19.26l-3.85,13.53h-19.26l19-57.08c1.61-4.75,2.33-5.91,6.63-5.91h15.41c4.3,0,5.11,1.25,6.63,5.91l19,57.08h-20.34l-3.94-13.53Zm-15.5-13.44h11.74l-5.38-18.46h-.99l-5.38,18.46Z"/><path class="f" d="M206.27,107.05h-18.19v-37.99h-.9l-11.29,34.41c-.9,2.69-1.7,3.58-4.03,3.58h-6.45c-2.33,0-3.23-.99-4.03-3.58l-11.29-34.41h-.9v37.99h-17.65V44.33h24.01c2.78,0,3.76,.9,4.57,3.67l8.69,28.49h.81l8.15-28.49c.81-2.78,1.79-3.67,4.57-3.67h23.92v62.72Z"/><path class="f" d="M267.29,107.05h-51.25V44.33h51.25v14.52h-31.99v9.68h23.3v13.44h-23.3v10.57h31.99v14.52Z"/><path class="f" d="M323.56,104c-1.88,1.88-4.84,3.05-9.86,3.05h-25.9c-5.65,0-8.87-.72-11.11-2.96-2.6-2.6-3.85-7.17-3.85-18.19h17.65c.18,4.66,.54,5.91,.99,6.36,.54,.54,1.61,.72,4.21,.72h9.05c2.6,0,4.12-.18,4.57-.63,.54-.54,.81-1.79,.81-4.03,0-1.79-.27-3.05-.81-3.58-.45-.45-2.15-.81-4.66-1.08l-18.55-2.15c-3.94-.45-6.54-1.43-8.51-3.4-2.42-2.42-4.03-6.18-4.03-14.87,0-7.97,1.97-12.99,4.84-15.86,1.88-1.88,4.93-3.05,9.68-3.05h24.1c5.82,0,9.14,.9,11.11,2.87,2.69,2.69,4.12,6.63,4.21,17.47h-17.65c-.18-3.94-.45-5.02-.99-5.56s-1.43-.72-3.76-.72h-8.96c-2.15,0-3.23,.09-3.58,.45-.45,.45-.72,1.61-.72,3.67s.27,3.05,.81,3.58c.45,.45,1.61,.63,4.66,.99l18.73,2.15c4.3,.54,6.54,1.52,8.42,3.4,2.42,2.42,3.94,6.36,3.94,14.78s-1.97,13.71-4.84,16.58Z"/></g><path class="e" d="M212.12,35.46l48.5-.03L227.08,1.89C225.87,.68,224.22,0,222.51,0l-48.5,.03,33.54,33.54c1.21,1.21,2.86,1.89,4.57,1.89Z"/></g></g></svg>