<svg xmlns="http://www.w3.org/2000/svg" viewBox="0 0 1024.2 333.9"><defs><style>.cls-1{fill:#f2f2f2;}.cls-2{fill:#b40000;}</style></defs><g id="Layer_2" data-name="Layer 2"><g id="Layer_1-2" data-name="Layer 1"><path class="cls-1" d="M866.1,110.5H989.8L885.3,6a20.51,20.51,0,0,0-14.5-6H747.1L851.6,104.5A20.43,20.43,0,0,0,866.1,110.5Z"/><path class="cls-2" d="M661.4,110.6l151.2-.1L708.1,5.9A20.12,20.12,0,0,0,693.8,0L542.6.1,647.2,104.7A19.89,19.89,0,0,0,661.4,110.6Z"/><path class="cls-1" d="M228.7,39.5H219V52h9.7c3.3,0,4.2-.2,4.7-.7.9-.8,1.3-2.3,1.3-5.7s-.5-4.8-1.3-5.5C232.7,39.7,231.9,39.5,228.7,39.5Z"/><polygon class="cls-1" points="289.2 42.3 284.2 59.5 295.2 59.5 290.2 42.3 289.2 42.3"/><path class="cls-1" d="M506,6.3A21.19,21.19,0,0,0,491,.1L5.9,0V99.9a10.54,10.54,0,0,0,10.6,10.6l593.7.1ZM89.5,61.2c0,12.9-1.7,16.8-4.8,20-2.7,2.7-6,3.4-13.5,3.4H54.4c-7.5,0-10.8-.8-13.5-3.4-3.2-3.2-4.8-7.1-4.8-20V26.3H54V61.1c0,5.4.4,6.9,1.2,7.7s2,.9,4.8.9h5.6c2.8,0,4.2-.2,4.8-.9s1.2-2.3,1.2-7.7V26.3H89.5Zm56.3,23.4H100.7V26.3h17.9V71.2h27.2V84.6Zm48.7-44.7H177V84.6H159.1V39.9H142V26.2h52.5Zm41.1,44.7a115,115,0,0,1-1-12.9c-.2-4.3-.7-5.2-1.6-6s-1.6-1.1-5.3-1.1H219v20H201.1V26.3h37.3c5.8,0,9.1.8,11.3,3,2.6,2.6,3.8,5.5,3.8,13.6,0,10.8-3.3,14.1-10,15.4v.2c5.8,1.3,9.2,3.3,9.4,11.7.2,5.7.6,11.3.9,14.5H235.6Zm66.7,0L298.6,72H280.7l-3.6,12.6H259.2l17.7-53.1c1.5-4.4,2.2-5.5,6.2-5.5h14.3c4,0,4.8,1.2,6.2,5.5l17.7,53.1Z"/><path class="cls-1" d="M124.9,138.2c21,0,32.7,2.8,40.2,10.1,9.8,9.5,15.6,23.7,16.5,57H124c-.3-15.6-3.9-17.9-5.9-19.8-1.4-1.4-3.9-2.2-12.3-2.2H80.7c-8.7,0-11.2.6-12.9,2.2-2.5,2.5-6.1,11.2-6.1,50.6s3.6,48.6,6.1,51.1c1.7,1.7,4.2,2.2,12.9,2.2h26.5c7.8,0,10.9-.6,12.6-2.2,2-2,5.9-7.3,5.9-21.2v-1.4H83.8V224.1h99.5v23.7c0,47.2-8.7,63.7-19.6,74.6-8.1,8.1-21,11.5-39.1,11.5H59.8c-20.4,0-31-3.6-38.6-11.2C9.7,311.5,0,290,0,236.1s9.8-75.4,21.2-86.6c7.5-7.5,18.2-11.2,38.6-11.2h65.1Z"/><path class="cls-1" d="M320.8,291.6H260.7l-12,42.2H188.6l59.2-178c5-14.8,7.3-18.4,20.7-18.4h48.1c13.4,0,15.9,3.9,20.7,18.4l59.2,178H333Zm-48.4-41.9H309l-16.8-57.6h-3.1Z"/><path class="cls-1" d="M643.2,333.8H586.5V215.3h-2.8L548.5,322.6c-2.8,8.4-5.3,11.2-12.6,11.2H515.8c-7.3,0-10.1-3.1-12.6-11.2L468,215.3h-2.8V333.8h-55V138.2H485c8.7,0,11.7,2.8,14.2,11.5l27.1,88.8h2.5l25.4-88.8c2.5-8.7,5.6-11.5,14.2-11.5H643V333.8Z"/><path class="cls-1" d="M833.4,333.8H673.6V138.2H833.4v45.3H733.7v30.2h72.6v41.9H733.7v33h99.7Z"/><path class="cls-1" d="M1008.9,324.3c-5.9,5.9-15.1,9.5-30.7,9.5H897.5c-17.6,0-27.7-2.2-34.6-9.2-8.1-8.1-12-22.4-12-56.7h55c.6,14.5,1.7,18.4,3.1,19.8,1.7,1.7,5,2.2,13.1,2.2h28.2c8.1,0,12.9-.6,14.2-2,1.7-1.7,2.5-5.6,2.5-12.6,0-5.6-.8-9.5-2.5-11.2-1.4-1.4-6.7-2.5-14.5-3.4L892.2,254c-12.3-1.4-20.4-4.5-26.5-10.6-7.5-7.5-12.6-19.3-12.6-46.4,0-24.9,6.1-40.5,15.1-49.5,5.9-5.9,15.4-9.5,30.2-9.5h75.2c18.2,0,28.5,2.8,34.6,8.9,8.4,8.4,12.9,20.7,13.1,54.5h-55c-.6-12.3-1.4-15.6-3.1-17.3s-4.5-2.2-11.7-2.2H923.6c-6.7,0-10.1.3-11.2,1.4-1.4,1.4-2.2,5-2.2,11.5,0,6.1.8,9.5,2.5,11.2,1.4,1.4,5,2,14.5,3.1l58.4,6.7c13.4,1.7,20.4,4.7,26.3,10.6,7.5,7.5,12.3,19.8,12.3,46.1C1024,299.4,1017.9,315.4,1008.9,324.3Z"/></g></g></svg>