<?xml version="1.0" encoding="utf-8"?>
<!-- Generator: Adobe Illustrator 24.3.0, SVG Export Plug-In . SVG Version: 6.00 Build 0)  -->
<svg version="1.1" id="Layer_1" xmlns="http://www.w3.org/2000/svg" xmlns:xlink="http://www.w3.org/1999/xlink" x="0px" y="0px"
	 viewBox="0 0 2048 2048" style="enable-background:new 0 0 2048 2048;" xml:space="preserve">
<style type="text/css">
	.st0{fill:#F2F2F2;}
	.st1{fill:#B40000;}
</style>
<g>
	<path class="st0" d="M1378.1,967.6h123.7l-104.5-104.5c-3.8-3.8-9-6-14.5-6h-123.7l104.5,104.5
		C1367.5,965.5,1372.7,967.6,1378.1,967.6z"/>
	<path class="st1" d="M1173.4,967.7l151.2-0.1L1220.1,863c-3.8-3.8-8.9-5.9-14.3-5.9l-151.2,0.1l104.6,104.6
		C1162.9,965.6,1168.1,967.7,1173.4,967.7z"/>
	<g>
		<path class="st0" d="M740.7,896.6H731v12.5h9.7c3.3,0,4.2-0.2,4.7-0.7c0.9-0.8,1.3-2.3,1.3-5.7c0-3.4-0.5-4.8-1.3-5.5
			C744.7,896.8,743.9,896.6,740.7,896.6z"/>
		<polygon class="st0" points="801.2,899.4 796.2,916.6 807.2,916.6 802.2,899.4 		"/>
		<path class="st0" d="M1018,863.4c-4-4-9.4-6.2-15-6.2l-485.1-0.1V957c0,5.9,4.7,10.6,10.6,10.6l593.7,0.1L1018,863.4z
			 M601.5,918.3c0,12.9-1.7,16.8-4.8,20c-2.7,2.7-6,3.4-13.5,3.4h-16.8c-7.5,0-10.8-0.8-13.5-3.4c-3.2-3.2-4.8-7.1-4.8-20v-34.9H566
			v34.8c0,5.4,0.4,6.9,1.2,7.7c0.7,0.7,2,0.9,4.8,0.9h5.6c2.8,0,4.2-0.2,4.8-0.9c0.7-0.8,1.2-2.3,1.2-7.7v-34.8h17.9V918.3z
			 M657.8,941.7h-45.1v-58.3h17.9v44.9h27.2V941.7z M706.5,897H689v44.7h-17.9V897H654v-13.7h52.5V897z M747.6,941.7
			c-0.6-3.9-0.8-7.9-1-12.9c-0.2-4.3-0.7-5.2-1.6-6c-0.8-0.7-1.6-1.1-5.3-1.1H731v20h-17.9v-58.3h37.3c5.8,0,9.1,0.8,11.3,3
			c2.6,2.6,3.8,5.5,3.8,13.6c0,10.8-3.3,14.1-10,15.4v0.2c5.8,1.3,9.2,3.3,9.4,11.7c0.2,5.7,0.6,11.3,0.9,14.5H747.6z M814.3,941.7
			l-3.7-12.6h-17.9l-3.6,12.6h-17.9l17.7-53.1c1.5-4.4,2.2-5.5,6.2-5.5h14.3c4,0,4.8,1.2,6.2,5.5l17.7,53.1H814.3z"/>
	</g>
	<g>
		<path class="st0" d="M636.9,995.3c21,0,32.7,2.8,40.2,10.1c9.8,9.5,15.6,23.7,16.5,57h-57.6c-0.3-15.6-3.9-17.9-5.9-19.8
			c-1.4-1.4-3.9-2.2-12.3-2.2h-25.1c-8.7,0-11.2,0.6-12.9,2.2c-2.5,2.5-6.1,11.2-6.1,50.6c0,39.4,3.6,48.6,6.1,51.1
			c1.7,1.7,4.2,2.2,12.9,2.2h26.5c7.8,0,10.9-0.6,12.6-2.2c2-2,5.9-7.3,5.9-21.2v-1.4h-41.9v-40.5h99.5v23.7
			c0,47.2-8.7,63.7-19.6,74.6c-8.1,8.1-21,11.5-39.1,11.5h-64.8c-20.4,0-31-3.6-38.6-11.2c-11.5-11.2-21.2-32.7-21.2-86.6
			s9.8-75.4,21.2-86.6c7.5-7.5,18.2-11.2,38.6-11.2H636.9z"/>
		<path class="st0" d="M832.8,1148.7h-60.1l-12,42.2h-60.1l59.2-178c5-14.8,7.3-18.4,20.7-18.4h48.1c13.4,0,15.9,3.9,20.7,18.4
			l59.2,178H845L832.8,1148.7z M784.4,1106.8H821l-16.8-57.6h-3.1L784.4,1106.8z"/>
		<path class="st0" d="M1155.2,1190.9h-56.7v-118.5h-2.8l-35.2,107.3c-2.8,8.4-5.3,11.2-12.6,11.2h-20.1c-7.3,0-10.1-3.1-12.6-11.2
			L980,1072.4h-2.8v118.5h-55V995.3H997c8.7,0,11.7,2.8,14.2,11.5l27.1,88.8h2.5l25.4-88.8c2.5-8.7,5.6-11.5,14.2-11.5h74.6V1190.9z
			"/>
		<path class="st0" d="M1345.4,1190.9h-159.8V995.3h159.8v45.3h-99.7v30.2h72.6v41.9h-72.6v33h99.7V1190.9z"/>
		<path class="st0" d="M1520.9,1181.4c-5.9,5.9-15.1,9.5-30.7,9.5h-80.7c-17.6,0-27.7-2.2-34.6-9.2c-8.1-8.1-12-22.4-12-56.7h55
			c0.6,14.5,1.7,18.4,3.1,19.8c1.7,1.7,5,2.2,13.1,2.2h28.2c8.1,0,12.9-0.6,14.2-2c1.7-1.7,2.5-5.6,2.5-12.6c0-5.6-0.8-9.5-2.5-11.2
			c-1.4-1.4-6.7-2.5-14.5-3.4l-57.8-6.7c-12.3-1.4-20.4-4.5-26.5-10.6c-7.5-7.5-12.6-19.3-12.6-46.4c0-24.9,6.1-40.5,15.1-49.5
			c5.9-5.9,15.4-9.5,30.2-9.5h75.2c18.2,0,28.5,2.8,34.6,8.9c8.4,8.4,12.9,20.7,13.1,54.5h-55c-0.6-12.3-1.4-15.6-3.1-17.3
			c-1.7-1.7-4.5-2.2-11.7-2.2h-27.9c-6.7,0-10.1,0.3-11.2,1.4c-1.4,1.4-2.2,5-2.2,11.5c0,6.1,0.8,9.5,2.5,11.2c1.4,1.4,5,2,14.5,3.1
			l58.4,6.7c13.4,1.7,20.4,4.7,26.3,10.6c7.5,7.5,12.3,19.8,12.3,46.1C1536,1156.5,1529.9,1172.5,1520.9,1181.4z"/>
	</g>
</g>
</svg>
